<svg width="1920" height="334" viewBox="0 0 1920 334" fill="none" xmlns="http://www.w3.org/2000/svg">
<g style="mix-blend-mode:lighten">
<path d="M-80.0626 281.98C-80.0626 281.98 -44.5271 513.218 347.908 585.319C740.343 657.42 952.65 551.797 964.371 549.784C1366.08 480.773 1362.18 269.675 1655.51 186.189C1856.36 129.023 1973.27 157.348 1973.27 157.348" stroke="url(#paint0_linear_0_1)" stroke-width="100"/>
<path d="M1415.4 315.324C1416.33 316.516 1416.8 317.856 1416.81 319.345C1416.81 320.812 1416.23 322.501 1415.07 324.412C1413.89 326.302 1412.1 328.447 1409.69 330.849C1407.3 333.233 1404.15 335.945 1400.25 338.983C1398.15 340.621 1396.24 341.988 1394.52 343.086C1392.81 344.205 1391.25 345.146 1389.82 345.908C1388.4 346.632 1387.09 347.222 1385.87 347.678C1384.67 348.096 1383.53 348.444 1382.46 348.722L1382.61 351.735L1377.41 355.787L1369.38 345.484L1377.25 339.356C1378.48 340.487 1379.82 341.182 1381.28 341.441C1382.73 341.701 1384.26 341.626 1385.86 341.217C1387.47 340.792 1389.16 340.091 1390.9 339.114C1392.65 338.098 1394.44 336.881 1396.26 335.463C1397.75 334.298 1398.91 333.327 1399.73 332.548C1400.55 331.769 1401.14 331.118 1401.5 330.595C1401.84 330.051 1402 329.611 1401.99 329.276C1401.95 328.92 1401.83 328.611 1401.63 328.351C1401.41 328.069 1401.15 327.89 1400.85 327.813C1400.55 327.698 1400.04 327.762 1399.33 328.006C1398.59 328.228 1397.54 328.646 1396.18 329.259C1394.83 329.855 1392.98 330.721 1390.63 331.858L1383.45 335.311C1381.01 336.477 1378.84 337.44 1376.92 338.2C1375.01 338.96 1373.3 339.453 1371.81 339.678C1370.31 339.904 1369 339.829 1367.87 339.454C1366.75 339.079 1365.76 338.35 1364.92 337.267C1364.05 336.162 1363.61 334.923 1363.59 333.549C1363.56 332.176 1364.07 330.596 1365.11 328.807C1366.14 326.997 1367.76 324.967 1369.98 322.718C1372.22 320.452 1375.17 317.892 1378.83 315.039C1380.56 313.689 1382.16 312.547 1383.63 311.613C1385.12 310.663 1386.49 309.874 1387.74 309.247C1389.01 308.603 1390.18 308.112 1391.24 307.773C1392.28 307.414 1393.24 307.141 1394.1 306.954L1394.06 304.219L1399.13 300.269L1405.97 309.044L1398.26 315.045C1397.52 314.581 1396.71 314.186 1395.83 313.862C1394.93 313.516 1393.91 313.408 1392.76 313.539C1391.59 313.649 1390.26 314.041 1388.76 314.717C1387.27 315.393 1385.55 316.49 1383.6 318.009C1382.28 319.039 1381.25 319.909 1380.52 320.621C1379.78 321.332 1379.27 321.943 1378.97 322.454C1378.65 322.944 1378.5 323.355 1378.52 323.69C1378.54 323.987 1378.65 324.254 1378.83 324.492C1378.98 324.687 1379.16 324.827 1379.37 324.911C1379.57 324.995 1379.92 324.969 1380.4 324.834C1380.89 324.699 1381.57 324.45 1382.43 324.088C1383.31 323.687 1384.49 323.111 1386 322.358L1393.5 318.652C1396.57 317.134 1399.24 315.87 1401.52 314.862C1403.8 313.814 1405.79 313.113 1407.5 312.758C1409.22 312.363 1410.7 312.372 1411.96 312.783C1413.23 313.155 1414.37 314.002 1415.4 315.324ZM1461.15 277.801L1467.33 285.731L1460.51 291.049L1457.11 290.04C1456.74 290.816 1456.27 291.706 1455.69 292.711C1455.14 293.7 1454.44 294.748 1453.6 295.857C1452.76 296.966 1451.76 298.105 1450.62 299.274C1449.51 300.448 1448.22 301.609 1446.75 302.757C1443.39 305.373 1440.1 307.489 1436.86 309.103C1433.63 310.679 1430.6 311.702 1427.76 312.171C1424.93 312.641 1422.35 312.526 1420.03 311.827C1417.69 311.106 1415.74 309.749 1414.19 307.756C1412.67 305.806 1411.86 303.62 1411.75 301.199C1411.66 298.761 1412.18 296.233 1413.3 293.613C1414.45 290.977 1416.18 288.294 1418.47 285.565C1420.77 282.836 1423.55 280.198 1426.82 277.648C1428.38 276.433 1429.85 275.431 1431.22 274.642C1432.6 273.815 1433.88 273.143 1435.08 272.626C1436.28 272.109 1437.39 271.718 1438.4 271.453C1439.39 271.165 1440.29 270.954 1441.09 270.818L1440.98 267.664L1446.77 263.156L1454.95 273.654L1446.75 280.035C1444.41 278.1 1441.89 277.259 1439.2 277.512C1436.51 277.726 1433.66 279.006 1430.65 281.353C1429.39 282.332 1428.26 283.463 1427.23 284.745C1426.24 286.01 1425.48 287.365 1424.97 288.808C1424.48 290.235 1424.32 291.713 1424.51 293.243C1424.67 294.75 1425.32 296.23 1426.45 297.682C1427.51 299.047 1428.71 300.097 1430.05 300.83C1431.39 301.525 1432.86 301.883 1434.44 301.903C1436.01 301.902 1437.66 301.55 1439.41 300.848C1441.19 300.129 1443.03 299.026 1444.93 297.541C1446.23 296.528 1447.24 295.556 1447.94 294.626C1448.62 293.674 1449.07 292.789 1449.27 291.972C1449.49 291.138 1449.52 290.379 1449.37 289.696C1449.22 289.012 1448.95 288.42 1448.56 287.922L1448.41 287.727L1442.69 292.184L1439.4 287.958L1462.38 270.056L1465.67 274.282L1461.15 277.801ZM1498.99 229.418L1501.4 259.192L1490.09 268.004L1461.68 258.487L1456.09 262.842L1452.72 258.519L1476.87 239.706L1480.23 244.029L1476.01 247.32L1491.67 253.816L1491.8 253.714L1490.02 236.407L1485.86 239.648L1482.49 235.325L1500.95 220.943L1504.32 225.266L1498.99 229.418Z" fill="#171717"/>
<path d="M1411.36 351.533L1410.26 352.392L1407.21 343.37L1408.41 342.436L1416.42 347.596L1415.31 348.455L1408.85 344.169L1408.79 344.21L1411.36 351.533ZM1409.38 348.611L1412.96 345.825L1413.66 346.725L1410.09 349.512L1409.38 348.611ZM1437.9 319.467L1438.94 318.655L1442.57 323.319C1442.96 323.815 1443.19 324.343 1443.26 324.902C1443.33 325.459 1443.25 326.007 1443.01 326.546C1442.77 327.082 1442.37 327.566 1441.82 327.995C1441.27 328.423 1440.7 328.688 1440.13 328.79C1439.54 328.891 1438.99 328.839 1438.47 328.634C1437.95 328.427 1437.49 328.076 1437.1 327.58L1433.47 322.916L1434.51 322.106L1438.07 326.683C1438.32 327.004 1438.61 327.236 1438.95 327.379C1439.28 327.521 1439.63 327.563 1439.99 327.509C1440.36 327.453 1440.71 327.289 1441.06 327.018C1441.41 326.746 1441.65 326.442 1441.8 326.103C1441.94 325.761 1441.98 325.413 1441.92 325.059C1441.87 324.703 1441.71 324.365 1441.46 324.044L1437.9 319.467ZM1462.41 301.849L1461.69 300.928L1467.02 296.776L1467.74 297.697L1465.59 299.371L1470.4 305.541L1469.36 306.348L1464.55 300.178L1462.41 301.849ZM1498.23 278.161C1498.82 278.918 1499.19 279.674 1499.35 280.428C1499.5 281.18 1499.46 281.885 1499.22 282.543C1498.98 283.197 1498.56 283.755 1497.97 284.218C1497.37 284.683 1496.72 284.952 1496.03 285.026C1495.33 285.097 1494.64 284.964 1493.95 284.629C1493.25 284.293 1492.61 283.748 1492.02 282.993C1491.44 282.236 1491.06 281.482 1490.91 280.73C1490.75 279.976 1490.8 279.272 1491.04 278.617C1491.28 277.959 1491.69 277.398 1492.29 276.933C1492.88 276.47 1493.53 276.204 1494.22 276.134C1494.92 276.06 1495.61 276.191 1496.3 276.526C1497 276.859 1497.64 277.405 1498.23 278.161ZM1497.2 278.962C1496.75 278.385 1496.28 277.97 1495.79 277.717C1495.3 277.46 1494.82 277.351 1494.35 277.392C1493.88 277.43 1493.44 277.602 1493.05 277.91C1492.65 278.219 1492.38 278.598 1492.23 279.045C1492.08 279.491 1492.06 279.984 1492.19 280.522C1492.32 281.056 1492.61 281.612 1493.06 282.189C1493.51 282.767 1493.98 283.183 1494.46 283.441C1494.95 283.694 1495.43 283.802 1495.91 283.765C1496.37 283.726 1496.81 283.552 1497.2 283.242C1497.6 282.935 1497.87 282.558 1498.03 282.112C1498.18 281.663 1498.19 281.17 1498.06 280.636C1497.94 280.097 1497.65 279.54 1497.2 278.962Z" fill="#171717"/>
<path d="M1631.52 190.843C1631.91 192.301 1631.83 193.718 1631.27 195.097C1630.7 196.448 1629.51 197.783 1627.7 199.101C1625.89 200.393 1623.41 201.682 1620.26 202.969C1617.14 204.249 1613.19 205.54 1608.42 206.842C1605.85 207.544 1603.56 208.07 1601.55 208.419C1599.54 208.795 1597.74 209.061 1596.13 209.215C1594.54 209.336 1593.1 209.373 1591.8 209.328C1590.53 209.249 1589.34 209.132 1588.25 208.975L1587.23 211.815L1580.87 213.551L1577.43 200.952L1587.05 198.326C1587.75 199.844 1588.72 201.002 1589.96 201.802C1591.21 202.602 1592.64 203.12 1594.27 203.358C1595.93 203.589 1597.75 203.59 1599.74 203.361C1601.75 203.098 1603.86 202.662 1606.09 202.055C1607.92 201.556 1609.36 201.105 1610.42 200.702C1611.48 200.299 1612.27 199.926 1612.8 199.581C1613.33 199.211 1613.65 198.867 1613.76 198.551C1613.87 198.21 1613.88 197.879 1613.79 197.561C1613.69 197.216 1613.52 196.951 1613.27 196.763C1613.04 196.541 1612.55 196.405 1611.79 196.355C1611.03 196.278 1609.9 196.259 1608.4 196.298C1606.93 196.329 1604.89 196.416 1602.28 196.559L1594.33 196.98C1591.63 197.118 1589.25 197.169 1587.19 197.134C1585.13 197.098 1583.37 196.896 1581.9 196.528C1580.44 196.159 1579.25 195.585 1578.36 194.805C1577.46 194.025 1576.83 192.972 1576.47 191.647C1576.1 190.296 1576.17 188.982 1576.68 187.705C1577.18 186.427 1578.26 185.166 1579.91 183.917C1581.56 182.643 1583.84 181.394 1586.75 180.172C1589.69 178.943 1593.4 177.717 1597.87 176.494C1599.99 175.916 1601.91 175.478 1603.62 175.181C1605.36 174.877 1606.93 174.677 1608.33 174.58C1609.75 174.477 1611.02 174.473 1612.12 174.569C1613.23 174.639 1614.21 174.754 1615.08 174.915L1616.1 172.374L1622.3 170.682L1625.23 181.413L1615.81 183.985C1615.3 183.269 1614.7 182.592 1614.01 181.954C1613.32 181.29 1612.42 180.796 1611.3 180.473C1610.18 180.125 1608.8 179.974 1607.16 180.023C1605.53 180.072 1603.52 180.421 1601.13 181.072C1599.51 181.513 1598.23 181.92 1597.28 182.294C1596.33 182.668 1595.62 183.033 1595.14 183.39C1594.66 183.72 1594.37 184.042 1594.25 184.358C1594.16 184.64 1594.15 184.927 1594.23 185.218C1594.3 185.457 1594.41 185.654 1594.57 185.811C1594.72 185.968 1595.05 186.077 1595.55 186.139C1596.05 186.202 1596.77 186.233 1597.71 186.233C1598.67 186.199 1599.99 186.124 1601.67 186.008L1610.02 185.478C1613.43 185.259 1616.39 185.121 1618.88 185.068C1621.39 184.981 1623.5 185.102 1625.21 185.432C1626.94 185.728 1628.31 186.308 1629.32 187.172C1630.34 188.003 1631.07 189.227 1631.52 190.843ZM1688.19 173.836L1690.83 183.534L1682.49 185.813L1679.74 183.573C1679.1 184.146 1678.32 184.786 1677.4 185.492C1676.51 186.191 1675.46 186.889 1674.26 187.589C1673.06 188.288 1671.7 188.957 1670.2 189.595C1668.72 190.253 1667.09 190.828 1665.28 191.32C1661.18 192.441 1657.32 193.123 1653.71 193.368C1650.13 193.578 1646.93 193.353 1644.14 192.694C1641.34 192.035 1639 190.936 1637.13 189.397C1635.25 187.831 1633.98 185.829 1633.31 183.392C1632.66 181.007 1632.75 178.676 1633.58 176.4C1634.44 174.116 1635.89 171.982 1637.94 169.999C1640.02 168.009 1642.64 166.197 1645.81 164.563C1648.98 162.928 1652.56 161.566 1656.57 160.473C1658.47 159.952 1660.21 159.592 1661.78 159.392C1663.37 159.158 1664.81 159.033 1666.12 159.018C1667.43 159.004 1668.6 159.068 1669.63 159.213C1670.66 159.33 1671.57 159.481 1672.36 159.664L1673.48 156.711L1680.55 154.78L1684.06 167.618L1674.04 170.352C1672.62 167.664 1670.62 165.918 1668.04 165.114C1665.48 164.276 1662.35 164.36 1658.67 165.365C1657.13 165.785 1655.65 166.39 1654.21 167.18C1652.8 167.963 1651.58 168.923 1650.55 170.058C1649.55 171.185 1648.84 172.49 1648.42 173.972C1647.99 175.426 1648.02 177.042 1648.5 178.817C1648.96 180.487 1649.66 181.918 1650.62 183.11C1651.59 184.268 1652.8 185.162 1654.25 185.79C1655.7 186.392 1657.36 186.706 1659.25 186.732C1661.16 186.751 1663.28 186.442 1665.62 185.806C1667.21 185.372 1668.5 184.86 1669.51 184.273C1670.51 183.658 1671.26 183.013 1671.76 182.335C1672.28 181.651 1672.61 180.964 1672.73 180.275C1672.86 179.587 1672.84 178.937 1672.67 178.328L1672.61 178.089L1665.61 179.999L1664.2 174.832L1692.3 167.161L1693.71 172.328L1688.19 173.836ZM1741.74 143.758L1732.49 172.163L1718.66 175.938L1696.11 156.214L1689.27 158.08L1687.83 152.793L1717.36 144.732L1718.8 150.018L1713.64 151.429L1725.59 163.456L1725.75 163.412L1730.77 146.753L1725.68 148.141L1724.24 142.855L1746.81 136.693L1748.26 141.979L1741.74 143.758Z" fill="#171717"/>
<path d="M1613.84 222.702L1612.49 223.07L1613.15 213.572L1614.62 213.171L1620.02 221.016L1618.67 221.384L1614.35 214.937L1614.29 214.955L1613.84 222.702ZM1613.14 219.244L1617.51 218.05L1617.81 219.151L1613.44 220.345L1613.14 219.244ZM1650.68 203.329L1651.95 202.982L1653.51 208.685C1653.67 209.292 1653.68 209.867 1653.53 210.411C1653.38 210.953 1653.09 211.425 1652.67 211.831C1652.24 212.233 1651.68 212.527 1651.01 212.71C1650.34 212.894 1649.72 212.921 1649.14 212.792C1648.57 212.661 1648.08 212.401 1647.68 212.01C1647.27 211.618 1646.98 211.118 1646.82 210.511L1645.26 204.807L1646.53 204.46L1648.06 210.058C1648.17 210.45 1648.35 210.776 1648.6 211.036C1648.85 211.294 1649.16 211.468 1649.51 211.558C1649.87 211.647 1650.26 211.632 1650.69 211.516C1651.11 211.399 1651.46 211.213 1651.72 210.956C1651.99 210.696 1652.16 210.391 1652.24 210.041C1652.32 209.691 1652.31 209.319 1652.2 208.927L1650.68 203.329ZM1680.08 196.512L1679.78 195.386L1686.29 193.607L1686.6 194.733L1683.97 195.45L1686.03 202.996L1684.77 203.342L1682.71 195.796L1680.08 196.512ZM1722.26 188.447C1722.51 189.373 1722.57 190.214 1722.42 190.97C1722.27 191.723 1721.96 192.358 1721.49 192.872C1721.01 193.383 1720.41 193.738 1719.69 193.936C1718.96 194.135 1718.26 194.135 1717.59 193.936C1716.92 193.734 1716.33 193.344 1715.82 192.768C1715.31 192.191 1714.93 191.441 1714.68 190.517C1714.42 189.592 1714.37 188.753 1714.52 187.999C1714.67 187.244 1714.98 186.61 1715.45 186.099C1715.93 185.584 1716.53 185.226 1717.26 185.027C1717.98 184.829 1718.68 184.832 1719.35 185.035C1720.02 185.234 1720.61 185.622 1721.12 186.198C1721.63 186.772 1722.01 187.522 1722.26 188.447ZM1721 188.791C1720.81 188.085 1720.54 187.521 1720.18 187.099C1719.83 186.674 1719.43 186.388 1718.98 186.245C1718.53 186.098 1718.06 186.09 1717.58 186.222C1717.1 186.354 1716.7 186.598 1716.39 186.953C1716.07 187.305 1715.87 187.755 1715.78 188.301C1715.69 188.843 1715.75 189.468 1715.94 190.173C1716.13 190.88 1716.4 191.445 1716.76 191.871C1717.11 192.292 1717.51 192.577 1717.96 192.725C1718.41 192.869 1718.88 192.875 1719.36 192.743C1719.84 192.611 1720.24 192.369 1720.56 192.017C1720.87 191.661 1721.07 191.211 1721.16 190.669C1721.25 190.122 1721.2 189.497 1721 188.791Z" fill="#171717"/>
<path d="M1875.62 147.651C1875.56 149.161 1875.06 150.489 1874.11 151.637C1873.16 152.758 1871.63 153.679 1869.52 154.4C1867.41 155.094 1864.65 155.586 1861.26 155.877C1857.9 156.168 1853.75 156.226 1848.81 156.049C1846.14 155.953 1843.8 155.773 1841.77 155.508C1839.75 155.271 1837.95 154.986 1836.36 154.654C1834.81 154.297 1833.42 153.903 1832.2 153.475C1831.01 153.02 1829.91 152.555 1828.91 152.079L1827.09 154.487L1820.51 154.251L1820.97 141.199L1830.94 141.556C1831.15 143.213 1831.74 144.608 1832.68 145.741C1833.63 146.875 1834.85 147.798 1836.34 148.511C1837.85 149.225 1839.59 149.768 1841.56 150.141C1843.55 150.487 1845.7 150.701 1848 150.784C1849.9 150.852 1851.41 150.851 1852.54 150.782C1853.67 150.712 1854.54 150.593 1855.15 150.422C1855.76 150.224 1856.17 149.991 1856.37 149.723C1856.57 149.429 1856.68 149.116 1856.69 148.787C1856.71 148.429 1856.62 148.124 1856.44 147.87C1856.28 147.59 1855.85 147.314 1855.15 147.041C1854.44 146.741 1853.37 146.387 1851.93 145.977C1850.51 145.569 1848.54 145.045 1846.01 144.405L1838.29 142.438C1835.67 141.767 1833.39 141.108 1831.43 140.461C1829.47 139.813 1827.85 139.095 1826.56 138.307C1825.27 137.519 1824.31 136.619 1823.69 135.607C1823.07 134.595 1822.78 133.403 1822.83 132.031C1822.88 130.631 1823.33 129.397 1824.2 128.328C1825.06 127.259 1826.47 126.376 1828.41 125.676C1830.36 124.949 1832.91 124.435 1836.06 124.135C1839.23 123.837 1843.13 123.771 1847.77 123.937C1849.97 124.016 1851.93 124.168 1853.65 124.395C1855.4 124.623 1856.96 124.898 1858.32 125.222C1859.71 125.547 1860.92 125.92 1861.95 126.341C1862.98 126.736 1863.89 127.139 1864.67 127.552L1866.39 125.429L1872.82 125.659L1872.42 136.776L1862.66 136.426C1862.39 135.592 1862.02 134.768 1861.55 133.954C1861.09 133.113 1860.37 132.373 1859.41 131.733C1858.44 131.067 1857.17 130.512 1855.59 130.071C1854.01 129.63 1851.99 129.365 1849.52 129.277C1847.84 129.217 1846.5 129.223 1845.48 129.297C1844.46 129.37 1843.67 129.507 1843.11 129.707C1842.56 129.879 1842.18 130.099 1841.98 130.367C1841.8 130.608 1841.71 130.88 1841.7 131.181C1841.69 131.428 1841.74 131.65 1841.84 131.846C1841.94 132.042 1842.22 132.244 1842.68 132.453C1843.14 132.663 1843.82 132.907 1844.72 133.186C1845.64 133.439 1846.92 133.76 1848.56 134.148L1856.69 136.13C1860.02 136.937 1862.88 137.684 1865.27 138.375C1867.69 139.039 1869.67 139.783 1871.21 140.608C1872.77 141.406 1873.91 142.367 1874.61 143.492C1875.34 144.59 1875.68 145.976 1875.62 147.651ZM1934.78 148.287L1934.42 158.333L1925.77 158.023L1923.82 155.067C1923.04 155.424 1922.1 155.803 1921.02 156.204C1919.96 156.606 1918.75 156.96 1917.39 157.269C1916.03 157.578 1914.54 157.814 1912.91 157.975C1911.31 158.165 1909.58 158.226 1907.71 158.159C1903.46 158.007 1899.57 157.51 1896.06 156.67C1892.57 155.803 1889.59 154.637 1887.11 153.175C1884.64 151.712 1882.73 149.967 1881.4 147.941C1880.08 145.886 1879.46 143.597 1879.55 141.072C1879.64 138.601 1880.42 136.403 1881.89 134.477C1883.38 132.551 1885.41 130.947 1887.95 129.664C1890.53 128.383 1893.57 127.433 1897.09 126.817C1900.6 126.201 1904.43 125.967 1908.57 126.116C1910.55 126.186 1912.31 126.36 1913.87 126.635C1915.46 126.885 1916.87 127.196 1918.13 127.571C1919.38 127.946 1920.47 128.356 1921.42 128.802C1922.37 129.221 1923.19 129.636 1923.89 130.045L1925.84 127.559L1933.16 127.821L1932.69 141.121L1922.31 140.749C1921.76 137.761 1920.37 135.498 1918.14 133.962C1915.95 132.399 1912.94 131.549 1909.12 131.412C1907.53 131.355 1905.93 131.491 1904.33 131.818C1902.75 132.146 1901.3 132.699 1899.98 133.476C1898.69 134.254 1897.62 135.288 1896.78 136.577C1895.93 137.838 1895.48 139.388 1895.41 141.228C1895.35 142.957 1895.6 144.533 1896.15 145.954C1896.73 147.349 1897.63 148.563 1898.83 149.596C1900.03 150.6 1901.52 151.396 1903.32 151.983C1905.14 152.571 1907.25 152.907 1909.67 152.994C1911.32 153.053 1912.71 152.951 1913.84 152.69C1914.98 152.401 1915.89 152.008 1916.57 151.509C1917.27 151.012 1917.79 150.453 1918.11 149.833C1918.44 149.213 1918.61 148.586 1918.63 147.955L1918.64 147.708L1911.39 147.449L1911.59 142.096L1940.7 143.139L1940.5 148.492L1934.78 148.287ZM1994.86 135.515L1977.58 159.88L1963.25 159.366L1947.59 133.822L1940.51 133.568L1940.7 128.092L1971.3 129.188L1971.1 134.664L1965.75 134.472L1973.58 149.512L1973.74 149.518L1983.49 135.108L1978.22 134.919L1978.42 129.443L2001.81 130.281L2001.61 135.757L1994.86 135.515Z" fill="#171717"/>
<path d="M1849.26 172.803L1847.86 172.753L1851.32 163.882L1852.84 163.937L1855.66 173.033L1854.26 172.983L1852.06 165.543L1851.99 165.54L1849.26 172.803ZM1849.62 169.293L1854.15 169.456L1854.11 170.596L1849.58 170.434L1849.62 169.293ZM1890.19 165.275L1891.51 165.323L1891.3 171.231C1891.28 171.86 1891.11 172.412 1890.81 172.886C1890.51 173.359 1890.09 173.724 1889.56 173.984C1889.03 174.24 1888.42 174.356 1887.72 174.331C1887.02 174.306 1886.42 174.146 1885.91 173.853C1885.4 173.556 1885.01 173.162 1884.74 172.669C1884.47 172.174 1884.35 171.612 1884.37 170.983L1884.58 165.074L1885.9 165.121L1885.69 170.92C1885.68 171.326 1885.75 171.691 1885.91 172.013C1886.08 172.335 1886.32 172.592 1886.63 172.785C1886.94 172.976 1887.32 173.078 1887.76 173.094C1888.2 173.109 1888.59 173.035 1888.92 172.867C1889.25 172.697 1889.5 172.458 1889.68 172.148C1889.87 171.838 1889.97 171.48 1889.98 171.074L1890.19 165.275ZM1920.29 167.522L1920.34 166.356L1927.09 166.597L1927.04 167.764L1924.32 167.666L1924.04 175.483L1922.73 175.436L1923.01 167.619L1920.29 167.522ZM1962.96 172.38C1962.93 173.339 1962.73 174.158 1962.36 174.836C1962 175.51 1961.51 176.024 1960.9 176.373C1960.3 176.72 1959.62 176.881 1958.87 176.854C1958.11 176.827 1957.45 176.618 1956.87 176.228C1956.29 175.837 1955.84 175.289 1955.53 174.587C1955.21 173.884 1955.07 173.054 1955.1 172.098C1955.14 171.14 1955.34 170.323 1955.7 169.647C1956.07 168.97 1956.55 168.457 1957.16 168.11C1957.76 167.76 1958.44 167.597 1959.2 167.624C1959.95 167.651 1960.62 167.862 1961.19 168.255C1961.77 168.644 1962.22 169.19 1962.54 169.892C1962.85 170.592 1962.99 171.421 1962.96 172.38ZM1961.66 172.333C1961.68 171.602 1961.59 170.983 1961.38 170.474C1961.17 169.964 1960.87 169.572 1960.48 169.3C1960.1 169.026 1959.65 168.88 1959.16 168.862C1958.65 168.844 1958.2 168.958 1957.8 169.204C1957.39 169.447 1957.07 169.817 1956.82 170.311C1956.57 170.803 1956.44 171.414 1956.41 172.145C1956.38 172.877 1956.48 173.498 1956.69 174.009C1956.9 174.517 1957.2 174.909 1957.58 175.183C1957.97 175.455 1958.41 175.599 1958.91 175.617C1959.41 175.635 1959.87 175.523 1960.27 175.279C1960.68 175.033 1961 174.664 1961.25 174.173C1961.49 173.677 1961.63 173.065 1961.66 172.333Z" fill="#171717"/>
</g>
<path d="M99.9382 -258.978C99.9382 -258.978 16.717 -40.3274 322.44 216.066C628.163 472.459 864.94 485.38 876.128 489.414C1259.56 627.655 1360.36 442.136 1656.68 514.299C1859.58 563.711 1947.27 646.045 1947.27 646.045" stroke="url(#paint1_linear_0_1)" stroke-width="100"/>
<path d="M115.856 -52.7229C114.49 -52.0773 113.08 -51.9123 111.625 -52.2271C110.195 -52.5537 108.673 -53.4903 107.061 -55.0375C105.474 -56.5961 103.772 -58.8149 101.956 -61.6934C100.152 -64.547 98.1939 -68.2089 96.0814 -72.679C94.943 -75.0879 94.0262 -77.2521 93.332 -79.172C92.6125 -81.0802 92.0363 -82.813 91.6043 -84.3708C91.2082 -85.9152 90.9207 -87.3287 90.74 -88.6104C90.5961 -89.8792 90.5054 -91.0667 90.4688 -92.1734L87.4945 -92.6817L84.6779 -98.6418L96.4863 -104.222L100.746 -95.2075C99.3737 -94.2551 98.4022 -93.0972 97.8311 -91.7336C97.2599 -90.37 96.9995 -88.8647 97.049 -87.2172C97.1101 -85.5449 97.4264 -83.75 97.9985 -81.833C98.6065 -79.9027 99.4039 -77.8947 100.39 -75.8087C101.2 -74.0951 101.894 -72.7526 102.475 -71.7815C103.056 -70.8105 103.562 -70.0924 103.994 -69.6284C104.45 -69.1758 104.844 -68.9213 105.175 -68.865C105.53 -68.8201 105.857 -68.8683 106.155 -69.0091C106.478 -69.1618 106.71 -69.3777 106.851 -69.6571C107.029 -69.9236 107.077 -70.4324 106.996 -71.1836C106.939 -71.9469 106.761 -73.0624 106.462 -74.5313C106.175 -75.9754 105.734 -77.9694 105.138 -80.5135L103.339 -88.2756C102.734 -90.9061 102.269 -93.2386 101.946 -95.2731C101.622 -97.3075 101.514 -99.0792 101.621 -100.588C101.729 -102.097 102.088 -103.361 102.701 -104.379C103.313 -105.398 104.24 -106.2 105.482 -106.787C106.748 -107.386 108.054 -107.547 109.4 -107.271C110.745 -106.996 112.176 -106.153 113.693 -104.743C115.234 -103.345 116.861 -101.319 118.571 -98.664C120.293 -95.9842 122.146 -92.5458 124.129 -88.3489C125.068 -86.3622 125.833 -84.5514 126.423 -82.9164C127.025 -81.2567 127.496 -79.7475 127.834 -78.3882C128.184 -77.0042 128.408 -75.7583 128.507 -74.6504C128.629 -73.5541 128.687 -72.5638 128.68 -71.6794L131.359 -71.1223L134.105 -65.3113L124.047 -60.5583L119.875 -69.3866C120.491 -70.012 121.054 -70.7183 121.562 -71.5055C122.096 -72.3046 122.425 -73.2801 122.549 -74.4324C122.697 -75.5962 122.606 -76.9809 122.272 -78.5853C121.939 -80.1899 121.245 -82.1098 120.189 -84.3448C119.473 -85.8597 118.848 -87.0533 118.314 -87.925C117.781 -88.7968 117.297 -89.4341 116.864 -89.837C116.455 -90.2514 116.086 -90.4872 115.755 -90.5435C115.462 -90.5869 115.178 -90.5439 114.905 -90.4149C114.681 -90.3093 114.506 -90.1659 114.379 -89.9843C114.252 -89.8027 114.202 -89.4601 114.227 -88.9556C114.253 -88.4511 114.348 -87.7365 114.512 -86.8114C114.712 -85.8734 115.015 -84.5886 115.421 -82.9578L117.397 -74.8232C118.208 -71.5 118.857 -68.6169 119.343 -66.1732C119.866 -63.7166 120.115 -61.6163 120.088 -59.8721C120.098 -58.1148 119.765 -56.6664 119.089 -55.5263C118.449 -54.3734 117.372 -53.439 115.856 -52.7229ZM142.47 0.122619L133.381 4.4179L129.685 -3.40469L131.412 -6.49947C130.736 -7.03096 129.97 -7.68656 129.115 -8.46715C128.271 -9.2226 127.401 -10.133 126.503 -11.1974C125.605 -12.2619 124.71 -13.4797 123.82 -14.8508C122.915 -16.1859 122.064 -17.6976 121.266 -19.3859C119.447 -23.2348 118.104 -26.9142 117.235 -30.4228C116.404 -33.918 116.069 -37.1023 116.231 -39.9733C116.393 -42.8444 117.069 -45.3365 118.258 -47.448C119.473 -49.5714 121.222 -51.1728 123.507 -52.2524C125.742 -53.3086 128.052 -53.6259 130.439 -53.2044C132.837 -52.758 135.191 -51.6985 137.501 -50.025C139.822 -48.3273 142.063 -46.06 144.224 -43.2226C146.386 -40.3853 148.352 -37.0925 150.124 -33.3423C150.969 -31.5543 151.626 -29.9054 152.097 -28.3962C152.604 -26.8732 152.978 -25.4711 153.22 -24.1877C153.462 -22.9042 153.602 -21.74 153.64 -20.6951C153.703 -19.662 153.713 -18.7394 153.671 -17.9299L156.773 -17.345L159.906 -10.7145L147.874 -5.02848L143.438 -14.4156C145.838 -16.2791 147.21 -18.5529 147.552 -21.2356C147.93 -23.906 147.304 -26.9663 145.673 -30.4185C144.992 -31.8592 144.137 -33.2166 143.109 -34.4931C142.093 -35.7445 140.936 -36.7778 139.639 -37.5926C138.354 -38.3832 136.946 -38.8568 135.414 -39.0133C133.907 -39.1818 132.321 -38.8732 130.657 -38.0868C129.092 -37.3474 127.806 -36.4056 126.797 -35.2605C125.826 -34.103 125.157 -32.7535 124.791 -31.2135C124.45 -29.6854 124.431 -27.9903 124.733 -26.1281C125.048 -24.2408 125.721 -22.2055 126.754 -20.0198C127.458 -18.5298 128.188 -17.3401 128.942 -16.4512C129.721 -15.5741 130.487 -14.9485 131.241 -14.5756C132.007 -14.1776 132.739 -13.977 133.439 -13.9739C134.139 -13.9708 134.775 -14.1042 135.346 -14.3739L135.57 -14.4796L132.472 -21.0356L137.314 -23.3241L149.76 3.01196L144.917 5.30043L142.47 0.122619ZM181.412 47.619L151.832 43.4611L145.706 30.4979L161.203 4.85541L158.175 -1.55168L163.13 -3.89296L176.209 23.7841L171.255 26.1254L168.966 21.2829L159.204 35.1468L159.275 35.2958L176.553 37.3378L174.3 32.5698L179.255 30.2285L189.253 51.3867L184.299 53.728L181.412 47.619Z" fill="#171717"/>
<path d="M81.4069 -64.5811L80.8097 -65.8448L90.2787 -66.846L90.9287 -65.4705L84.1435 -58.7904L83.5463 -60.0541L89.1431 -65.4279L89.114 -65.4896L81.4069 -64.5811ZM84.6901 -65.8734L86.6274 -61.774L85.5955 -61.2864L83.6583 -65.3858L84.6901 -65.8734ZM106.897 -31.6808L107.461 -30.4865L102.116 -27.9604C101.547 -27.6915 100.982 -27.5827 100.421 -27.6349C99.8613 -27.6879 99.3455 -27.8899 98.8718 -28.2412C98.401 -28.5939 98.0156 -29.0864 97.7174 -29.7175C97.42 -30.3468 97.285 -30.9554 97.3115 -31.5431C97.3407 -32.1321 97.5117 -32.6597 97.8263 -33.1247C98.1423 -33.5915 98.5846 -33.9598 99.1536 -34.2287L104.499 -36.7548L105.062 -35.564L99.816 -33.085C99.4481 -32.9112 99.1584 -32.678 98.9464 -32.3865C98.7357 -32.0923 98.6177 -31.7611 98.5909 -31.3934C98.566 -31.0266 98.6483 -30.6452 98.8368 -30.2465C99.026 -29.846 99.2693 -29.5384 99.5685 -29.3248C99.8709 -29.1093 100.201 -28.992 100.559 -28.9735C100.92 -28.9512 101.283 -29.028 101.651 -29.2018L106.897 -31.6808ZM118.73 -3.90924L119.785 -4.40787L122.672 1.69949L121.616 2.19812L120.453 -0.263807L113.381 3.07824L112.82 1.89112L119.892 -1.45093L118.73 -3.90924ZM134.015 36.2206C133.147 36.6307 132.328 36.8295 131.558 36.8165C130.791 36.8018 130.112 36.6062 129.523 36.2276C128.937 35.8508 128.483 35.322 128.161 34.6412C127.838 33.9577 127.717 33.2695 127.797 32.5749C127.879 31.8821 128.161 31.2337 128.639 30.6306C129.118 30.0269 129.791 29.5212 130.656 29.1123C131.523 28.7026 132.34 28.5042 133.108 28.5186C133.878 28.532 134.556 28.7271 135.141 29.1039C135.731 29.4821 136.188 30.0118 136.511 30.6953C136.833 31.3761 136.951 32.0634 136.868 32.7566C136.788 33.4512 136.509 34.0996 136.031 34.7028C135.554 35.3051 134.882 35.8108 134.015 36.2206ZM133.458 35.0416C134.119 34.7291 134.627 34.362 134.981 33.9401C135.338 33.5201 135.549 33.0743 135.612 32.6054C135.678 32.1373 135.605 31.6764 135.392 31.2243C135.177 30.7695 134.867 30.4195 134.464 30.1742C134.062 29.9271 133.584 29.8069 133.031 29.8137C132.481 29.8224 131.876 29.9825 131.215 30.2949C130.552 30.6078 130.043 30.9745 129.685 31.395C129.332 31.8164 129.121 32.2622 129.054 32.7307C128.989 33.1969 129.065 33.6579 129.28 34.1126C129.493 34.5647 129.801 34.9147 130.203 35.1618C130.608 35.4094 131.086 35.5296 131.635 35.5214C132.189 35.5141 132.796 35.3545 133.458 35.0416Z" fill="#171717"/>
<path d="M252.202 149.716C251.163 150.813 249.91 151.479 248.439 151.714C246.988 151.929 245.23 151.609 243.167 150.752C241.121 149.877 238.731 148.427 235.993 146.404C233.276 144.401 230.122 141.7 226.531 138.302C224.595 136.47 222.955 134.787 221.611 133.25C220.248 131.733 219.082 130.328 218.114 129.033C217.184 127.738 216.403 126.525 215.769 125.397C215.174 124.267 214.659 123.193 214.223 122.175L211.267 122.782L206.479 118.251L215.455 108.764L222.697 115.617C221.764 117.003 221.28 118.434 221.242 119.912C221.205 121.39 221.509 122.887 222.154 124.404C222.818 125.94 223.764 127.498 224.993 129.076C226.261 130.654 227.733 132.235 229.409 133.821C230.785 135.124 231.92 136.122 232.814 136.816C233.708 137.51 234.439 137.996 235.011 138.271C235.6 138.527 236.06 138.621 236.388 138.554C236.735 138.466 237.023 138.303 237.249 138.063C237.495 137.804 237.632 137.518 237.663 137.207C237.732 136.894 237.592 136.402 237.243 135.732C236.913 135.041 236.342 134.067 235.53 132.807C234.738 131.565 233.603 129.868 232.125 127.713L227.63 121.134C226.111 118.903 224.831 116.898 223.791 115.12C222.751 113.342 222.007 111.73 221.559 110.286C221.111 108.841 220.988 107.533 221.188 106.361C221.389 105.19 221.962 104.105 222.905 103.108C223.868 102.09 225.026 101.466 226.38 101.234C227.734 101.002 229.373 101.268 231.298 102.031C233.242 102.774 235.493 104.071 238.051 105.924C240.628 107.796 243.603 110.327 246.975 113.517C248.571 115.028 249.941 116.437 251.085 117.746C252.248 119.074 253.235 120.309 254.043 121.453C254.872 122.616 255.533 123.695 256.027 124.692C256.54 125.669 256.953 126.57 257.268 127.397L259.966 126.943L264.634 131.361L256.989 139.441L249.896 132.73C250.243 131.924 250.511 131.061 250.699 130.143C250.906 129.205 250.858 128.177 250.555 127.058C250.271 125.92 249.683 124.663 248.79 123.289C247.897 121.915 246.553 120.378 244.757 118.679C243.54 117.527 242.525 116.642 241.711 116.024C240.897 115.405 240.215 114.987 239.665 114.769C239.134 114.531 238.704 114.445 238.376 114.513C238.086 114.579 237.837 114.722 237.63 114.941C237.46 115.121 237.349 115.318 237.296 115.534C237.244 115.749 237.322 116.086 237.529 116.547C237.735 117.008 238.083 117.639 238.572 118.442C239.099 119.243 239.848 120.33 240.819 121.702L245.613 128.564C247.575 131.366 249.227 133.817 250.567 135.917C251.946 138.016 252.94 139.883 253.549 141.518C254.196 143.152 254.412 144.622 254.195 145.93C254.018 147.237 253.354 148.498 252.202 149.716ZM296.187 189.292L289.278 196.594L282.993 190.648L283.479 187.137C282.656 186.887 281.704 186.554 280.624 186.137C279.564 185.74 278.423 185.207 277.199 184.542C275.976 183.876 274.7 183.066 273.372 182.112C272.045 181.196 270.703 180.097 269.347 178.813C266.254 175.888 263.667 172.947 261.584 169.993C259.54 167.039 258.072 164.193 257.18 161.459C256.288 158.725 256.013 156.158 256.355 153.759C256.716 151.339 257.764 149.212 259.501 147.377C261.2 145.581 263.238 144.446 265.614 143.972C268.011 143.518 270.589 143.65 273.349 144.371C276.128 145.11 279.039 146.409 282.083 148.268C285.127 150.127 288.155 152.481 291.168 155.332C292.604 156.691 293.815 157.989 294.802 159.224C295.827 160.459 296.685 161.63 297.376 162.738C298.068 163.846 298.621 164.88 299.036 165.839C299.47 166.779 299.814 167.635 300.068 168.405L303.171 167.823L308.498 172.864L299.351 182.53L291.81 175.394C293.37 172.787 293.822 170.17 293.167 167.546C292.55 164.921 290.855 162.296 288.082 159.672C286.924 158.577 285.635 157.623 284.214 156.806C282.812 156.009 281.359 155.467 279.855 155.178C278.371 154.908 276.887 154.978 275.402 155.389C273.937 155.779 272.571 156.642 271.306 157.979C270.117 159.236 269.26 160.581 268.736 162.014C268.251 163.445 268.118 164.946 268.336 166.513C268.574 168.061 269.171 169.647 270.129 171.273C271.107 172.917 272.474 174.569 274.23 176.23C275.427 177.363 276.539 178.207 277.564 178.761C278.608 179.295 279.549 179.6 280.387 179.674C281.245 179.767 282.001 179.688 282.654 179.436C283.307 179.185 283.852 178.83 284.285 178.371L284.455 178.192L279.188 173.208L282.869 169.317L304.028 189.337L300.347 193.228L296.187 189.292ZM349.716 219.408L320.645 226.274L310.23 216.419L315.36 186.9L310.212 182.03L313.978 178.049L336.214 199.089L332.448 203.069L328.558 199.388L324.495 215.85L324.615 215.963L341.456 211.592L337.626 207.968L341.392 203.987L358.39 220.071L354.624 224.052L349.716 219.408Z" fill="#171717"/>
<path d="M215.798 151.175L214.783 150.214L223.242 145.843L224.347 146.889L220.45 155.576L219.435 154.616L222.699 147.577L222.649 147.53L215.798 151.175ZM218.388 148.778L221.681 151.895L220.897 152.724L217.603 149.607L218.388 148.778ZM251.494 172.575L252.453 173.483L248.39 177.777C247.957 178.234 247.47 178.541 246.929 178.696C246.388 178.85 245.834 178.849 245.265 178.693C244.699 178.536 244.161 178.217 243.654 177.737C243.148 177.259 242.801 176.74 242.613 176.183C242.426 175.624 242.394 175.07 242.518 174.523C242.643 173.973 242.921 173.469 243.354 173.012L247.417 168.718L248.374 169.623L244.386 173.837C244.107 174.133 243.921 174.455 243.83 174.804C243.74 175.154 243.75 175.506 243.859 175.858C243.969 176.209 244.184 176.534 244.505 176.838C244.826 177.142 245.165 177.34 245.521 177.431C245.881 177.522 246.231 177.511 246.572 177.398C246.916 177.288 247.226 177.085 247.506 176.789L251.494 172.575ZM272.603 194.154L273.405 193.307L278.312 197.949L277.51 198.797L275.532 196.926L270.156 202.607L269.202 201.705L274.578 196.023L272.603 194.154ZM301.415 225.996C300.755 226.693 300.065 227.176 299.342 227.444C298.622 227.708 297.918 227.773 297.232 227.634C296.549 227.495 295.934 227.167 295.387 226.65C294.838 226.13 294.475 225.533 294.297 224.857C294.123 224.181 294.15 223.475 294.376 222.739C294.604 222.003 295.047 221.288 295.704 220.593C296.363 219.896 297.053 219.414 297.774 219.149C298.496 218.882 299.198 218.818 299.881 218.956C300.568 219.094 301.186 219.422 301.735 219.942C302.282 220.459 302.642 221.056 302.815 221.733C302.993 222.409 302.969 223.114 302.742 223.85C302.517 224.584 302.074 225.3 301.415 225.996ZM300.468 225.1C300.97 224.569 301.31 224.042 301.487 223.521C301.668 222.999 301.702 222.507 301.591 222.048C301.482 221.588 301.247 221.185 300.884 220.841C300.518 220.495 300.102 220.282 299.638 220.199C299.174 220.115 298.685 220.177 298.172 220.384C297.663 220.591 297.157 220.96 296.654 221.492C296.151 222.024 295.81 222.55 295.628 223.072C295.452 223.593 295.418 224.085 295.525 224.546C295.635 225.003 295.872 225.406 296.238 225.751C296.601 226.095 297.015 226.309 297.479 226.394C297.946 226.477 298.435 226.416 298.944 226.209C299.457 226.001 299.964 225.632 300.468 225.1Z" fill="#171717"/>
<path d="M444.767 307.444C443.948 308.714 442.838 309.598 441.435 310.099C440.048 310.577 438.261 310.584 436.076 310.121C433.905 309.635 431.288 308.649 428.227 307.162C425.188 305.691 421.592 303.614 417.438 300.933C415.2 299.488 413.279 298.134 411.676 296.869C410.057 295.628 408.653 294.461 407.464 293.366C406.312 292.263 405.322 291.214 404.492 290.221C403.7 289.219 402.996 288.259 402.381 287.338L399.587 288.476L394.048 284.901L401.132 273.928L409.509 279.336C408.846 280.87 408.632 282.366 408.866 283.825C409.101 285.285 409.674 286.701 410.586 288.074C411.521 289.462 412.737 290.82 414.234 292.146C415.77 293.465 417.507 294.749 419.445 296.001C421.038 297.029 422.336 297.802 423.342 298.32C424.348 298.838 425.157 299.181 425.769 299.347C426.395 299.491 426.864 299.499 427.175 299.372C427.5 299.223 427.752 299.01 427.931 298.733C428.125 298.432 428.208 298.127 428.18 297.815C428.191 297.494 427.963 297.037 427.497 296.442C427.046 295.824 426.306 294.97 425.277 293.88C424.271 292.805 422.844 291.345 420.995 289.498L415.369 283.855C413.467 281.941 411.841 280.205 410.493 278.647C409.144 277.09 408.117 275.642 407.412 274.304C406.706 272.966 406.345 271.703 406.327 270.515C406.31 269.326 406.674 268.155 407.418 267.002C408.178 265.825 409.202 264.998 410.49 264.522C411.779 264.046 413.439 264.007 415.471 264.403C417.518 264.777 419.969 265.64 422.824 266.992C425.701 268.359 429.089 270.301 432.989 272.819C434.835 274.011 436.44 275.145 437.805 276.222C439.192 277.314 440.389 278.347 441.393 279.323C442.421 280.314 443.269 281.254 443.938 282.143C444.621 283.009 445.192 283.82 445.653 284.575L448.222 283.634L453.622 287.12L447.588 296.466L439.385 291.17C439.578 290.314 439.683 289.417 439.7 288.48C439.731 287.519 439.495 286.517 438.992 285.473C438.504 284.406 437.696 283.278 436.566 282.092C435.436 280.905 433.832 279.641 431.756 278.3C430.348 277.391 429.188 276.707 428.274 276.248C427.36 275.79 426.613 275.504 426.033 275.39C425.467 275.254 425.029 275.248 424.718 275.375C424.446 275.493 424.228 275.68 424.064 275.933C423.93 276.141 423.857 276.355 423.845 276.576C423.833 276.798 423.971 277.115 424.259 277.53C424.547 277.945 425.005 278.502 425.632 279.201C426.297 279.892 427.233 280.823 428.439 281.994L434.411 287.86C436.853 290.255 438.927 292.361 440.629 294.18C442.37 295.99 443.69 297.643 444.588 299.139C445.524 300.626 446.006 302.032 446.033 303.357C446.098 304.674 445.676 306.036 444.767 307.444ZM495.266 338.28L489.813 346.726L482.545 342.033L482.378 338.493C481.523 338.398 480.527 338.246 479.389 338.034C478.273 337.838 477.054 337.524 475.729 337.094C474.404 336.664 473.002 336.102 471.522 335.407C470.049 334.751 468.528 333.916 466.959 332.903C463.383 330.594 460.299 328.178 457.71 325.657C455.159 323.127 453.193 320.599 451.815 318.075C450.437 315.551 449.696 313.078 449.592 310.657C449.502 308.212 450.143 305.929 451.514 303.806C452.854 301.729 454.649 300.24 456.899 299.338C459.172 298.451 461.73 298.108 464.575 298.311C467.443 298.528 470.543 299.27 473.876 300.539C477.209 301.809 480.618 303.567 484.102 305.817C485.764 306.89 487.192 307.943 488.389 308.977C489.623 310.003 490.681 310.996 491.564 311.958C492.447 312.921 493.18 313.836 493.764 314.703C494.363 315.547 494.859 316.326 495.25 317.035L498.193 315.895L504.354 319.873L497.137 331.053L488.414 325.422C489.469 322.572 489.434 319.917 488.308 317.458C487.22 314.99 485.073 312.721 481.865 310.65C480.526 309.786 479.084 309.084 477.537 308.542C476.013 308.016 474.485 307.749 472.954 307.741C471.445 307.748 469.999 308.089 468.615 308.765C467.246 309.418 466.062 310.517 465.063 312.063C464.125 313.517 463.529 314.996 463.278 316.501C463.063 317.997 463.207 319.496 463.709 320.997C464.227 322.475 465.105 323.925 466.345 325.347C467.608 326.784 469.254 328.157 471.285 329.468C472.67 330.362 473.918 330.987 475.027 331.344C476.152 331.678 477.133 331.805 477.97 331.724C478.83 331.658 479.559 331.441 480.155 331.075C480.751 330.708 481.221 330.259 481.563 329.728L481.697 329.52L475.605 325.587L478.51 321.088L502.982 336.887L500.077 341.386L495.266 338.28ZM553.411 358.066L526.093 370.148L514.048 362.371L513.675 332.412L507.721 328.568L510.693 323.965L536.411 340.568L533.439 345.172L528.939 342.267L527.966 359.195L528.104 359.284L543.858 351.898L539.427 349.038L542.399 344.434L562.06 357.127L559.088 361.731L553.411 358.066Z" fill="#171717"/>
<path d="M409.249 315.556L408.075 314.798L415.589 308.95L416.867 309.775L414.63 319.03L413.455 318.272L415.373 310.754L415.315 310.717L409.249 315.556ZM411.355 312.726L415.165 315.185L414.546 316.144L410.736 313.685L411.355 312.726ZM448.265 330.045L449.375 330.762L446.168 335.729C445.826 336.258 445.404 336.648 444.9 336.9C444.397 337.15 443.852 337.251 443.264 337.203C442.678 337.152 442.091 336.937 441.505 336.558C440.92 336.181 440.484 335.735 440.196 335.222C439.91 334.706 439.777 334.168 439.799 333.607C439.821 333.044 440.002 332.497 440.343 331.969L443.55 327.001L444.656 327.716L441.509 332.59C441.289 332.932 441.166 333.283 441.14 333.642C441.116 334.004 441.191 334.347 441.362 334.674C441.534 334.998 441.806 335.279 442.176 335.518C442.548 335.758 442.917 335.891 443.284 335.915C443.655 335.938 443.997 335.863 444.311 335.69C444.629 335.519 444.897 335.262 445.118 334.92L448.265 330.045ZM472.974 347.387L473.607 346.406L479.282 350.07L478.649 351.05L476.362 349.574L472.119 356.145L471.016 355.433L475.259 348.861L472.974 347.387ZM507.138 373.403C506.618 374.209 506.027 374.81 505.366 375.206C504.707 375.598 504.027 375.791 503.327 375.78C502.63 375.769 501.966 375.56 501.333 375.151C500.698 374.741 500.232 374.221 499.933 373.589C499.637 372.957 499.534 372.257 499.622 371.493C499.71 370.727 500.014 369.942 500.533 369.139C501.053 368.333 501.643 367.733 502.303 367.34C502.964 366.945 503.642 366.753 504.339 366.764C505.04 366.773 505.707 366.982 506.342 367.392C506.975 367.801 507.438 368.322 507.733 368.955C508.032 369.587 508.137 370.285 508.049 371.05C507.963 371.813 507.659 372.597 507.138 373.403ZM506.043 372.696C506.44 372.081 506.677 371.501 506.755 370.956C506.837 370.411 506.781 369.921 506.587 369.489C506.396 369.057 506.091 368.704 505.671 368.433C505.248 368.16 504.8 368.026 504.328 368.03C503.856 368.033 503.387 368.183 502.921 368.481C502.459 368.778 502.029 369.234 501.632 369.848C501.235 370.463 500.996 371.043 500.914 371.59C500.836 372.134 500.892 372.624 501.083 373.057C501.274 373.487 501.581 373.839 502.004 374.112C502.424 374.383 502.87 374.518 503.342 374.516C503.817 374.512 504.286 374.362 504.748 374.065C505.214 373.767 505.646 373.311 506.043 372.696Z" fill="#171717"/>
<defs>
<linearGradient id="paint0_linear_0_1" x1="482" y1="102.5" x2="979.5" y2="844.5" gradientUnits="userSpaceOnUse">
<stop stop-color="#DE473C"/>
<stop offset="1" stop-color="#171717"/>
</linearGradient>
<linearGradient id="paint1_linear_0_1" x1="677.357" y1="-137.671" x2="743.829" y2="753.201" gradientUnits="userSpaceOnUse">
<stop stop-color="#DE473C"/>
<stop offset="1" stop-color="#171717"/>
</linearGradient>
</defs>
</svg>
