<svg  viewBox="0 0 176 83" fill="none" xmlns="http://www.w3.org/2000/svg">
<path d="M53.24 37.04C53.24 38.507 52.8 39.813 51.92 40.96C51.04 42.08 49.5867 43.027 47.56 43.8C45.5333 44.547 42.88 45.12 39.6 45.52C36.3467 45.92 32.32 46.12 27.52 46.12C24.9333 46.12 22.6533 46.027 20.68 45.84C18.7066 45.68 16.9466 45.467 15.4 45.2C13.88 44.907 12.52 44.573 11.32 44.2C10.1466 43.8 9.0666 43.387 8.08 42.96L6.4 45.36H0V32.68H9.68C9.9466 34.28 10.56 35.613 11.52 36.68C12.48 37.747 13.6933 38.6 15.16 39.24C16.6533 39.88 18.36 40.347 20.28 40.64C22.2266 40.907 24.32 41.04 26.56 41.04C28.4 41.04 29.8667 40.987 30.96 40.88C32.0533 40.773 32.8933 40.627 33.48 40.44C34.0666 40.227 34.4533 39.987 34.64 39.72C34.8266 39.427 34.92 39.12 34.92 38.8C34.92 38.453 34.8266 38.16 34.64 37.92C34.48 37.653 34.0533 37.4 33.36 37.16C32.6666 36.893 31.6133 36.587 30.2 36.24C28.8133 35.893 26.88 35.453 24.4 34.92L16.84 33.28C14.28 32.72 12.04 32.16 10.12 31.6C8.2 31.04 6.6 30.4 5.32 29.68C4.04 28.96 3.08 28.12 2.44 27.16C1.8 26.2 1.48 25.053 1.48 23.72C1.48 22.36 1.88 21.147 2.68 20.08C3.48 19.013 4.8133 18.107 6.68 17.36C8.5466 16.587 11 16 14.04 15.6C17.1066 15.2 20.8933 15 25.4 15C27.5333 15 29.44 15.08 31.12 15.24C32.8266 15.4 34.3466 15.613 35.68 15.88C37.04 16.147 38.2266 16.467 39.24 16.84C40.2533 17.187 41.1466 17.547 41.92 17.92L43.52 15.8H49.76V26.6H40.28C39.9866 25.8 39.6 25.013 39.12 24.24C38.64 23.44 37.92 22.747 36.96 22.16C36 21.547 34.7466 21.053 33.2 20.68C31.6533 20.307 29.68 20.12 27.28 20.12C25.6533 20.12 24.3466 20.173 23.36 20.28C22.3733 20.387 21.6133 20.547 21.08 20.76C20.5466 20.947 20.1866 21.173 20 21.44C19.84 21.68 19.76 21.947 19.76 22.24C19.76 22.48 19.8133 22.693 19.92 22.88C20.0266 23.067 20.3066 23.253 20.76 23.44C21.2133 23.627 21.88 23.84 22.76 24.08C23.6666 24.293 24.92 24.56 26.52 24.88L34.48 26.52C37.7333 27.187 40.5333 27.813 42.88 28.4C45.2533 28.96 47.2 29.613 48.72 30.36C50.2667 31.08 51.4 31.973 52.12 33.04C52.8666 34.08 53.24 35.413 53.24 37.04ZM110.667 35.6V45.36H102.267L100.267 42.56C99.5197 42.933 98.6267 43.333 97.5867 43.76C96.5737 44.187 95.4137 44.573 94.1067 44.92C92.7997 45.267 91.3597 45.547 89.7867 45.76C88.2397 46 86.5597 46.12 84.7467 46.12C80.6137 46.12 76.8267 45.773 73.3867 45.08C69.9737 44.36 67.0397 43.333 64.5867 42C62.1337 40.667 60.2265 39.04 58.8665 37.12C57.5065 35.173 56.8265 32.973 56.8265 30.52C56.8265 28.12 57.5065 25.96 58.8665 24.04C60.2532 22.12 62.1597 20.493 64.5867 19.16C67.0397 17.827 69.9597 16.8 73.3467 16.08C76.7337 15.36 80.4397 15 84.4667 15C86.3867 15 88.1067 15.107 89.6267 15.32C91.1737 15.507 92.5597 15.76 93.7867 16.08C95.0137 16.4 96.0937 16.76 97.0267 17.16C97.9597 17.533 98.7737 17.907 99.4667 18.28L101.267 15.8H108.387V28.72H98.3067C97.6667 25.84 96.2397 23.693 94.0267 22.28C91.8397 20.84 88.8937 20.12 85.1867 20.12C83.6397 20.12 82.0937 20.307 80.5467 20.68C79.0267 21.053 77.6397 21.64 76.3867 22.44C75.1597 23.24 74.1597 24.28 73.3867 25.56C72.6137 26.813 72.2267 28.333 72.2267 30.12C72.2267 31.8 72.5197 33.32 73.1067 34.68C73.7197 36.013 74.6267 37.16 75.8267 38.12C77.0267 39.053 78.5067 39.773 80.2667 40.28C82.0537 40.787 84.1197 41.04 86.4667 41.04C88.0667 41.04 89.4137 40.893 90.5067 40.6C91.5997 40.28 92.4667 39.867 93.1067 39.36C93.7737 38.853 94.2537 38.293 94.5467 37.68C94.8397 37.067 94.9867 36.453 94.9867 35.84V35.6H87.9467V30.4H116.227V35.6H110.667ZM168.512 21.12L152.592 45.36H138.672L122.592 21.12H115.712V15.8H145.432V21.12H140.232L148.352 35.44H148.512L157.472 21.12H152.352V15.8H175.072V21.12H168.512Z" fill="white"/>
<path d="M27.3977 62.3607H26L29.1406 53.6337H30.6619L33.8025 62.3607H32.4048L29.9375 55.2187H29.8693L27.3977 62.3607ZM27.6321 58.9427H32.1662V60.0507H27.6321V58.9427ZM68.0347 53.6337H69.3557V59.3737C69.3557 59.9847 69.2127 60.5257 68.9257 60.9967C68.6387 61.4657 68.2357 61.8347 67.7157 62.1047C67.1957 62.3717 66.5857 62.5057 65.8877 62.5057C65.1917 62.5057 64.5837 62.3717 64.0637 62.1047C63.5437 61.8347 63.1397 61.4657 62.8537 60.9967C62.5667 60.5257 62.4227 59.9847 62.4227 59.3737V53.6337H63.7397V59.2667C63.7397 59.6617 63.8267 60.0127 63.9997 60.3197C64.1757 60.6267 64.4247 60.8677 64.7457 61.0437C65.0667 61.2177 65.4467 61.3037 65.8877 61.3037C66.3307 61.3037 66.7127 61.2177 67.0337 61.0437C67.3577 60.8677 67.6047 60.6267 67.7747 60.3197C67.9487 60.0127 68.0347 59.6617 68.0347 59.2667V53.6337ZM98.1997 54.7667V53.6337H104.955V54.7667H102.232V62.3607H100.919V54.7667H98.1997ZM141.013 57.9967C141.013 58.9287 140.843 59.7297 140.502 60.4007C140.161 61.0677 139.694 61.5827 139.1 61.9427C138.509 62.3007 137.837 62.4797 137.084 62.4797C136.328 62.4797 135.654 62.3007 135.06 61.9427C134.469 61.5827 134.003 61.0667 133.662 60.3967C133.321 59.7257 133.151 58.9257 133.151 57.9967C133.151 57.0657 133.321 56.2657 133.662 55.5977C134.003 54.9277 134.469 54.4137 135.06 54.0557C135.654 53.6947 136.328 53.5137 137.084 53.5137C137.837 53.5137 138.509 53.6947 139.1 54.0557C139.694 54.4137 140.161 54.9277 140.502 55.5977C140.843 56.2657 141.013 57.0657 141.013 57.9967ZM139.709 57.9967C139.709 57.2867 139.594 56.6887 139.364 56.2027C139.137 55.7147 138.824 55.3447 138.427 55.0947C138.032 54.8427 137.584 54.7157 137.084 54.7157C136.581 54.7157 136.132 54.8427 135.738 55.0947C135.343 55.3447 135.03 55.7147 134.8 56.2027C134.573 56.6887 134.459 57.2867 134.459 57.9967C134.459 58.7077 134.573 59.3067 134.8 59.7957C135.03 60.2807 135.343 60.6507 135.738 60.9037C136.132 61.1537 136.581 61.2787 137.084 61.2787C137.584 61.2787 138.032 61.1537 138.427 60.9037C138.824 60.6507 139.137 60.2807 139.364 59.7957C139.594 59.3067 139.709 58.7077 139.709 57.9967Z" fill="white"/>
</svg>
