<svg width="19" height="18" viewBox="0 0 19 18" fill="none" xmlns="http://www.w3.org/2000/svg">
<path fill-rule="evenodd" clip-rule="evenodd" d="M9.51355 15.1875C12.9308 15.1875 15.701 12.4173 15.701 9C15.701 5.58274 12.9308 2.8125 9.51355 2.8125C6.09629 2.8125 3.32605 5.58274 3.32605 9C3.32605 12.4173 6.09629 15.1875 9.51355 15.1875ZM9.51355 16.875C13.8628 16.875 17.3885 13.3492 17.3885 9C17.3885 4.65076 13.8628 1.125 9.51355 1.125C5.16431 1.125 1.63855 4.65076 1.63855 9C1.63855 13.3492 5.16431 16.875 9.51355 16.875ZM10.6385 6.1875C10.6385 6.80882 10.1349 7.3125 9.51355 7.3125C8.89223 7.3125 8.38855 6.80882 8.38855 6.1875C8.38855 5.56618 8.89223 5.0625 9.51355 5.0625C10.1349 5.0625 10.6385 5.56618 10.6385 6.1875ZM10.3573 9.5625C10.3573 9.09651 9.97954 8.71875 9.51355 8.71875C9.04756 8.71875 8.6698 9.09651 8.6698 9.5625V12.375C8.6698 12.841 9.04756 13.2187 9.51355 13.2187C9.97954 13.2187 10.3573 12.841 10.3573 12.375V9.5625Z" fill="#348BDC"/>
</svg>
