<?xml version="1.0" standalone="no"?>
<!DOCTYPE svg PUBLIC "-//W3C//DTD SVG 1.1//EN" "http://www.w3.org/Graphics/SVG/1.1/DTD/svg11.dtd" >
<svg xmlns="http://www.w3.org/2000/svg" xmlns:xlink="http://www.w3.org/1999/xlink" version="1.1">
<metadata>
Created by FontForge 20200314 at Tue Dec  6 18:43:38 2011
 By Unknown
</metadata>
<defs>
<font id="SutroW01-BoldExtended" horiz-adv-x="1440" >
  <font-face 
    font-family="SutroW01-BoldExtended"
    font-weight="700"
    font-stretch="normal"
    units-per-em="1000"
    panose-1="2 0 5 7 6 0 0 2 0 3"
    ascent="788"
    descent="-212"
    x-height="503"
    cap-height="739"
    bbox="-145 -209 2241 1004"
    underline-thickness="20"
    underline-position="-153"
    unicode-range="U+0020-2122"
  />
<missing-glyph horiz-adv-x="0" 
 />
    <glyph glyph-name=".notdef" horiz-adv-x="0" 
 />
    <glyph glyph-name="glyph1" horiz-adv-x="0" 
 />
    <glyph glyph-name="glyph2" horiz-adv-x="0" 
 />
    <glyph glyph-name="space" unicode=" " horiz-adv-x="450" 
 />
    <glyph glyph-name="exclam" unicode="!" horiz-adv-x="558" 
d="M452 90q0 -22 -13 -41t-35.5 -33t-53 -22t-65.5 -8t-65.5 8t-53 22t-35 33t-12.5 41q0 21 12.5 40.5t35 34t53 23t65.5 8.5t65.5 -8.5t53 -23t35.5 -34t13 -40.5zM468 697q-16 -52 -31 -109t-27.5 -114.5t-22 -114.5t-14.5 -109h-185q-5 52 -15 108.5t-23.5 114.5
t-28.5 115t-31 109h378z" />
    <glyph glyph-name="quotedbl" unicode="&#x22;" horiz-adv-x="546" 
d="M254 692q0 -9 -2 -19t-6 -22q-13 -42 -24.5 -85.5t-21.5 -99.5h-100q-8 58 -18.5 101t-23.5 83q-8 26 -8 42q0 89 104 89q100 0 100 -89zM496 692q0 -9 -2 -19t-6 -22q-13 -42 -24.5 -85.5t-21.5 -99.5h-100q-8 58 -18.5 101t-23.5 83q-8 26 -8 42q0 89 104 89
q100 0 100 -89z" />
    <glyph glyph-name="numbersign" unicode="#" horiz-adv-x="1051" 
d="M486 390l-33 -100h117l36 100h-120zM951 390h-156l-33 -100h155l-38 -114h-156l-57 -170h-192l56 170h-116l-57 -170h-196l59 170h-160l39 114h160l36 100h-160l40 114h157l61 176h194l-61 -176h117l59 176h194l-61 -176h156z" />
    <glyph glyph-name="dollar" unicode="$" horiz-adv-x="1078" 
d="M766 178q0 13 -5.5 21.5t-20.5 15.5t-42 14t-70 16v-136q78 3 108 21.5t30 47.5zM450 576q-60 0 -97 -12.5t-37 -32.5q0 -11 5 -17.5t19 -12t40.5 -11.5t69.5 -15v101zM1053 214q0 -48 -29 -85t-83.5 -62.5t-133.5 -40.5t-179 -19v-91h-178v91q-92 4 -167.5 15t-129.5 32
t-84 54t-30 81q0 20 5.5 38t13 32t16 24t14.5 15l228 -42q-10 -11 -21 -31t-11 -48q0 -34 38.5 -50t127.5 -20v169l-163 32q-69 13 -117 29.5t-78 37.5t-43.5 48t-13.5 62q0 45 28.5 78.5t82 57t130.5 37t174 17.5v91h178v-91q178 -8 265 -45.5t87 -120.5q0 -20 -11 -44
t-28 -41l-227 39q14 13 21 29.5t7 34.5q0 26 -29 38t-85 12v-132l108 -21q69 -13 127 -29.5t100 -41t66 -58t24 -81.5z" />
    <glyph glyph-name="percent" unicode="%" horiz-adv-x="1567" 
d="M453 496q0 34 -8 55.5t-20.5 33.5t-27 16t-27.5 4q-15 0 -30 -4t-26.5 -16t-19 -33.5t-7.5 -55.5q0 -33 7.5 -54t19 -33t26 -16.5t28.5 -4.5q15 0 30 4.5t27.5 16.5t20 33t7.5 54zM1280 193q0 34 -8 55.5t-20.5 33.5t-27 16t-27.5 4q-15 0 -30 -4t-26.5 -16t-19 -33.5
t-7.5 -55.5q0 -33 7.5 -54t19 -33t26 -16.5t28.5 -4.5q15 0 30 4.5t27.5 16.5t20 33t7.5 54zM700 496q0 -49 -29.5 -86.5t-76.5 -62.5t-106.5 -37.5t-119.5 -12.5t-119 13t-105.5 38t-75 62t-28.5 86q0 48 28.5 84.5t75 62t105.5 38.5t121 13q59 0 118 -12.5t106 -37.5
t76.5 -62t29.5 -86zM576 -1h-219l633 696h218zM1527 193q0 -49 -29.5 -86.5t-76.5 -62.5t-106.5 -37.5t-119.5 -12.5t-119 13t-105.5 38t-75 62t-28.5 86q0 48 28.5 84.5t75 62t105.5 38.5t121 13q59 0 118 -12.5t106 -37.5t76.5 -62t29.5 -86z" />
    <glyph glyph-name="ampersand" unicode="&#x26;" horiz-adv-x="1646" 
d="M757 139q-63 42 -123 85t-114 88q-52 -18 -83 -40.5t-31 -52.5q0 -49 46 -77t155 -28q38 0 73 5.5t77 19.5zM805 554q0 36 -54 36q-29 0 -48 -9t-19 -27q0 -14 14 -31t38 -37q41 18 55 35.5t14 32.5zM1602 157q0 -83 -86 -122.5t-273 -39.5q-104 0 -183 11t-147 39
q-45 -14 -89 -23.5t-92 -15.5t-104.5 -9t-126.5 -3q-108 0 -193 13t-143.5 38t-89.5 61t-31 82q0 43 26 76.5t75 60.5t119 49t159 42q-29 29 -46 57.5t-17 60.5q0 45 30 76t83.5 50.5t127 28.5t160.5 9q78 0 140 -9.5t105.5 -27t66.5 -43t23 -57.5q0 -36 -22.5 -62t-60 -46
t-86 -35t-100.5 -29q48 -38 97.5 -75.5t104.5 -75.5q27 17 57.5 42t47.5 53h-111v102h465v-102h-145q-31 -51 -78.5 -95.5t-104.5 -77.5q33 -20 70 -31t67 -11q43 0 61.5 10t18.5 41q0 33 -24 60l213 25q16 -23 26 -47t10 -50z" />
    <glyph glyph-name="quotesingle" unicode="'" horiz-adv-x="304" 
d="M254 692q0 -9 -2 -19t-6 -22q-13 -42 -24.5 -85.5t-21.5 -99.5h-100q-8 58 -18.5 101t-23.5 83q-8 26 -8 42q0 89 104 89q100 0 100 -89z" />
    <glyph glyph-name="parenleft" unicode="(" horiz-adv-x="634" 
d="M513 -160q-127 48 -214.5 102.5t-142 116t-78.5 129.5t-24 145q0 87 27.5 158.5t84.5 131t143.5 110t204.5 97.5l76 -91q-65 -43 -108 -90t-69 -98t-37 -106t-11 -113q0 -54 10 -106.5t35.5 -103.5t69 -99t110.5 -92z" />
    <glyph glyph-name="parenright" unicode=")" horiz-adv-x="634" 
d="M580 333q0 -77 -24 -145t-78.5 -129.5t-142 -116t-214.5 -102.5l-77 91q67 42 110.5 90t69 99t35.5 104.5t10 107.5q0 58 -10.5 113.5t-36.5 106.5t-69.5 98t-108.5 89l76 91q118 -47 204.5 -97.5t143.5 -110t84.5 -131t27.5 -158.5z" />
    <glyph glyph-name="asterisk" unicode="*" horiz-adv-x="464" 
d="M339 509l-72 60l28 -84l-64 -42l-62 42l27 85l-71 -62l-75 27l14 68l93 22l-92 18l-14 71l76 24l69 -63l-27 83l62 43l64 -44l-25 -82l66 62l78 -28l-17 -68l-89 -19l89 -19l17 -68z" />
    <glyph glyph-name="plus" unicode="+" horiz-adv-x="670" 
d="M420 234v-202h-173v202h-202v155h202v202h173v-202h205v-155h-205z" />
    <glyph glyph-name="comma" unicode="," horiz-adv-x="453" 
d="M393 68q0 -71 -62.5 -127t-177.5 -94l-83 70q59 18 92 35.5t50 33.5q-68 1 -110 29.5t-42 75.5q0 24 13 43t36.5 32.5t54.5 21t67 7.5q43 0 73.5 -10t50 -27.5t29 -40.5t9.5 -49z" />
    <glyph glyph-name="hyphen" unicode="-" horiz-adv-x="469" 
d="M60 234v157h349v-157h-349z" />
    <glyph glyph-name="period" unicode="." horiz-adv-x="453" 
d="M393 90q0 -22 -13 -41t-35.5 -33t-53 -22t-65.5 -8t-65.5 8t-53 22t-35 33t-12.5 41q0 21 12.5 40.5t35 34t53 23t65.5 8.5t65.5 -8.5t53 -23t35.5 -34t13 -40.5z" />
    <glyph glyph-name="slash" unicode="/" horiz-adv-x="841" 
d="M301 -107h-261l475 882h261z" />
    <glyph glyph-name="zero" unicode="0" horiz-adv-x="1060" 
d="M667 338q0 78 -14.5 124.5t-35.5 71t-44.5 32t-41.5 7.5q-20 0 -44 -7.5t-45 -31.5t-35 -70.5t-14 -124.5q0 -79 13 -125.5t33 -70.5t44 -31t46 -7q19 0 43 6.5t45 30t35.5 70t14.5 126.5zM1030 338q0 -87 -43.5 -154t-114 -112.5t-160.5 -68.5t-183 -23
q-91 0 -180.5 23.5t-160 68.5t-114.5 112t-44 154t43 154.5t113.5 113t160.5 69t184 23.5q99 0 189.5 -25t159 -71.5t109.5 -113t41 -150.5z" />
    <glyph glyph-name="one" unicode="1" horiz-adv-x="1060" 
d="M194 0v125h174v373h-197v115q75 3 128 7.5t90.5 13t63 21.5t45.5 32h215v-562h171v-125h-690z" />
    <glyph glyph-name="two" unicode="2" horiz-adv-x="1040" 
d="M81 0v124l406 240q50 29 83.5 59t33.5 64q0 46 -34 66.5t-103 20.5q-66 0 -104.5 -26.5t-38.5 -71.5q0 -31 8.5 -51t26.5 -47l-1 -1l-262 -24q-20 22 -32 52t-12 72q0 55 39.5 96.5t108 69t159.5 41.5t194 14q205 0 313.5 -57t108.5 -160q0 -41 -19 -72t-52 -56.5
t-78 -47t-97 -43.5l-329 -136v-2h351v124h229v-248h-899z" />
    <glyph glyph-name="three" unicode="3" horiz-adv-x="1040" 
d="M991 207q0 -53 -30.5 -95.5t-88 -71.5t-142 -44.5t-192.5 -15.5q-235 0 -352 45.5t-117 133.5q0 30 13 60t36 52l247 -45q-6 -8 -13 -25t-7 -40t28.5 -39.5t98.5 -16.5q86 0 122.5 22.5t36.5 74.5q0 29 -10.5 48t-28.5 30t-42.5 15.5t-52.5 4.5h-87v123h71q68 0 101 21
t33 56q0 42 -31.5 57.5t-107.5 15.5q-35 0 -58.5 -5.5t-37.5 -14.5t-20 -19.5t-6 -20.5q0 -11 4 -23.5t10 -21.5l-250 -37q-17 19 -26.5 41.5t-9.5 54.5q0 40 35.5 71.5t96.5 53.5t141.5 33.5t170.5 11.5t169.5 -11.5t139.5 -35t94.5 -59t34.5 -82.5q0 -30 -13 -53
t-35.5 -39.5t-53 -28t-65.5 -18.5v-3q38 -7 73 -20t62 -32.5t43 -46t16 -61.5z" />
    <glyph glyph-name="four" unicode="4" horiz-adv-x="1060" 
d="M522 471h-2l-216 -173h218v173zM341 0v125h181v60h-471v106l541 396h268v-386h146v-116h-146v-60h171v-125h-690z" />
    <glyph glyph-name="five" unicode="5" horiz-adv-x="1040" 
d="M973 234q0 -122 -126 -188t-379 -66q-94 0 -170 12t-129.5 35t-82.5 55.5t-29 73.5q0 29 9.5 50.5t18.5 34.5l283 -32q-18 -15 -18 -49q0 -26 30.5 -40t80.5 -14q32 0 60.5 6.5t49.5 21t33.5 38t12.5 56.5q0 31 -11.5 51.5t-31.5 33t-46.5 17.5t-55.5 5q-30 0 -54 -3.5
t-43.5 -10.5t-36 -18.5t-33.5 -27.5l-210 33l69 377q109 -4 198.5 -5.5t158.5 -1.5q88 -1 183 1.5t188 5.5l3 -2l-50 -145q-70 -8 -151.5 -11t-166.5 -3q-23 0 -60 1t-71 2l-17 -96q38 8 76 12.5t80 4.5q220 0 329 -51.5t109 -162.5z" />
    <glyph glyph-name="six" unicode="6" horiz-adv-x="1040" 
d="M657 226q0 34 -11 57.5t-29.5 37.5t-42 20t-48.5 6q-19 0 -39 -3t-38 -8t-33 -11t-23 -12q0 -58 10 -97.5t28 -64t43.5 -35.5t57.5 -11q25 0 47.5 6.5t40 21t27.5 37.5t10 56zM1018 236q0 -62 -33.5 -109.5t-96.5 -80t-154 -49.5t-206 -17q-107 0 -198 22.5t-158 66
t-105 106.5t-38 143q0 70 20.5 125.5t57 97.5t86.5 72t107.5 49t121 27.5t127.5 8.5q113 0 193.5 -10.5t131.5 -30.5t74.5 -48t23.5 -62q0 -17 -3 -33t-7.5 -29.5t-10 -23.5t-9.5 -16l-271 42q6 8 10.5 20.5t4.5 26.5q0 20 -23.5 30.5t-87.5 10.5q-34 0 -63.5 -6t-52.5 -22
t-39 -45.5t-23 -75.5q38 14 79 21.5t89 7.5q102 0 185.5 -13.5t143 -40.5t92 -68.5t32.5 -96.5z" />
    <glyph glyph-name="seven" unicode="7" horiz-adv-x="1060" 
d="M1010 558q-83 -53 -144.5 -100t-102 -92t-60 -90.5t-19.5 -94.5q0 -59 5.5 -100.5t13.5 -80.5h-381q-2 18 -5.5 46.5t-3.5 60.5q0 119 95.5 230.5t267.5 212.5v3h-368v-161h-235v282h937v-116z" />
    <glyph glyph-name="eight" unicode="8" horiz-adv-x="1040" 
d="M677 176q0 25 -30.5 38t-78.5 25q-45 11 -86 19.5t-88 18.5q-30 -16 -52.5 -36t-22.5 -52q0 -48 45.5 -66.5t146.5 -18.5q91 0 128.5 18.5t37.5 53.5zM681 507q0 33 -35.5 50.5t-116.5 17.5q-77 0 -111.5 -15t-34.5 -39q0 -11 9 -20t31.5 -17.5t60.5 -17.5t96 -19l45 -8
q25 13 40.5 29t15.5 39zM1019 196q0 -51 -36.5 -91.5t-103.5 -68t-161.5 -42t-210.5 -14.5q-234 0 -360 50.5t-126 155.5q0 51 52 91t138 66v2q-71 28 -111.5 60.5t-40.5 86.5q0 51 35.5 89.5t98.5 64.5t149 39t187 13q94 0 176.5 -10t143.5 -32.5t96 -57.5t35 -85
t-44 -80.5t-117 -54.5v-2q95 -24 147.5 -68.5t52.5 -111.5z" />
    <glyph glyph-name="nine" unicode="9" horiz-adv-x="1060" 
d="M659 364q-1 61 -12 101t-29.5 64t-42.5 34t-51 10q-57 0 -92.5 -30t-35.5 -91q0 -37 10.5 -60.5t28.5 -37t42 -18.5t50 -5q45 0 80.5 11t51.5 22zM1024 343q0 -90 -39 -157.5t-108 -113.5t-165 -69t-210 -23q-112 0 -195 12t-137.5 33t-81.5 49t-27 60q0 30 8.5 54.5
t22.5 44.5l269 -42q-6 -11 -10.5 -21t-4.5 -24q0 -12 10.5 -20.5t29 -13.5t43.5 -7t53 -2q38 0 67 5.5t49.5 21t34.5 44.5t22 76q-38 -13 -84.5 -20.5t-92.5 -7.5q-95 0 -176.5 13.5t-141 40.5t-93 68.5t-33.5 97.5q0 62 41 109.5t109 80t156 49.5t182 17q93 0 183 -23.5
t161 -68.5t114.5 -111.5t43.5 -151.5z" />
    <glyph glyph-name="colon" unicode=":" horiz-adv-x="453" 
d="M393 90q0 -22 -13 -41t-35.5 -33t-53 -22t-65.5 -8t-65.5 8t-53 22t-35 33t-12.5 41q0 21 12.5 40.5t35 34t53 23t65.5 8.5t65.5 -8.5t53 -23t35.5 -34t13 -40.5zM393 397q0 -22 -13 -41t-35.5 -33t-53 -22t-65.5 -8t-65.5 8t-53 22t-35 33t-12.5 41q0 21 12.5 40.5
t35 34t53 23t65.5 8.5t65.5 -8.5t53 -23t35.5 -34t13 -40.5z" />
    <glyph glyph-name="semicolon" unicode=";" horiz-adv-x="453" 
d="M393 68q0 -71 -62.5 -127t-177.5 -94l-83 70q59 18 92 35.5t50 33.5q-68 1 -110 29.5t-42 75.5q0 24 13 43t36.5 32.5t54.5 21t67 7.5q43 0 73.5 -10t50 -27.5t29 -40.5t9.5 -49zM393 397q0 -22 -13 -41t-35.5 -33t-53 -22t-65.5 -8t-65.5 8t-53 22t-35 33t-12.5 41
q0 21 12.5 40.5t35 34t53 23t65.5 8.5t65.5 -8.5t53 -23t35.5 -34t13 -40.5z" />
    <glyph glyph-name="less" unicode="&#x3c;" horiz-adv-x="670" 
d="M60 269v109l550 221v-172l-300 -103l300 -102v-174z" />
    <glyph glyph-name="equal" unicode="=" horiz-adv-x="670" 
d="M60 123v157h550v-157h-550zM60 371v157h550v-157h-550z" />
    <glyph glyph-name="greater" unicode="&#x3e;" horiz-adv-x="670" 
d="M60 48v174l300 102l-300 103v172l550 -221v-109z" />
    <glyph glyph-name="question" unicode="?" horiz-adv-x="930" 
d="M623 90q0 -22 -12.5 -41t-35 -33t-53 -22t-65.5 -8t-65.5 8t-53 22t-35.5 33t-13 41q0 21 13 40.5t35.5 34t53 23t65.5 8.5t65.5 -8.5t53 -23t35 -34t12.5 -40.5zM890 532q0 -48 -36 -82t-88.5 -56.5t-111 -36.5t-104.5 -23l-7 -84h-184l-17 144q71 8 115 22t68 31
t32.5 35.5t8.5 36.5q0 41 -30 56t-84 15t-81.5 -20t-27.5 -46q0 -23 8.5 -40t19.5 -26v-3l-271 -35q-12 18 -21 44t-9 60q0 47 34 81t91.5 56.5t134 33.5t162.5 11q42 0 87.5 -3.5t90 -11.5t84.5 -21t70 -32.5t48 -45.5t18 -60z" />
    <glyph glyph-name="at" unicode="@" horiz-adv-x="1125" 
d="M657 450q0 15 -9 21.5t-23 6.5q-21 0 -46.5 -20.5t-47.5 -50.5t-37 -64.5t-15 -63.5q0 -23 9 -32t26 -9q31 0 57.5 26.5t45.5 62t29.5 71t10.5 52.5zM1075 442q0 -49 -22 -100t-61.5 -92.5t-95.5 -68t-125 -26.5q-23 0 -40.5 2.5t-32.5 8.5t-28.5 17t-27.5 28h-3
q-31 -25 -72 -40.5t-86 -15.5q-51 0 -84 9.5t-52.5 28t-27.5 45.5t-8 61q0 51 25.5 98t67 84t94 59t107.5 22q45 0 79.5 -10.5t64.5 -36.5l42 36h102l-98 -247q-5 -13 -8.5 -24.5t-3.5 -17.5q0 -9 6.5 -14t16.5 -5q21 0 48 14.5t51 40t40.5 61.5t16.5 78q0 112 -79 160.5
t-226 48.5q-91 0 -170.5 -24t-138 -65t-92 -95t-33.5 -114q0 -68 19.5 -118.5t63 -83.5t113 -49t168.5 -16q24 0 49.5 2.5t49 6.5t43.5 8.5t32 8.5l33 -79q-45 -14 -95 -21t-121 -7q-123 0 -221 23t-165.5 68t-103.5 110.5t-36 149.5q0 82 48 153t129 123t188 81.5t225 29.5
q213 0 324 -74t111 -222z" />
    <glyph glyph-name="A" unicode="A" horiz-adv-x="1521" 
d="M675 512h-3l-113 -197h228zM759 0v132h132l-40 71h-356l-38 -71h127v-132h-566v132h163l400 607h347l403 -607h172v-132h-744z" />
    <glyph glyph-name="B" unicode="B" horiz-adv-x="1397" 
d="M981 232q0 19 -8.5 35.5t-29.5 28.5t-56.5 19t-88.5 7h-223v-190h237q85 0 127 26t42 74zM906 529q0 34 -31 55.5t-111 21.5h-189v-158h178q45 0 74.5 6t47 16.5t24.5 25.5t7 33zM1369 228q0 -58 -36.5 -101t-104 -71t-163.5 -42t-214 -14h-819v132h181v474h-181v133h796
q102 0 187 -7t147 -26.5t96.5 -54t34.5 -88.5q0 -60 -56.5 -99.5t-154.5 -57.5v-2q54 -3 106 -15t92 -34t64.5 -54t24.5 -73z" />
    <glyph glyph-name="C" unicode="C" horiz-adv-x="1408" 
d="M1364 317q-3 -61 -32 -121t-98.5 -108t-186.5 -77.5t-296 -29.5q-168 0 -300 27t-223.5 78t-139.5 124t-48 165q0 87 51.5 158t143.5 121.5t220.5 77.5t283.5 27q65 0 120.5 -7.5t101 -19.5t81 -26.5t60.5 -29.5l45 63h182v-322h-254q-24 110 -109.5 162t-215.5 52
q-68 0 -127 -15.5t-102.5 -47t-69 -79t-25.5 -111.5q0 -69 25.5 -120t71.5 -84.5t111 -49.5t145 -16q155 0 230.5 55.5t79.5 175.5z" />
    <glyph glyph-name="D" unicode="D" horiz-adv-x="1496" 
d="M1072 372q0 126 -97.5 180t-291.5 54h-108v-474h153q177 0 260.5 58t83.5 182zM1456 376q0 -94 -50 -164.5t-140 -117.5t-216 -70.5t-277 -23.5h-741v132h181v474h-181v133h728q147 0 274 -22t220.5 -66.5t147.5 -113t54 -161.5z" />
    <glyph glyph-name="E" unicode="E" horiz-adv-x="1411" 
d="M32 0v132h181v474h-181v133h1295v-312h-259v179h-494v-160h135v106h219v-347h-219v107h-135v-180h515v202h258v-334h-1315z" />
    <glyph glyph-name="F" unicode="F" horiz-adv-x="1357" 
d="M1060 427v179h-486v-173h135v107h219v-348h-220v108h-134v-168h189v-132h-731v132h182v474h-182v133h1287v-312h-259z" />
    <glyph glyph-name="G" unicode="G" horiz-adv-x="1539" 
d="M1386 244v-244h-210l-50 70q-28 -14 -66.5 -30t-87.5 -29t-107.5 -21.5t-126.5 -8.5q-155 0 -283.5 26.5t-220.5 76.5t-143 122.5t-51 164.5q0 90 51.5 162t143 122t218.5 77t278 27q72 0 129.5 -7.5t103.5 -19.5t81 -26.5t61 -28.5l45 62h178v-323h-252
q-24 108 -106.5 161.5t-221.5 53.5q-58 0 -115.5 -14t-104 -44t-75.5 -77.5t-29 -114.5q0 -63 22.5 -113.5t67.5 -86t111.5 -54.5t154.5 -19q60 0 101 11.5t65.5 30.5t35.5 42t11 46v6h-176v130h707v-130h-139z" />
    <glyph glyph-name="H" unicode="H" horiz-adv-x="1592" 
d="M833 0v132h181v180h-439v-180h181v-132h-724v132h181v474h-181v133h724v-133h-181v-163h439v163h-181v133h727v-133h-183v-474h183v-132h-727z" />
    <glyph glyph-name="I" unicode="I" horiz-adv-x="788" 
d="M32 0v132h181v474h-181v133h724v-133h-181v-474h181v-132h-724z" />
    <glyph glyph-name="J" unicode="J" horiz-adv-x="1165" 
d="M955 606v-366q0 -55 -23 -102t-80.5 -82t-155 -55t-245.5 -20q-211 0 -318.5 43t-107.5 133q0 37 8 64.5t22 52.5l310 13q-16 -20 -28 -43t-12 -55q0 -38 28.5 -58t92.5 -20q31 0 57.5 6t46 19.5t31 35t11.5 51.5v383h-184v133h727v-133h-180z" />
    <glyph glyph-name="K" unicode="K" horiz-adv-x="1461" 
d="M749 0v132h121l-224 169l-71 -38v-131h103v-132h-646v132h181v474h-181v133h656v-133h-113v-191h5l309 189v2h-95v133h607v-133h-167l-289 -178l369 -296h127v-132h-692z" />
    <glyph glyph-name="L" unicode="L" horiz-adv-x="1372" 
d="M32 0v132h181v474h-181v133h731v-133h-188v-474h504v202h257v-334h-1304z" />
    <glyph glyph-name="M" unicode="M" horiz-adv-x="1956" 
d="M1243 0v132h138v335h-5l-301 -467h-296l-308 470h-5v-338h139v-132h-573v132h181v474h-181v133h685l297 -467h5l298 467h607v-133h-181v-474h181v-132h-681z" />
    <glyph glyph-name="N" unicode="N" horiz-adv-x="1616" 
d="M1403 606v-606h-380l-552 479h-5v-347h181v-132h-615v132h181v474h-181v133h652l460 -402h6v269h-181v133h615v-133h-181z" />
    <glyph glyph-name="O" unicode="O" 
d="M1015 370q0 62 -23 110t-63 81t-93 50.5t-114 17.5q-66 0 -120.5 -17.5t-93.5 -50.5t-60.5 -81t-21.5 -110q0 -57 19 -105t56 -82.5t92.5 -53.5t128.5 -19q71 0 125.5 19t92 53.5t56.5 82t19 105.5zM1400 370q0 -89 -50 -161t-139.5 -122.5t-214 -78t-273.5 -27.5
q-154 0 -280 27.5t-215.5 78t-138.5 122.5t-49 162q0 93 54 165t146.5 121.5t216 75.5t263.5 26q88 0 172.5 -11t160 -32.5t139.5 -53.5t110 -75.5t72 -97.5t26 -119z" />
    <glyph glyph-name="P" unicode="P" horiz-adv-x="1308" 
d="M900 511q0 46 -46.5 70.5t-133.5 24.5h-145v-199h24.5t36 -0.5t34 -0.5h18.5q64 0 105 7.5t65 21.5t33 33.5t9 42.5zM1297 513q0 -65 -42.5 -109.5t-114.5 -72.5t-166 -40.5t-197 -12.5h-202v-146h185v-132h-728v132h181v474h-181v133h737q101 0 196.5 -8.5t169 -33
t118 -69t44.5 -115.5z" />
    <glyph glyph-name="Q" unicode="Q" 
d="M741 108q-21 42 -41 58.5t-52 16.5q-56 0 -56 -34q0 -20 32 -30.5t112 -10.5h5zM1015 364q0 72 -26 122.5t-68 82.5t-93.5 46.5t-102.5 14.5q-64 0 -118.5 -16.5t-94.5 -49t-63 -81.5t-23 -115q0 -50 16 -96.5t53 -81.5h4q9 22 21 41t34 32.5t55.5 21t85.5 7.5
q50 0 88 -8t68 -21.5t53.5 -32.5t43.5 -40q34 33 50.5 73.5t16.5 100.5zM1421 -55q0 -39 -23 -66t-62 -43.5t-91 -23.5t-110 -7q-77 0 -136.5 17.5t-102.5 44.5t-71.5 58t-44.5 58q-16 -1 -31 -1.5t-27 -0.5q-171 0 -299 31t-213 84t-127.5 123t-42.5 148q0 92 51.5 165
t143 123.5t218.5 77t277 26.5q135 0 257 -26t213.5 -75.5t145.5 -122.5t54 -167q0 -114 -85.5 -203.5t-254.5 -140.5q10 -19 23 -36t27.5 -30t30.5 -20.5t33 -7.5q23 0 33.5 9.5t10.5 25.5q0 10 -1.5 18.5t-3.5 14.5v2l203 -9q5 -23 5 -46z" />
    <glyph glyph-name="R" unicode="R" horiz-adv-x="1555" 
d="M944 524q0 17 -7 32t-26.5 26t-53.5 17.5t-87 6.5h-195v-172h192q51 0 85 7t54.5 19t29 28.5t8.5 35.5zM1531 164q0 -40 -16 -72.5t-55 -55.5t-104 -35.5t-163 -12.5q-86 0 -152.5 11.5t-115 37t-79.5 67t-47 101.5q-8 31 -21.5 49.5t-30.5 28.5t-37.5 13t-43.5 3h-91
v-167h181v-132h-724v132h181v474h-181v133h817q136 0 231 -9t153.5 -29.5t85 -54t26.5 -82.5t-20.5 -83.5t-61 -58.5t-100.5 -40t-140 -28v-3q82 -9 123.5 -37t59.5 -82q11 -33 19.5 -52t16.5 -29t17 -13t21 -3q18 0 29 11t11 38q0 17 -6.5 35.5t-14.5 29.5l219 -8
q5 -10 9 -32t4 -45z" />
    <glyph glyph-name="S" unicode="S" horiz-adv-x="1431" 
d="M1381 208q0 -55 -33 -97.5t-109 -71t-198.5 -43.5t-302.5 -15q-97 0 -171 6.5t-131.5 17t-102 25t-81.5 30.5l-42 -60h-160v317h242q10 -60 46 -100t91.5 -64t128 -34.5t156.5 -10.5q69 0 110 4t63 11.5t29 18t7 22.5q0 13 -6.5 22.5t-32.5 19t-78.5 22.5t-145.5 33
l-189 41q-96 21 -168 42t-120 48t-72 63t-24 86q0 51 30 91t100 68.5t184.5 43.5t283.5 15q80 0 143.5 -6t114 -16t88.5 -23.5t67 -27.5l40 53h156v-270h-237q-11 30 -29 59.5t-54 52t-94 36.5t-148 14q-61 0 -98 -4t-57 -11.5t-26.5 -17t-6.5 -20.5q0 -9 4 -16t21 -14
t50.5 -15.5t93.5 -20.5l199 -41q122 -25 210.5 -46.5t146 -49t85 -67t27.5 -100.5z" />
    <glyph glyph-name="T" unicode="T" horiz-adv-x="1493" 
d="M1211 426v180h-284v-474h188v-132h-738v132h189v474h-283v-180h-261v313h1449v-313h-260z" />
    <glyph glyph-name="U" unicode="U" horiz-adv-x="1539" 
d="M1327 606v-342q0 -63 -27.5 -115t-89.5 -89t-161.5 -57.5t-242.5 -20.5q-303 0 -449 73t-146 209v342h-181v133h714v-133h-171v-323q0 -95 64.5 -132.5t186.5 -37.5q56 0 102.5 10t79.5 30t51 50.5t18 71.5v331h-172v133h606v-133h-182z" />
    <glyph glyph-name="V" unicode="V" horiz-adv-x="1520" 
d="M1338 606l-398 -606h-348l-402 606h-172v133h743v-133h-130l203 -358h4l224 358h-128v133h568v-133h-164z" />
    <glyph glyph-name="W" unicode="W" horiz-adv-x="2259" 
d="M2098 606l-398 -606h-347l-218 324h-3l-213 -324h-347l-401 606h-153v133h708v-133h-114l203 -360h3l180 288l-46 72h-106v133h677v-133h-130l202 -360h3l224 360h-128v133h547v-133h-143z" />
    <glyph glyph-name="X" unicode="X" horiz-adv-x="1516" 
d="M724 0v132h104l-176 130h-3l-147 -130h99v-132h-571v132h166l285 252l-307 222h-144v133h767v-133h-105l168 -124h3l145 124h-96v133h564v-133h-163l-279 -247l311 -227h141v-132h-762z" />
    <glyph glyph-name="Y" unicode="Y" horiz-adv-x="1382" 
d="M1251 606l-368 -338v-136h181v-132h-724v132h181v136l-370 338h-137v133h667v-133h-100l190 -184h5l189 184h-95v133h498v-133h-117z" />
    <glyph glyph-name="Z" unicode="Z" horiz-adv-x="1364" 
d="M52 0v86l651 520h-369v-180h-274v313h1214v-87l-642 -520h405v201h275v-333h-1260z" />
    <glyph glyph-name="bracketleft" unicode="[" horiz-adv-x="607" 
d="M100 -108v895h487v-101h-186v-696h186v-98h-487z" />
    <glyph glyph-name="backslash" unicode="\" horiz-adv-x="831" 
d="M540 -107l-475 882h251l475 -882h-251z" />
    <glyph glyph-name="bracketright" unicode="]" horiz-adv-x="606" 
d="M20 -108v98h186v696h-186v101h486v-895h-486z" />
    <glyph glyph-name="asciicircum" unicode="^" horiz-adv-x="680" 
d="M444 313l-106 232l-103 -232h-170l205 430h134l210 -430h-170z" />
    <glyph glyph-name="underscore" unicode="_" horiz-adv-x="825" 
d="M-2 -186v75h829v-75h-829z" />
    <glyph glyph-name="grave" unicode="`" horiz-adv-x="1080" 
d="M442 587l-192 68q-26 9 -39.5 27.5t-13.5 42.5q0 32 23 46.5t58 14.5q32 0 56.5 -12t41.5 -23l257 -164h-191z" />
    <glyph glyph-name="a" unicode="a" horiz-adv-x="1207" 
d="M592 243l-92 -19q-39 -8 -62 -16t-35.5 -17.5t-16.5 -20t-4 -22.5q0 -19 14.5 -28.5t52.5 -9.5q69 0 106 29t37 92v12zM1193 138q0 -38 -16 -66t-52 -46.5t-93.5 -27.5t-139.5 -9q-61 0 -102 6.5t-68.5 18.5t-45.5 27.5t-33 33.5h-1q-25 -18 -53.5 -33.5t-66.5 -27
t-88.5 -18.5t-117.5 -7q-77 0 -132.5 9t-91 26.5t-52 44t-16.5 62.5q0 38 24 64.5t75 47.5t130.5 38.5t190.5 36.5l150 26v6q0 13 -4.5 25t-15.5 20t-30.5 13t-50.5 5q-81 0 -112 -12.5t-31 -30.5q0 -12 4.5 -20.5t10.5 -16.5l-262 -38q-9 12 -15.5 31t-6.5 47q0 37 31.5 65
t89.5 46t138.5 27t178.5 9q217 0 320 -43.5t103 -139.5v-197q0 -16 8 -25t28 -9q39 0 39 46q0 14 -4 31t-9 26v1l176 -9q4 -6 8.5 -26t4.5 -37z" />
    <glyph glyph-name="b" unicode="b" horiz-adv-x="1187" 
d="M801 250q0 39 -11 67.5t-30.5 46.5t-46.5 26.5t-58 8.5q-35 0 -65 -10.5t-51.5 -29.5t-34 -47t-12.5 -62q0 -73 41 -110t121 -37q68 0 107.5 35t39.5 112zM1157 265q0 -64 -29 -116t-90 -89t-155.5 -57t-225.5 -20q-50 0 -92 7.5t-77 20t-63 28t-50 31.5l-61 -70h-163
v609h-145v121l489 33v-297h5q16 12 41.5 22t57 17.5t67 11.5t72.5 4q79 0 154 -14.5t134 -45.5t95 -79.5t36 -116.5z" />
    <glyph glyph-name="c" unicode="c" horiz-adv-x="993" 
d="M955 203q0 -48 -24 -88t-74.5 -69.5t-129.5 -46t-189 -16.5q-108 0 -200.5 17t-160 50.5t-105.5 84t-38 116.5q0 71 41.5 122t112 84t163 48.5t194.5 15.5q98 0 174 -11t128.5 -31.5t80 -50t27.5 -66.5q0 -23 -3 -39t-6 -31l-286 -17v2q5 10 9 27.5t4 34.5q0 35 -27.5 53
t-100.5 18q-33 0 -61.5 -8.5t-49.5 -28t-33 -50t-12 -73.5q0 -38 11.5 -67.5t32 -49.5t48.5 -30t60 -10q40 0 72 6.5t54.5 22t34.5 40.5t12 62z" />
    <glyph glyph-name="d" unicode="d" horiz-adv-x="1185" 
d="M668 254q0 38 -11 65.5t-30.5 45.5t-46 26.5t-57.5 8.5q-58 0 -96.5 -38.5t-38.5 -106.5q0 -76 38.5 -112.5t97.5 -36.5q29 0 55.5 10.5t46 30t31 46.5t11.5 61zM681 -8v50h-3q-16 -12 -35 -22.5t-43 -18.5t-54.5 -12.5t-68.5 -4.5q-221 0 -332 69t-111 199
q0 63 36 112.5t97 84.5t140 53.5t165 18.5q63 0 118 -11.5t83 -28.5v129h-145v120l489 33v-638h144v-125z" />
    <glyph glyph-name="e" unicode="e" horiz-adv-x="1014" 
d="M654 316q-4 42 -36.5 68t-94.5 26q-50 0 -84 -24t-42 -70h257zM976 175q-11 -52 -38 -88.5t-77 -59t-127 -33t-186 -10.5q-126 0 -222 19.5t-161 54.5t-98 83.5t-33 106.5t36.5 108t102 86.5t156.5 57.5t200 21q115 0 199 -18.5t139 -51.5t81 -78.5t26 -99.5v-55h-582
q3 -27 13 -50t28.5 -39.5t46.5 -26t68 -9.5q86 0 129.5 24.5t51.5 77.5z" />
    <glyph glyph-name="f" unicode="f" horiz-adv-x="801" 
d="M839 648q0 -20 -3.5 -43t-12.5 -41l-211 -10v2q8 14 12 28t4 31q0 27 -15.5 39.5t-39.5 12.5q-27 0 -43 -14.5t-16 -43.5v-106h200v-125h-200v-253h162v-125h-650v125h146v253h-142v125h142v62q0 45 20 83t66 66t121 43.5t185 15.5q75 0 127.5 -8.5t85.5 -24.5
t47.5 -39.5t14.5 -52.5z" />
    <glyph glyph-name="g" unicode="g" horiz-adv-x="1227" 
d="M805 -62q0 6 -7.5 10.5t-28.5 7.5t-59.5 5.5t-100.5 4.5l-256 9q-24 -5 -40 -13t-16 -22q0 -12 5.5 -20.5t31 -13.5t77.5 -7.5t145 -2.5q92 0 142.5 3.5t74 9t28 13t4.5 16.5zM644 326q0 39 -32 62.5t-98 23.5q-61 0 -95 -24t-34 -62q0 -40 33 -59t96 -19t96.5 20
t33.5 58zM1189 446q0 -13 -2.5 -28.5t-7.5 -24.5l-164 -23l-1 2q5 8 8 18t3 23q0 14 -8 22.5t-28 8.5t-34 -8t-24 -17q23 -19 37.5 -42.5t14.5 -52.5q0 -97 -112.5 -141t-348.5 -44q-44 0 -78.5 3t-44.5 3q-45 0 -65.5 -6t-20.5 -14q0 -4 3.5 -7.5t14 -6.5t29 -5t49.5 -3
l310 -7q88 -2 167.5 -7t139.5 -19.5t95 -40.5t35 -70q0 -48 -30 -79t-100 -48t-183.5 -23.5t-281.5 -6.5q-142 0 -245 5.5t-170 19t-99.5 37.5t-32.5 62q0 30 28 48t97 29v2q-46 11 -76 30.5t-30 48.5q0 40 41.5 62.5t130.5 39.5v3q-42 10 -72 25t-48.5 33t-27.5 38t-9 39
q0 45 23 81.5t78 62.5t146 40t227 14q63 0 109.5 -5t81 -12t58 -15t39.5 -14q21 14 45.5 27.5t52.5 24t61 17t71 6.5q47 0 76 -8t45.5 -22t22 -33t5.5 -42z" />
    <glyph glyph-name="h" unicode="h" horiz-adv-x="1225" 
d="M646 0v125h71v188q0 31 -14.5 42.5t-49.5 11.5q-39 0 -75 -18t-64 -47v-177h76v-125h-564v125h144v497h-144v108l489 33v-313h3q18 11 44.5 23.5t60 23t73 17.5t84.5 7q81 0 135 -11t86.5 -32.5t46 -54t13.5 -74.5v-224h140v-125h-555z" />
    <glyph glyph-name="i" unicode="i" horiz-adv-x="683" 
d="M26 0v125h145v255h-145v120l489 32v-407h144v-125h-633zM541 699q0 -24 -17 -44.5t-45.5 -36t-66.5 -24.5t-81 -9t-81 9t-66.5 24.5t-45 36t-16.5 44.5t16.5 44.5t45 35.5t66.5 24t81 9t81 -9t66.5 -24t45.5 -35.5t17 -44.5z" />
    <glyph glyph-name="j" unicode="j" horiz-adv-x="648" 
d="M519 10q0 -46 -24.5 -84t-73.5 -65.5t-122.5 -43t-170.5 -15.5q-142 0 -207.5 30t-65.5 86q0 16 2.5 30.5t4.5 22.5l224 15l2 -1q-3 -6 -6.5 -17.5t-3.5 -23.5q0 -37 40 -37q28 0 42.5 15.5t14.5 53.5v404h-145v120l489 32v-522zM545 699q0 -24 -17 -44.5t-45.5 -36
t-66.5 -24.5t-81 -9t-81 9t-66.5 24.5t-45 36t-16.5 44.5t16.5 44.5t45 35.5t66.5 24t81 9t81 -9t66.5 -24t45.5 -35.5t17 -44.5z" />
    <glyph glyph-name="k" unicode="k" horiz-adv-x="1284" 
d="M671 0v125h76l-110 86l-122 -46v-40h76v-125h-565v125h146v484h-146v121l489 33v-478l227 91v2h-109v125h561v-125h-157l-131 -68l250 -185h108v-125h-593z" />
    <glyph glyph-name="l" unicode="l" horiz-adv-x="683" 
d="M26 0v125h145v484h-145v121l489 33v-638h144v-125h-633z" />
    <glyph glyph-name="m" unicode="m" horiz-adv-x="1776" 
d="M1195 0v125h70v190q0 32 -15.5 43.5t-53.5 11.5q-33 0 -69.5 -18t-62.5 -47v-180h74v-125h-491v125h72v189q0 32 -17 44t-47 12q-45 0 -80 -20t-59 -49v-176h75v-125h-563v125h144v255h-146v120l475 33v-92h3q20 14 49.5 28t65.5 25.5t76.5 19t82.5 7.5q60 0 102 -8
t71.5 -20.5t48.5 -28t33 -30.5q25 15 56.5 30.5t68.5 28t77 20.5t82 8q82 0 138 -10.5t90.5 -31.5t49.5 -52t15 -73v-229h142v-125h-557z" />
    <glyph glyph-name="n" unicode="n" horiz-adv-x="1228" 
d="M648 0v125h71v192q0 29 -15.5 41.5t-50.5 12.5q-38 0 -72 -17.5t-65 -47.5v-181h75v-125h-563v125h144v255h-146v120l475 32v-91h3q21 15 51 29t65.5 25.5t75 18.5t79.5 7q146 0 217 -37t71 -129v-230h141v-125h-556z" />
    <glyph glyph-name="o" unicode="o" horiz-adv-x="1088" 
d="M699 253q0 36 -12 63.5t-33 46t-49 27.5t-60 9q-34 0 -62.5 -10t-49.5 -29t-32.5 -46t-11.5 -61q0 -35 12.5 -62.5t34 -47t49.5 -30t59 -10.5q30 0 58 9.5t49.5 28.5t34.5 47t13 65zM1054 253q0 -67 -39 -117.5t-108 -84.5t-162 -51t-201 -17t-201.5 17t-162 50.5
t-107.5 84t-39 118.5q0 64 38 114t106 84t161.5 52t205.5 18q111 0 204.5 -18t161 -52t105.5 -84t38 -114z" />
    <glyph glyph-name="p" unicode="p" horiz-adv-x="1210" 
d="M820 252q0 39 -14 67t-36 45.5t-49.5 26t-55.5 8.5q-30 0 -57.5 -10.5t-49 -30t-34.5 -47.5t-13 -64q0 -70 42.5 -107t112.5 -37q32 0 60 9.5t49 28.5t33 47t12 64zM1176 254q0 -70 -39.5 -121t-103.5 -84.5t-145 -49.5t-163 -16q-66 0 -123.5 9.5t-89.5 24.5h-3v-86h154
v-126h-625v126h132v449h-144v120l462 27v-81h3q19 12 43 25t55.5 24t72.5 18.5t93 7.5q106 0 185 -19t131.5 -53.5t78.5 -84t26 -110.5z" />
    <glyph glyph-name="q" unicode="q" horiz-adv-x="1180" 
d="M670 251q0 37 -11 65t-29.5 47t-43 28t-52.5 9q-31 0 -57.5 -9.5t-46 -28t-30.5 -45.5t-11 -61q0 -36 11 -64t30.5 -47t45.5 -29t55 -10q27 0 52 8.5t44.5 26.5t31 45t11.5 65zM530 -196v126h149v103h-3q-32 -20 -89 -34t-142 -14q-96 0 -172 19.5t-129.5 54t-81.5 83
t-28 107.5q0 63 33 113t93.5 85.5t145 54.5t186.5 19q117 0 200.5 -28t127.5 -66l67 76h131v-573h142v-126h-630z" />
    <glyph glyph-name="r" unicode="r" horiz-adv-x="981" 
d="M957 395q0 -23 -6 -51t-16 -48l-253 -17l-1 2q6 9 10 20.5t4 22.5q0 18 -10 30t-34 12q-18 0 -37.5 -8t-37.5 -22t-34 -32.5t-28 -38.5v-140h147v-125h-635v125h144v255h-144v119l473 31v-115h3q21 21 47 40.5t58 34t71.5 23.5t86.5 9q56 0 93 -9t59 -25.5t31 -40
t9 -52.5z" />
    <glyph glyph-name="s" unicode="s" horiz-adv-x="1021" 
d="M997 160q0 -44 -19 -77t-72.5 -55t-148 -33t-244.5 -11q-66 0 -109 4.5t-73.5 12t-53.5 18t-48 22.5l-39 -41h-140v204h194q9 -30 23 -51.5t39.5 -36t64.5 -21.5t97 -7q40 0 64.5 2.5t38.5 7t19 11.5t5 15q0 7 -6 12.5t-20 10.5t-36.5 10t-56.5 13l-119 26
q-75 16 -130.5 30t-92 31.5t-54.5 42t-18 61.5q0 45 25 75.5t81 49t146 27t220 8.5q64 0 106.5 -5t71 -12.5t46 -17t31.5 -17.5l27 34h141v-173h-203q-9 23 -21 39.5t-32.5 27t-52.5 15t-82 4.5q-32 0 -51 -2t-30 -5.5t-14.5 -9.5t-3.5 -14q0 -11 19.5 -17t73.5 -16l167 -33
q63 -12 113 -26t85 -32t53.5 -42.5t18.5 -58.5z" />
    <glyph glyph-name="t" unicode="t" horiz-adv-x="829" 
d="M803 162q0 -82 -82 -128.5t-254 -46.5q-169 0 -254.5 42.5t-85.5 146.5v201h-121v120q49 1 93.5 17t78.5 43t54.5 62.5t21.5 75.5h217v-192h233v-126h-233v-209q0 -54 62 -54q26 0 42 16t16 49q0 24 -5.5 42.5t-10.5 33.5v2l213 -12q6 -14 10.5 -37t4.5 -46z" />
    <glyph glyph-name="u" unicode="u" horiz-adv-x="1221" 
d="M734 -12v75h-3q-22 -14 -53 -27t-69 -23.5t-81 -17t-89 -6.5q-80 0 -133 10.5t-84.5 32.5t-45 55t-13.5 77v216h-145v120l489 32v-337q0 -35 19 -50.5t54 -15.5q33 0 67.5 12.5t62.5 38.5v200h-114v120l457 32v-407h144v-125z" />
    <glyph glyph-name="v" unicode="v" horiz-adv-x="1074" 
d="M971 378l-295 -378h-279l-289 378h-96v125h534v-125h-79l126 -194h5l134 194h-70v125h400v-125h-91z" />
    <glyph glyph-name="w" unicode="w" horiz-adv-x="1641" 
d="M1536 378l-295 -378h-278l-143 186h-4l-143 -186h-276l-289 378h-96v125h534v-125h-79l125 -195h6l105 156l-29 39h-61v125h501v-125h-80l124 -194h5l134 194h-69v125h401v-125h-93z" />
    <glyph glyph-name="x" unicode="x" horiz-adv-x="1156" 
d="M507 0v125h84v1l-135 73h-2l-124 -73v-1h86v-125h-400v125h73l237 139l-221 114h-75v125h612v-125h-83v-1l126 -74h1l127 74v1h-82v125h398v-125h-69l-239 -137l227 -116h92v-125h-633z" />
    <glyph glyph-name="y" unicode="y" horiz-adv-x="1074" 
d="M971 378l-290 -382q-41 -54 -78.5 -92t-81 -61t-99 -33.5t-133.5 -10.5q-69 0 -117 6t-79 20t-45 36t-14 54q0 23 4.5 37t6.5 21l216 13v-2q-4 -7 -6.5 -15t-2.5 -22q0 -18 11 -25.5t29 -7.5q10 0 18.5 1.5t17.5 6.5t19.5 14.5t22.5 26.5l19 26l-280 389h-97v125h533
v-125h-81l129 -204h5l134 204h-70v125h400v-125h-91z" />
    <glyph glyph-name="z" unicode="z" horiz-adv-x="1065" 
d="M42 0v124l456 252v2h-211v-91h-234v216h950v-122l-457 -254v-2h238v101h235v-226h-977z" />
    <glyph glyph-name="braceleft" unicode="{" horiz-adv-x="655" 
d="M523 -108q-102 0 -173 13.5t-115.5 38t-64 59.5t-19.5 78q0 15 3 32.5t6.5 36.5t6.5 37t3 35t-4 30.5t-18 23t-41 14.5t-73 5v90q46 0 72.5 6t40.5 16.5t18 26t4 33.5q0 24 -8 58.5t-8 72.5q0 46 20.5 81t65.5 59t117 36.5t176 12.5h99v-101h-89q-30 0 -47.5 -5.5
t-26.5 -15.5t-11 -22.5t-2 -26.5q0 -25 9 -60.5t9 -73.5q0 -21 -5.5 -41.5t-19 -39t-37 -34t-60.5 -25.5v-3q35 -9 58.5 -22.5t37.5 -31.5t20 -39t6 -44q0 -14 -3 -33.5t-6.5 -40.5t-6.5 -40t-3 -31q0 -33 20 -50t65 -17h92v-98h-108z" />
    <glyph glyph-name="bar" unicode="|" horiz-adv-x="466" 
d="M100 -107v894h266v-894h-266z" />
    <glyph glyph-name="braceright" unicode="}" horiz-adv-x="655" 
d="M621 295q-46 0 -73 -5t-41 -14.5t-18 -23t-4 -30.5t3 -35t6.5 -37t6.5 -36.5t3 -32.5q0 -43 -19.5 -78t-64 -59.5t-115.5 -38t-173 -13.5h-108v98h92q45 0 65 17t20 50q0 12 -3 31t-6.5 40t-6.5 40.5t-3 33.5q0 23 6 44t20 39t37.5 31.5t58.5 22.5v3q-37 10 -60.5 25.5
t-37 34t-19 39t-5.5 41.5q0 38 9 73.5t9 60.5q0 14 -2 26.5t-11 22.5t-26.5 15.5t-47.5 5.5h-89v101h99q104 0 176 -12.5t117 -36.5t65.5 -59t20.5 -81q0 -38 -8 -72.5t-8 -58.5q0 -18 4 -33.5t18 -26t40.5 -16.5t72.5 -6v-90z" />
    <glyph glyph-name="asciitilde" unicode="~" horiz-adv-x="680" 
d="M642 506q-21 -70 -70.5 -114t-124.5 -44q-42 0 -75 10t-59 21q-17 8 -38.5 17t-40.5 9q-24 0 -42.5 -15.5t-34.5 -55.5l-119 63q32 69 81.5 109t118.5 40q34 0 65 -10t58 -21q19 -8 45 -19t46 -11q14 0 33.5 15t30.5 59z" />
    <glyph glyph-name="uni00A0" unicode="&#xa0;" horiz-adv-x="225" 
 />
    <glyph glyph-name="exclamdown" unicode="&#xa1;" horiz-adv-x="558" 
d="M90 -47q16 52 31 109t27.5 114.5t22 114.5t14.5 109h185q5 -52 15 -108.5t23.5 -114.5t28.5 -115t31 -109h-378zM439 560q0 -21 -12.5 -40.5t-35 -34t-53 -23t-65.5 -8.5t-65.5 8.5t-53 23t-35.5 34t-13 40.5q0 22 13 41t35.5 33t53 22t65.5 8t65.5 -8t53 -22t35 -33
t12.5 -41z" />
    <glyph glyph-name="cent" unicode="&#xa2;" horiz-adv-x="1117" 
d="M572 482q-39 -2 -71 -12.5t-55 -30.5t-35.5 -50.5t-12.5 -72.5q0 -48 26 -85zM1083 263q-2 -46 -25.5 -85.5t-78 -68t-144 -44.5t-223.5 -16q-29 0 -57 1t-54 3l-84 -146h-181l100 171q-83 12 -140.5 36t-93.5 55.5t-52 69.5t-16 78q0 60 37.5 110t111.5 85.5t183.5 55
t253.5 19.5h12l61 104h181l-66 -113q78 -6 131 -18t85 -30.5t45.5 -43t13.5 -54.5q0 -18 -5 -37.5t-11 -29.5l-268 -17q11 12 18 29.5t7 34.5q0 26 -17.5 39t-62.5 19l-183 -316q28 -5 55 -5q49 0 92 5.5t74.5 20t50 40.5t20.5 67z" />
    <glyph glyph-name="sterling" unicode="&#xa3;" horiz-adv-x="1251" 
d="M403 91q-17 7 -46.5 13.5t-52.5 6.5q-58 0 -58 -20q0 -9 13 -14t48 -5q26 0 51.5 6t44.5 13zM1219 154q0 -83 -75.5 -126t-239.5 -43q-90 0 -178.5 8.5t-166.5 29.5q-52 -20 -112.5 -29t-146.5 -9q-146 0 -212 32t-66 91q0 58 74 92t236 34q26 0 53 -1.5t59 -4.5
q-5 13 -15 26t-21 23h-278v110h182q-20 20 -36.5 45.5t-16.5 59.5q0 48 23 86t80 64.5t153.5 40.5t244.5 14q94 0 170 -11t129.5 -32.5t82.5 -53.5t29 -73q0 -32 -12 -61.5t-32 -48.5l-291 35v2q11 14 20.5 32t9.5 37q0 24 -23.5 42.5t-84.5 18.5q-72 0 -99.5 -18t-27.5 -51
q0 -36 25.5 -66t60.5 -62h302v-110h-236q2 -8 5.5 -19.5t3.5 -15.5q0 -22 -8 -45.5t-23 -40.5q44 -11 83.5 -18.5t66.5 -7.5q50 0 71 15t21 38q0 13 -4.5 28t-12.5 26v2l213 -10q6 -11 13 -30t7 -45z" />
    <glyph glyph-name="currency" unicode="&#xa4;" horiz-adv-x="1464" 
d="M1424 290q-4 -59 -32 -114.5t-92 -98.5t-169.5 -69t-264.5 -26q-250 0 -409 63t-221 179h-222l58 93h138l-2 27l2 24h-188l56 92h160q65 111 220 173.5t397 62.5q64 0 114 -7t90 -18t70.5 -24t55.5 -26l40 58h167v-293h-234q-23 99 -101 146.5t-193 47.5
q-46 0 -87.5 -7.5t-76.5 -22.5t-62.5 -37.5t-45.5 -52.5h341l-56 -92h-313q-1 -5 -1 -10.5v-12.5q0 -9 0.5 -16.5t0.5 -11.5h361l-56 -93h-275q19 -34 49 -58t68 -39t83 -21.5t94 -6.5q63 0 115 11t89.5 36t58 66t20.5 100z" />
    <glyph glyph-name="yen" unicode="&#xa5;" horiz-adv-x="1245" 
d="M1074 541l-112 -108h176v-90h-272l-66 -65h338v-90h-336v-56h154v-132h-624v132h152v56h-377v90h336l-63 65h-273v90h179l-107 108h-149v133h609v-133h-80l131 -132h4l121 132h-80v133h480v-133h-141z" />
    <glyph glyph-name="brokenbar" unicode="&#xa6;" horiz-adv-x="466" 
d="M100 -107v366h266v-366h-266zM100 420v367h266v-367h-266z" />
    <glyph glyph-name="section" unicode="&#xa7;" horiz-adv-x="658" 
d="M418 247q0 24 -12.5 38.5t-42.5 32.5l-118 71q-4 -7 -4 -13q0 -10 2 -18.5t9 -17.5t20 -19t35 -23l107 -62q2 3 3 6t1 5zM608 292q0 -22 -7.5 -41t-20 -35t-28.5 -30t-34 -25q28 -23 46 -50t18 -65t-20 -68.5t-56 -52.5t-85.5 -33.5t-109.5 -11.5q-55 0 -99.5 8.5
t-76.5 25t-49.5 40.5t-17.5 56q0 14 4 30t8 24l180 14l2 -1q-6 -7 -12 -21.5t-6 -31.5q0 -46 59 -46q44 0 60.5 10.5t16.5 24.5q0 10 -3.5 19t-14 19t-30 22.5t-51.5 30.5l-117 66q-54 31 -83.5 70.5t-29.5 88.5q0 23 7.5 42.5t20 36.5t28.5 30.5t33 24.5q-28 24 -46 51
t-18 65q0 41 22.5 72.5t60 52.5t87 32t103.5 11t98.5 -9t76 -26t48.5 -41.5t17 -55.5q0 -13 -3 -28.5t-10 -29.5l-176 -13l-1 2q7 14 11 26.5t4 27.5q0 20 -15 34t-50 14q-33 0 -51.5 -10.5t-18.5 -29.5q0 -11 3.5 -19t14 -17.5t30.5 -22t53 -31.5l113 -64q54 -30 84.5 -69
t30.5 -93z" />
    <glyph glyph-name="dieresis" unicode="&#xa8;" horiz-adv-x="1080" 
d="M489 664q0 -16 -11.5 -30.5t-31 -25t-45.5 -16.5t-56 -6t-56.5 6t-46 16.5t-30.5 25t-11 30.5t11 30.5t30.5 25t46 16.5t56.5 6t56 -6t45.5 -16.5t31 -25t11.5 -30.5zM879 664q0 -16 -11.5 -30.5t-31 -25t-45.5 -16.5t-56 -6t-56.5 6t-46 16.5t-30.5 25t-11 30.5t11 30.5
t30.5 25t46 16.5t56.5 6t56 -6t45.5 -16.5t31 -25t11.5 -30.5z" />
    <glyph glyph-name="copyright" unicode="&#xa9;" horiz-adv-x="933" 
d="M690 329q0 -42 -10.5 -81t-35.5 -69t-66 -48t-101 -18q-54 0 -100.5 17t-81 49t-54.5 78t-20 105q0 54 20.5 98.5t55.5 76.5t80 49.5t95 17.5q54 0 90 -18t56 -36l17 41h40v-196h-58q-4 37 -16.5 65t-31.5 46t-43 27t-49 9q-29 0 -55.5 -9t-47 -29.5t-32.5 -53.5t-12 -81
q0 -51 12.5 -87.5t34.5 -59.5t50.5 -33.5t61.5 -10.5q64 0 101 38.5t38 121.5zM809 368q0 71 -27 133.5t-73.5 109t-109 73.5t-133.5 27t-133 -27t-108.5 -73.5t-73.5 -109t-27 -133.5t27 -133t73.5 -108.5t108.5 -73.5t133 -27t133.5 27t109 73.5t73.5 108.5t27 133z
M863 369q0 -84 -30.5 -157t-84 -126t-125.5 -83.5t-156 -30.5q-89 0 -162 30.5t-125.5 83.5t-81 126t-28.5 157q0 85 30.5 157.5t83.5 125.5t126 83t157 30t156 -29.5t125.5 -82.5t84 -125.5t30.5 -158.5z" />
    <glyph glyph-name="ordfeminine" unicode="&#xaa;" horiz-adv-x="930" 
d="M475 560l-69 -14q-28 -6 -45.5 -12t-27 -13t-13 -14t-3.5 -15q0 -12 10.5 -19.5t37.5 -7.5q49 0 79.5 20.5t30.5 65.5v9zM901 485q0 -27 -11.5 -47t-37 -33.5t-66.5 -20t-100 -6.5q-44 0 -72.5 5t-47.5 13.5t-31.5 19.5t-23.5 24q-18 -13 -39 -24t-49 -19.5t-64.5 -13.5
t-84.5 -5q-111 0 -160 25.5t-49 76.5q0 27 17 46.5t53.5 34.5t93.5 28t137 27l110 19v4q0 19 -15.5 30.5t-59.5 11.5q-58 0 -83 -8.5t-25 -21.5q0 -15 10 -27l-181 -27q-7 8 -11.5 22t-4.5 34q0 27 22.5 46.5t64 32.5t99 19.5t127.5 6.5q155 0 229 -31t74 -100v-141
q0 -24 25 -24q29 0 29 29q0 16 -4 27.5t-8 19.5l128 -8q2 -5 5.5 -19t3.5 -26z" />
    <glyph glyph-name="guillemotleft" unicode="&#xab;" horiz-adv-x="1008" 
d="M269 73l-189 213l186 211h251l-153 -211l155 -213h-250zM678 73l-189 213l186 211h251l-153 -211l155 -213h-250z" />
    <glyph glyph-name="logicalnot" unicode="&#xac;" horiz-adv-x="667" 
d="M501 158v228h-440v106h545v-334h-105z" />
    <glyph glyph-name="uni00AD" unicode="&#xad;" horiz-adv-x="469" 
d="M60 234v157h349v-157h-349z" />
    <glyph glyph-name="registered" unicode="&#xae;" horiz-adv-x="736" 
d="M435 537q0 22 -14 33t-47 11h-35v-96h14q45 0 63.5 11.5t18.5 40.5zM562 357q0 -32 -18 -52t-53 -20q-37 0 -56 24t-26 74q-5 34 -14.5 43.5t-25.5 9.5h-30v-94h46v-51h-168v51h44v239h-44v49h163q25 0 50 -4.5t45 -15t32 -28t12 -44.5q0 -32 -23.5 -53.5t-54.5 -30.5
q17 -7 30 -25t16 -38q5 -33 9.5 -43t13.5 -10q5 0 8.5 7t3.5 18q0 10 -1.5 17t-4.5 18l40 -2q2 -8 4 -18t2 -21zM622 452q0 52 -20 98t-54.5 80t-81 53.5t-98.5 19.5q-53 0 -99 -19.5t-80.5 -53.5t-54.5 -80t-20 -98t20 -97.5t54.5 -79.5t80.5 -53.5t99 -19.5
q52 0 98.5 19.5t81 53.5t54.5 79.5t20 97.5zM666 452q0 -61 -23.5 -114.5t-64 -93t-94.5 -62.5t-116 -23t-116 23t-94.5 62.5t-64 93t-23.5 114.5t23.5 114.5t64 93t94.5 62t116 22.5t116 -22.5t94.5 -62t64 -93t23.5 -114.5z" />
    <glyph glyph-name="macron" unicode="&#xaf;" horiz-adv-x="1080" 
d="M277 606v105h527v-105h-527z" />
    <glyph glyph-name="degree" unicode="&#xb0;" horiz-adv-x="442" 
d="M286 614q0 27 -17.5 45.5t-48.5 18.5q-29 0 -46.5 -16.5t-17.5 -46.5q0 -29 17.5 -48t48.5 -19q29 0 46.5 18t17.5 48zM386 614q0 -34 -12.5 -63t-34.5 -50t-52 -33t-64 -12q-35 0 -65.5 12t-53 33t-35.5 50t-13 64q0 34 13 62.5t35.5 49t52 32t63.5 11.5t64.5 -11.5
t53 -32.5t35.5 -49.5t13 -62.5z" />
    <glyph glyph-name="plusminus" unicode="&#xb1;" horiz-adv-x="625" 
d="M47 0v109h531v-109h-531zM367 324v-199h-111v199h-209v108h209v206h111v-206h211v-108h-211z" />
    <glyph glyph-name="uni00B2" unicode="&#xb2;" horiz-adv-x="740" 
d="M65 237v82l279 158q34 19 57 38.5t23 42.5q0 30 -23 40t-71 10q-45 0 -71.5 -13.5t-26.5 -43.5q0 -20 6 -33.5t18 -31.5l-1 -1l-179 -15q-14 14 -22 34t-8 47q0 36 27 63.5t74 46t109 27.5t133 9q140 0 214.5 -37.5t74.5 -105.5q0 -27 -13 -46t-36 -34.5t-53.5 -29
t-66.5 -27.5l-225 -90v-1h240v81h157v-170h-616z" />
    <glyph glyph-name="uni00B3" unicode="&#xb3;" horiz-adv-x="740" 
d="M692 376q0 -71 -80.5 -110t-229.5 -39q-322 0 -322 118q0 20 9 40t25 34l169 -30q-4 -5 -8.5 -13.5t-4.5 -25.5q0 -14 19.5 -24t67.5 -10q59 0 83.5 13.5t24.5 47.5q0 38 -26 49.5t-65 11.5h-60v81h49q46 0 69 13.5t23 36.5q0 27 -22 34.5t-74 7.5q-49 0 -66 -11t-17 -25
q0 -13 2 -16.5t7 -10.5l-171 -24q-11 12 -18 27t-7 36q0 26 24.5 47t66.5 35.5t97 22t117 7.5q61 0 116 -7.5t95.5 -23t64.5 -39t24 -54.5q0 -40 -33.5 -60.5t-81.5 -30.5v-2q26 -5 50 -13.5t42.5 -21.5t29.5 -30.5t11 -40.5z" />
    <glyph glyph-name="acute" unicode="&#xb4;" horiz-adv-x="1080" 
d="M876 725q0 -24 -13.5 -42.5t-39.5 -27.5l-192 -68h-191l257 164q17 11 41.5 23t56.5 12q35 0 58 -14.5t23 -46.5z" />
    <glyph glyph-name="mu" unicode="&#xb5;" horiz-adv-x="1227" 
d="M740 -12v74h-3q-23 -12 -54.5 -25t-68.5 -23.5t-76.5 -17.5t-78.5 -7q-28 0 -53.5 2.5t-45.5 5.5t-34 6t-19 4q3 -11 8 -25.5t10 -30t8.5 -30t3.5 -26.5q0 -48 -24 -76t-82 -28q-57 0 -81.5 27t-24.5 77q0 21 6.5 41t15 41.5t15 46t6.5 55.5v302h-144v118l489 33v-341
q0 -27 20 -44.5t56 -17.5q38 0 69.5 15.5t57.5 38.5v198h-114v118l457 33v-406h144v-126z" />
    <glyph glyph-name="mu" unicode="&#x3bc;" horiz-adv-x="1227" 
d="M740 -12v74h-3q-23 -12 -54.5 -25t-68.5 -23.5t-76.5 -17.5t-78.5 -7q-28 0 -53.5 2.5t-45.5 5.5t-34 6t-19 4q3 -11 8 -25.5t10 -30t8.5 -30t3.5 -26.5q0 -48 -24 -76t-82 -28q-57 0 -81.5 27t-24.5 77q0 21 6.5 41t15 41.5t15 46t6.5 55.5v302h-144v118l489 33v-341
q0 -27 20 -44.5t56 -17.5q38 0 69.5 15.5t57.5 38.5v198h-114v118l457 33v-406h144v-126z" />
    <glyph glyph-name="paragraph" unicode="&#xb6;" horiz-adv-x="1078" 
d="M737 630h-94v-642h94v642zM944 630v-753h-638v111h132v220q-84 3 -157.5 19t-128 48t-86 81t-31.5 117q0 69 31 119t88 83t137.5 48.5t180.5 15.5h571v-109h-99z" />
    <glyph glyph-name="periodcentered" unicode="&#xb7;" horiz-adv-x="493" 
d="M413 363q0 -22 -13 -41t-35.5 -33t-53 -22t-65.5 -8t-65.5 8t-53 22t-35 33t-12.5 41q0 21 12.5 40.5t35 34t53 23t65.5 8.5t65.5 -8.5t53 -23t35.5 -34t13 -40.5z" />
    <glyph glyph-name="cedilla" unicode="&#xb8;" horiz-adv-x="1080" 
d="M708 -120q0 -19 -10.5 -33.5t-36.5 -24.5t-69.5 -15t-108.5 -5q-10 0 -24 0.5t-27.5 2t-25.5 2.5t-19 3v55q14 -2 34.5 -5.5t37.5 -3.5q32 0 45.5 6t13.5 17q0 5 -3.5 10t-15 8.5t-32.5 6t-56 2.5l82 100h121l-41 -48q75 -9 105 -29t30 -49z" />
    <glyph glyph-name="uni00B9" unicode="&#xb9;" horiz-adv-x="740" 
d="M147 239v89h119v232h-135v83q51 2 87.5 5t62 8.5t43 14t31.5 21.5h148v-364h117v-89h-473z" />
    <glyph glyph-name="ordmasculine" unicode="&#xba;" horiz-adv-x="930" 
d="M576 567q0 52 -32 78t-78 26q-48 0 -79.5 -28t-31.5 -76q0 -25 9 -44.5t24.5 -33.5t35.5 -21.5t42 -7.5q21 0 41 7t35.5 20.5t24.5 33.5t9 46zM830 567q0 -48 -28 -84t-77 -60t-115.5 -36.5t-143.5 -12.5q-78 0 -144.5 12t-115.5 36t-77 60.5t-28 84.5q0 46 27 81.5
t75.5 60t115.5 37.5t147 13q79 0 146 -13t115.5 -37.5t75.5 -60t27 -81.5z" />
    <glyph glyph-name="guillemotright" unicode="&#xbb;" horiz-adv-x="1008" 
d="M330 73h-250l155 213l-153 211h251l186 -211zM739 73h-250l155 213l-153 211h251l186 -211z" />
    <glyph glyph-name="onequarter" unicode="&#xbc;" horiz-adv-x="1724" 
d="M1282 304h-1l-144 -101h145v101zM130 239v89h119v232h-135v83q51 2 87.5 5t62 8.5t43 14t31.5 21.5h148v-364h117v-89h-473zM687 -11h-241l649 713h237zM1163 0v90h119v39h-318v70l371 254h183v-248h100v-76h-100v-39h118v-90h-473z" />
    <glyph glyph-name="onehalf" unicode="&#xbd;" horiz-adv-x="1725" 
d="M81 239v89h119v232h-135v83q51 2 87.5 5t62 8.5t43 14t31.5 21.5h148v-364h117v-89h-473zM628 -11h-242l650 713h236zM1033 0v82l279 158q34 19 57 38.5t23 42.5q0 30 -23 40t-71 10q-45 0 -71.5 -13.5t-26.5 -43.5q0 -20 6 -33.5t18 -31.5l-1 -1l-179 -15q-14 14 -22 34
t-8 47q0 36 27 63.5t74 46t109 27.5t133 9q140 0 214.5 -37.5t74.5 -105.5q0 -27 -13 -46t-36 -34.5t-53.5 -29t-66.5 -27.5l-225 -90v-1h240v81h157v-170h-616z" />
    <glyph glyph-name="threequarters" unicode="&#xbe;" horiz-adv-x="1725" 
d="M1302 304h-1l-144 -101h145v101zM712 369q0 -71 -80.5 -110t-229.5 -39q-322 0 -322 118q0 20 9 40t25 34l169 -30q-4 -5 -8.5 -13.5t-4.5 -25.5q0 -14 19.5 -24t67.5 -10q59 0 83.5 13.5t24.5 47.5q0 38 -26 49.5t-65 11.5h-60v81h49q46 0 69 13.5t23 36.5
q0 27 -22 34.5t-74 7.5q-49 0 -66 -11t-17 -25q0 -13 2 -16.5t7 -10.5l-171 -24q-11 12 -18 27t-7 36q0 26 24.5 47t66.5 35.5t97 22t117 7.5q61 0 116 -7.5t95.5 -23t64.5 -39t24 -54.5q0 -40 -33.5 -60.5t-81.5 -30.5v-2q26 -5 50 -13.5t42.5 -21.5t29.5 -30.5t11 -40.5z
M703 -11h-242l650 713h237zM1183 0v90h119v39h-318v70l371 254h183v-248h100v-76h-100v-39h118v-90h-473z" />
    <glyph glyph-name="questiondown" unicode="&#xbf;" horiz-adv-x="930" 
d="M860 133q0 -47 -34 -81t-91.5 -56.5t-134.5 -33.5t-162 -11q-42 0 -87.5 3.5t-90 11.5t-84.5 21t-70 32.5t-48 45.5t-18 60q0 48 36 82t88.5 56.5t111 36.5t104.5 23l7 84h184l17 -144q-71 -8 -115 -22t-68 -31t-32.5 -35.5t-8.5 -36.5q0 -41 30 -56t84 -15t81.5 20
t27.5 46q0 23 -8.5 40t-19.5 26v3l271 35q12 -18 21 -44t9 -60zM640 567q0 -21 -13 -40.5t-35.5 -34t-53 -23t-65.5 -8.5t-65.5 8.5t-53 23t-35 34t-12.5 40.5q0 22 12.5 41t35 33t53 22t65.5 8t65.5 -8t53 -22t35.5 -33t13 -41z" />
    <glyph glyph-name="Agrave" unicode="&#xc0;" horiz-adv-x="1521" 
d="M675 512h-3l-113 -197h228zM759 0v132h132l-40 71h-356l-38 -71h127v-132h-566v132h163l400 607h347l403 -607h172v-132h-744zM732 805l-192 68q-26 9 -39.5 27.5t-13.5 42.5q0 32 23 46.5t58 14.5q32 0 56.5 -12t41.5 -23l257 -164h-191z" />
    <glyph glyph-name="Aacute" unicode="&#xc1;" horiz-adv-x="1521" 
d="M675 512h-3l-113 -197h228zM759 0v132h132l-40 71h-356l-38 -71h127v-132h-566v132h163l400 607h347l403 -607h172v-132h-744zM1023 943q0 -24 -13.5 -42.5t-39.5 -27.5l-192 -68h-191l257 164q17 11 41.5 23t56.5 12q35 0 58 -14.5t23 -46.5z" />
    <glyph glyph-name="Acircumflex" unicode="&#xc2;" horiz-adv-x="1521" 
d="M675 512h-3l-113 -197h228zM759 0v132h132l-40 71h-356l-38 -71h127v-132h-566v132h163l400 607h347l403 -607h172v-132h-744zM892 805l-140 64l-143 -64h-201l274 181h137l281 -181h-208z" />
    <glyph glyph-name="Atilde" unicode="&#xc3;" horiz-adv-x="1521" 
d="M675 512h-3l-113 -197h228zM759 0v132h132l-40 71h-356l-38 -71h127v-132h-566v132h163l400 607h347l403 -607h172v-132h-744zM1078 967q0 -83 -58 -122.5t-167 -39.5q-44 0 -78 7.5t-62.5 16.5t-54 16.5t-53.5 7.5q-17 0 -34.5 -10t-17.5 -38h-134q0 48 20 79t51.5 48.5
t70 24t75.5 6.5q44 0 80 -7.5t66 -17t55.5 -17t49.5 -7.5q9 0 19.5 2t19.5 8t15 16.5t6 26.5h131z" />
    <glyph glyph-name="Adieresis" unicode="&#xc4;" horiz-adv-x="1521" 
d="M675 512h-3l-113 -197h228zM759 0v132h132l-40 71h-356l-38 -71h127v-132h-566v132h163l400 607h347l403 -607h172v-132h-744zM705 877q0 -16 -11.5 -30.5t-31 -25t-45.5 -16.5t-56 -6t-56.5 6t-46 16.5t-30.5 25t-11 30.5t11 30.5t30.5 25t46 16.5t56.5 6t56 -6
t45.5 -16.5t31 -25t11.5 -30.5zM1095 877q0 -16 -11.5 -30.5t-31 -25t-45.5 -16.5t-56 -6t-56.5 6t-46 16.5t-30.5 25t-11 30.5t11 30.5t30.5 25t46 16.5t56.5 6t56 -6t45.5 -16.5t31 -25t11.5 -30.5z" />
    <glyph glyph-name="Aring" unicode="&#xc5;" horiz-adv-x="1521" 
d="M675 512h-3l-113 -197h228zM834 862q0 22 -25.5 36.5t-60.5 14.5q-17 0 -33 -4t-28 -11t-19.5 -16.5t-7.5 -19.5q0 -20 25 -35t63 -15q35 0 60.5 14.5t25.5 35.5zM759 0v132h132l-40 71h-356l-38 -71h127v-132h-566v132h163l400 607h347l403 -607h172v-132h-744zM936 862
q0 -22 -14.5 -41t-40 -33.5t-59.5 -22.5t-74 -8t-74.5 8t-60 22.5t-40 33.5t-14.5 41t14.5 41t40 32.5t60 21.5t74.5 8t74 -8t59.5 -21.5t40 -32.5t14.5 -41z" />
    <glyph glyph-name="AE" unicode="&#xc6;" horiz-adv-x="2017" 
d="M830 610h-6l-230 -290h236v290zM696 0v132h134v61h-334l-48 -61h117v-132h-551v132h154l413 474h-117v133h1481v-312h-260v179h-493v-161h135v105h219v-344h-219v107h-135v-181h514v202h257v-334h-1267z" />
    <glyph glyph-name="Ccedilla" unicode="&#xc7;" horiz-adv-x="1408" 
d="M1364 317q-3 -60 -31 -119t-94.5 -106.5t-178.5 -78t-284 -32.5l-20 -23q75 -9 105 -29t30 -49q0 -19 -10.5 -33.5t-36.5 -24.5t-69.5 -15t-108.5 -5q-10 0 -24 0.5t-27.5 2t-25.5 2.5t-19 3v55q14 -2 34.5 -5.5t37.5 -3.5q32 0 45.5 6t13.5 17q0 5 -3.5 10t-15 8.5
t-32.5 6t-56 2.5l63 77q-146 7 -261 37.5t-194 81t-120.5 119.5t-41.5 154q0 87 51.5 158t143.5 121.5t220.5 77.5t283.5 27q65 0 120.5 -7.5t101 -19.5t81 -26.5t60.5 -29.5l45 63h182v-322h-254q-24 110 -109.5 162t-215.5 52q-68 0 -127 -15.5t-102.5 -47t-69 -79
t-25.5 -111.5q0 -69 25.5 -120t71.5 -84.5t111 -49.5t145 -16q155 0 230.5 55.5t79.5 175.5z" />
    <glyph glyph-name="Egrave" unicode="&#xc8;" horiz-adv-x="1411" 
d="M32 0v132h181v474h-181v133h1295v-312h-259v179h-494v-160h135v106h219v-347h-219v107h-135v-180h515v202h258v-334h-1315zM660 805l-192 68q-26 9 -39.5 27.5t-13.5 42.5q0 32 23 46.5t58 14.5q32 0 56.5 -12t41.5 -23l257 -164h-191z" />
    <glyph glyph-name="Eacute" unicode="&#xc9;" horiz-adv-x="1411" 
d="M32 0v132h181v474h-181v133h1295v-312h-259v179h-494v-160h135v106h219v-347h-219v107h-135v-180h515v202h258v-334h-1315zM1071 943q0 -24 -13.5 -42.5t-39.5 -27.5l-192 -68h-191l257 164q17 11 41.5 23t56.5 12q35 0 58 -14.5t23 -46.5z" />
    <glyph glyph-name="Ecircumflex" unicode="&#xca;" horiz-adv-x="1411" 
d="M32 0v132h181v474h-181v133h1295v-312h-259v179h-494v-160h135v106h219v-347h-219v107h-135v-180h515v202h258v-334h-1315zM831 805l-140 64l-143 -64h-201l274 181h137l281 -181h-208z" />
    <glyph glyph-name="Edieresis" unicode="&#xcb;" horiz-adv-x="1411" 
d="M32 0v132h181v474h-181v133h1295v-312h-259v179h-494v-160h135v106h219v-347h-219v107h-135v-180h515v202h258v-334h-1315zM642 877q0 -16 -11.5 -30.5t-31 -25t-45.5 -16.5t-56 -6t-56.5 6t-46 16.5t-30.5 25t-11 30.5t11 30.5t30.5 25t46 16.5t56.5 6t56 -6t45.5 -16.5
t31 -25t11.5 -30.5zM1032 877q0 -16 -11.5 -30.5t-31 -25t-45.5 -16.5t-56 -6t-56.5 6t-46 16.5t-30.5 25t-11 30.5t11 30.5t30.5 25t46 16.5t56.5 6t56 -6t45.5 -16.5t31 -25t11.5 -30.5z" />
    <glyph glyph-name="Igrave" unicode="&#xcc;" horiz-adv-x="788" 
d="M32 0v132h181v474h-181v133h724v-133h-181v-474h181v-132h-724zM381 805l-192 68q-26 9 -39.5 27.5t-13.5 42.5q0 32 23 46.5t58 14.5q32 0 56.5 -12t41.5 -23l257 -164h-191z" />
    <glyph glyph-name="Iacute" unicode="&#xcd;" horiz-adv-x="788" 
d="M32 0v132h181v474h-181v133h724v-133h-181v-474h181v-132h-724zM655 943q0 -24 -13.5 -42.5t-39.5 -27.5l-192 -68h-191l257 164q17 11 41.5 23t56.5 12q35 0 58 -14.5t23 -46.5z" />
    <glyph glyph-name="Icircumflex" unicode="&#xce;" horiz-adv-x="788" 
d="M32 0v132h181v474h-181v133h724v-133h-181v-474h181v-132h-724zM531 805l-140 64l-143 -64h-201l274 181h137l281 -181h-208z" />
    <glyph glyph-name="Idieresis" unicode="&#xcf;" horiz-adv-x="788" 
d="M32 0v132h181v474h-181v133h724v-133h-181v-474h181v-132h-724zM342 877q0 -16 -11.5 -30.5t-31 -25t-45.5 -16.5t-56 -6t-56.5 6t-46 16.5t-30.5 25t-11 30.5t11 30.5t30.5 25t46 16.5t56.5 6t56 -6t45.5 -16.5t31 -25t11.5 -30.5zM732 877q0 -16 -11.5 -30.5t-31 -25
t-45.5 -16.5t-56 -6t-56.5 6t-46 16.5t-30.5 25t-11 30.5t11 30.5t30.5 25t46 16.5t56.5 6t56 -6t45.5 -16.5t31 -25t11.5 -30.5z" />
    <glyph glyph-name="Eth" unicode="&#xd0;" horiz-adv-x="1496" 
d="M1072 372q0 126 -97.5 180t-291.5 54h-108v-179h192v-119h-192v-176h153q177 0 260.5 58t83.5 182zM1456 376q0 -94 -50 -164.5t-140 -117.5t-216 -70.5t-277 -23.5h-741v132h181v176h-175v119h175v179h-181v133h728q147 0 274 -22t220.5 -66.5t147.5 -113t54 -161.5z
" />
    <glyph glyph-name="Ntilde" unicode="&#xd1;" horiz-adv-x="1616" 
d="M1403 606v-606h-380l-552 479h-5v-347h181v-132h-615v132h181v474h-181v133h652l460 -402h6v269h-181v133h615v-133h-181zM1141 967q0 -83 -58 -122.5t-167 -39.5q-44 0 -78 7.5t-62.5 16.5t-54 16.5t-53.5 7.5q-17 0 -34.5 -10t-17.5 -38h-134q0 48 20 79t51.5 48.5
t70 24t75.5 6.5q44 0 80 -7.5t66 -17t55.5 -17t49.5 -7.5q9 0 19.5 2t19.5 8t15 16.5t6 26.5h131z" />
    <glyph glyph-name="Ograve" unicode="&#xd2;" 
d="M1015 370q0 62 -23 110t-63 81t-93 50.5t-114 17.5q-66 0 -120.5 -17.5t-93.5 -50.5t-60.5 -81t-21.5 -110q0 -57 19 -105t56 -82.5t92.5 -53.5t128.5 -19q71 0 125.5 19t92 53.5t56.5 82t19 105.5zM1400 370q0 -89 -50 -161t-139.5 -122.5t-214 -78t-273.5 -27.5
q-154 0 -280 27.5t-215.5 78t-138.5 122.5t-49 162q0 93 54 165t146.5 121.5t216 75.5t263.5 26q88 0 172.5 -11t160 -32.5t139.5 -53.5t110 -75.5t72 -97.5t26 -119zM620 805l-192 68q-26 9 -39.5 27.5t-13.5 42.5q0 32 23 46.5t58 14.5q32 0 56.5 -12t41.5 -23l257 -164
h-191z" />
    <glyph glyph-name="Oacute" unicode="&#xd3;" 
d="M1015 370q0 62 -23 110t-63 81t-93 50.5t-114 17.5q-66 0 -120.5 -17.5t-93.5 -50.5t-60.5 -81t-21.5 -110q0 -57 19 -105t56 -82.5t92.5 -53.5t128.5 -19q71 0 125.5 19t92 53.5t56.5 82t19 105.5zM1400 370q0 -89 -50 -161t-139.5 -122.5t-214 -78t-273.5 -27.5
q-154 0 -280 27.5t-215.5 78t-138.5 122.5t-49 162q0 93 54 165t146.5 121.5t216 75.5t263.5 26q88 0 172.5 -11t160 -32.5t139.5 -53.5t110 -75.5t72 -97.5t26 -119zM1071 943q0 -24 -13.5 -42.5t-39.5 -27.5l-192 -68h-191l257 164q17 11 41.5 23t56.5 12q35 0 58 -14.5
t23 -46.5z" />
    <glyph glyph-name="Ocircumflex" unicode="&#xd4;" 
d="M1015 370q0 62 -23 110t-63 81t-93 50.5t-114 17.5q-66 0 -120.5 -17.5t-93.5 -50.5t-60.5 -81t-21.5 -110q0 -57 19 -105t56 -82.5t92.5 -53.5t128.5 -19q71 0 125.5 19t92 53.5t56.5 82t19 105.5zM1400 370q0 -89 -50 -161t-139.5 -122.5t-214 -78t-273.5 -27.5
q-154 0 -280 27.5t-215.5 78t-138.5 122.5t-49 162q0 93 54 165t146.5 121.5t216 75.5t263.5 26q88 0 172.5 -11t160 -32.5t139.5 -53.5t110 -75.5t72 -97.5t26 -119zM863 805l-140 64l-143 -64h-201l274 181h137l281 -181h-208z" />
    <glyph glyph-name="Otilde" unicode="&#xd5;" 
d="M1015 370q0 62 -23 110t-63 81t-93 50.5t-114 17.5q-66 0 -120.5 -17.5t-93.5 -50.5t-60.5 -81t-21.5 -110q0 -57 19 -105t56 -82.5t92.5 -53.5t128.5 -19q71 0 125.5 19t92 53.5t56.5 82t19 105.5zM1400 370q0 -89 -50 -161t-139.5 -122.5t-214 -78t-273.5 -27.5
q-154 0 -280 27.5t-215.5 78t-138.5 122.5t-49 162q0 93 54 165t146.5 121.5t216 75.5t263.5 26q88 0 172.5 -11t160 -32.5t139.5 -53.5t110 -75.5t72 -97.5t26 -119zM1039 967q0 -83 -58 -122.5t-167 -39.5q-44 0 -78 7.5t-62.5 16.5t-54 16.5t-53.5 7.5q-17 0 -34.5 -10
t-17.5 -38h-134q0 48 20 79t51.5 48.5t70 24t75.5 6.5q44 0 80 -7.5t66 -17t55.5 -17t49.5 -7.5q9 0 19.5 2t19.5 8t15 16.5t6 26.5h131z" />
    <glyph glyph-name="Odieresis" unicode="&#xd6;" 
d="M1015 370q0 62 -23 110t-63 81t-93 50.5t-114 17.5q-66 0 -120.5 -17.5t-93.5 -50.5t-60.5 -81t-21.5 -110q0 -57 19 -105t56 -82.5t92.5 -53.5t128.5 -19q71 0 125.5 19t92 53.5t56.5 82t19 105.5zM1400 370q0 -89 -50 -161t-139.5 -122.5t-214 -78t-273.5 -27.5
q-154 0 -280 27.5t-215.5 78t-138.5 122.5t-49 162q0 93 54 165t146.5 121.5t216 75.5t263.5 26q88 0 172.5 -11t160 -32.5t139.5 -53.5t110 -75.5t72 -97.5t26 -119zM665 877q0 -16 -11.5 -30.5t-31 -25t-45.5 -16.5t-56 -6t-56.5 6t-46 16.5t-30.5 25t-11 30.5t11 30.5
t30.5 25t46 16.5t56.5 6t56 -6t45.5 -16.5t31 -25t11.5 -30.5zM1055 877q0 -16 -11.5 -30.5t-31 -25t-45.5 -16.5t-56 -6t-56.5 6t-46 16.5t-30.5 25t-11 30.5t11 30.5t30.5 25t46 16.5t56.5 6t56 -6t45.5 -16.5t31 -25t11.5 -30.5z" />
    <glyph glyph-name="multiply" unicode="&#xd7;" horiz-adv-x="670" 
d="M448 324l143 -127l-113 -100l-143 128l-143 -128l-112 99l143 128l-144 129l113 101l144 -130l144 130l112 -100z" />
    <glyph glyph-name="Oslash" unicode="&#xd8;" 
d="M1015 370q0 34 -7 63t-20 55l-469 -320q37 -28 87.5 -43t115.5 -15q71 0 125.5 19t92 53.5t56.5 82t19 105.5zM902 581q-38 24 -83.5 36t-96.5 12q-66 0 -120.5 -17.5t-93.5 -50.5t-60.5 -81t-21.5 -110q0 -58 18 -104zM1400 370q0 -89 -50 -161t-139.5 -122.5t-214 -78
t-273.5 -27.5q-114 0 -212 15t-179 44l-162 -111l-77 95l111 77q-79 51 -121.5 118.5t-42.5 151.5q0 93 54 165t146.5 121.5t216 75.5t263.5 26q98 0 191 -13.5t174 -39.5l149 103l78 -99l-92 -63q83 -48 131.5 -117t48.5 -160z" />
    <glyph glyph-name="Ugrave" unicode="&#xd9;" horiz-adv-x="1539" 
d="M1327 606v-342q0 -63 -27.5 -115t-89.5 -89t-161.5 -57.5t-242.5 -20.5q-303 0 -449 73t-146 209v342h-181v133h714v-133h-171v-323q0 -95 64.5 -132.5t186.5 -37.5q56 0 102.5 10t79.5 30t51 50.5t18 71.5v331h-172v133h606v-133h-182zM721 805l-192 68
q-26 9 -39.5 27.5t-13.5 42.5q0 32 23 46.5t58 14.5q32 0 56.5 -12t41.5 -23l257 -164h-191z" />
    <glyph glyph-name="Uacute" unicode="&#xda;" horiz-adv-x="1539" 
d="M1327 606v-342q0 -63 -27.5 -115t-89.5 -89t-161.5 -57.5t-242.5 -20.5q-303 0 -449 73t-146 209v342h-181v133h714v-133h-171v-323q0 -95 64.5 -132.5t186.5 -37.5q56 0 102.5 10t79.5 30t51 50.5t18 71.5v331h-172v133h606v-133h-182zM1169 943q0 -24 -13.5 -42.5
t-39.5 -27.5l-192 -68h-191l257 164q17 11 41.5 23t56.5 12q35 0 58 -14.5t23 -46.5z" />
    <glyph glyph-name="Ucircumflex" unicode="&#xdb;" horiz-adv-x="1539" 
d="M1327 606v-342q0 -63 -27.5 -115t-89.5 -89t-161.5 -57.5t-242.5 -20.5q-303 0 -449 73t-146 209v342h-181v133h714v-133h-171v-323q0 -95 64.5 -132.5t186.5 -37.5q56 0 102.5 10t79.5 30t51 50.5t18 71.5v331h-172v133h606v-133h-182zM957 805l-140 64l-143 -64h-201
l274 181h137l281 -181h-208z" />
    <glyph glyph-name="Udieresis" unicode="&#xdc;" horiz-adv-x="1539" 
d="M1327 606v-342q0 -63 -27.5 -115t-89.5 -89t-161.5 -57.5t-242.5 -20.5q-303 0 -449 73t-146 209v342h-181v133h714v-133h-171v-323q0 -95 64.5 -132.5t186.5 -37.5q56 0 102.5 10t79.5 30t51 50.5t18 71.5v331h-172v133h606v-133h-182zM774 877q0 -16 -11.5 -30.5
t-31 -25t-45.5 -16.5t-56 -6t-56.5 6t-46 16.5t-30.5 25t-11 30.5t11 30.5t30.5 25t46 16.5t56.5 6t56 -6t45.5 -16.5t31 -25t11.5 -30.5zM1164 877q0 -16 -11.5 -30.5t-31 -25t-45.5 -16.5t-56 -6t-56.5 6t-46 16.5t-30.5 25t-11 30.5t11 30.5t30.5 25t46 16.5t56.5 6
t56 -6t45.5 -16.5t31 -25t11.5 -30.5z" />
    <glyph glyph-name="Yacute" unicode="&#xdd;" horiz-adv-x="1382" 
d="M1251 606l-368 -338v-136h181v-132h-724v132h181v136l-370 338h-137v133h667v-133h-100l190 -184h5l189 184h-95v133h498v-133h-117zM1117 943q0 -24 -13.5 -42.5t-39.5 -27.5l-192 -68h-191l257 164q17 11 41.5 23t56.5 12q35 0 58 -14.5t23 -46.5z" />
    <glyph glyph-name="Thorn" unicode="&#xde;" horiz-adv-x="1270" 
d="M877 373q0 21 -7.5 35.5t-26.5 24.5t-50.5 14.5t-79.5 4.5h-138v-164h25.5h38h36h19.5q59 0 95 5.5t55.5 16.5t26 27t6.5 36zM1259 378q0 -60 -38 -99.5t-103.5 -62.5t-154.5 -32.5t-191 -9.5h-197v-42h182v-132h-725v132h181v474h-181v133h725v-133h-182v-39h204
q101 0 189 -5.5t152.5 -25t101.5 -57t37 -101.5z" />
    <glyph glyph-name="germandbls" unicode="&#xdf;" horiz-adv-x="1239" 
d="M1209 238q0 -125 -93.5 -187t-292.5 -62q-134 0 -195 29.5t-61 86.5q0 23 5.5 44t13.5 37l181 11v-1q-10 -13 -16 -27.5t-6 -33.5q0 -22 14.5 -32t39.5 -10q15 0 28.5 5.5t23 19.5t15.5 37.5t6 58.5q0 49 -12 80.5t-34 50t-52 26t-66 7.5h-77v125h61q54 0 77 20t23 58
q0 33 -33.5 54t-102.5 21q-74 0 -108 -20t-34 -66v-570h-488v125h146v253h-142v125h142v36q0 62 27 106t86 72.5t151.5 42t223.5 13.5q227 0 337.5 -49t110.5 -132q0 -33 -11.5 -58t-32.5 -43.5t-50 -31.5t-64 -23v-2q43 -4 88.5 -17.5t83.5 -37.5t62.5 -59t24.5 -82z" />
    <glyph glyph-name="agrave" unicode="&#xe0;" horiz-adv-x="1207" 
d="M592 243l-92 -19q-39 -8 -62 -16t-35.5 -17.5t-16.5 -20t-4 -22.5q0 -19 14.5 -28.5t52.5 -9.5q69 0 106 29t37 92v12zM1193 138q0 -38 -16 -66t-52 -46.5t-93.5 -27.5t-139.5 -9q-61 0 -102 6.5t-68.5 18.5t-45.5 27.5t-33 33.5h-1q-25 -18 -53.5 -33.5t-66.5 -27
t-88.5 -18.5t-117.5 -7q-77 0 -132.5 9t-91 26.5t-52 44t-16.5 62.5q0 38 24 64.5t75 47.5t130.5 38.5t190.5 36.5l150 26v6q0 13 -4.5 25t-15.5 20t-30.5 13t-50.5 5q-81 0 -112 -12.5t-31 -30.5q0 -12 4.5 -20.5t10.5 -16.5l-262 -38q-9 12 -15.5 31t-6.5 47q0 37 31.5 65
t89.5 46t138.5 27t178.5 9q217 0 320 -43.5t103 -139.5v-197q0 -16 8 -25t28 -9q39 0 39 46q0 14 -4 31t-9 26v1l176 -9q4 -6 8.5 -26t4.5 -37zM442 587l-192 68q-26 9 -39.5 27.5t-13.5 42.5q0 32 23 46.5t58 14.5q32 0 56.5 -12t41.5 -23l257 -164h-191z" />
    <glyph glyph-name="aacute" unicode="&#xe1;" horiz-adv-x="1207" 
d="M592 243l-92 -19q-39 -8 -62 -16t-35.5 -17.5t-16.5 -20t-4 -22.5q0 -19 14.5 -28.5t52.5 -9.5q69 0 106 29t37 92v12zM1193 138q0 -38 -16 -66t-52 -46.5t-93.5 -27.5t-139.5 -9q-61 0 -102 6.5t-68.5 18.5t-45.5 27.5t-33 33.5h-1q-25 -18 -53.5 -33.5t-66.5 -27
t-88.5 -18.5t-117.5 -7q-77 0 -132.5 9t-91 26.5t-52 44t-16.5 62.5q0 38 24 64.5t75 47.5t130.5 38.5t190.5 36.5l150 26v6q0 13 -4.5 25t-15.5 20t-30.5 13t-50.5 5q-81 0 -112 -12.5t-31 -30.5q0 -12 4.5 -20.5t10.5 -16.5l-262 -38q-9 12 -15.5 31t-6.5 47q0 37 31.5 65
t89.5 46t138.5 27t178.5 9q217 0 320 -43.5t103 -139.5v-197q0 -16 8 -25t28 -9q39 0 39 46q0 14 -4 31t-9 26v1l176 -9q4 -6 8.5 -26t4.5 -37zM876 725q0 -24 -13.5 -42.5t-39.5 -27.5l-192 -68h-191l257 164q17 11 41.5 23t56.5 12q35 0 58 -14.5t23 -46.5z" />
    <glyph glyph-name="acircumflex" unicode="&#xe2;" horiz-adv-x="1207" 
d="M592 243l-92 -19q-39 -8 -62 -16t-35.5 -17.5t-16.5 -20t-4 -22.5q0 -19 14.5 -28.5t52.5 -9.5q69 0 106 29t37 92v12zM1193 138q0 -38 -16 -66t-52 -46.5t-93.5 -27.5t-139.5 -9q-61 0 -102 6.5t-68.5 18.5t-45.5 27.5t-33 33.5h-1q-25 -18 -53.5 -33.5t-66.5 -27
t-88.5 -18.5t-117.5 -7q-77 0 -132.5 9t-91 26.5t-52 44t-16.5 62.5q0 38 24 64.5t75 47.5t130.5 38.5t190.5 36.5l150 26v6q0 13 -4.5 25t-15.5 20t-30.5 13t-50.5 5q-81 0 -112 -12.5t-31 -30.5q0 -12 4.5 -20.5t10.5 -16.5l-262 -38q-9 12 -15.5 31t-6.5 47q0 37 31.5 65
t89.5 46t138.5 27t178.5 9q217 0 320 -43.5t103 -139.5v-197q0 -16 8 -25t28 -9q39 0 39 46q0 14 -4 31t-9 26v1l176 -9q4 -6 8.5 -26t4.5 -37zM666 587l-140 64l-143 -64h-201l274 181h137l281 -181h-208z" />
    <glyph glyph-name="atilde" unicode="&#xe3;" horiz-adv-x="1207" 
d="M592 243l-92 -19q-39 -8 -62 -16t-35.5 -17.5t-16.5 -20t-4 -22.5q0 -19 14.5 -28.5t52.5 -9.5q69 0 106 29t37 92v12zM1193 138q0 -38 -16 -66t-52 -46.5t-93.5 -27.5t-139.5 -9q-61 0 -102 6.5t-68.5 18.5t-45.5 27.5t-33 33.5h-1q-25 -18 -53.5 -33.5t-66.5 -27
t-88.5 -18.5t-117.5 -7q-77 0 -132.5 9t-91 26.5t-52 44t-16.5 62.5q0 38 24 64.5t75 47.5t130.5 38.5t190.5 36.5l150 26v6q0 13 -4.5 25t-15.5 20t-30.5 13t-50.5 5q-81 0 -112 -12.5t-31 -30.5q0 -12 4.5 -20.5t10.5 -16.5l-262 -38q-9 12 -15.5 31t-6.5 47q0 37 31.5 65
t89.5 46t138.5 27t178.5 9q217 0 320 -43.5t103 -139.5v-197q0 -16 8 -25t28 -9q39 0 39 46q0 14 -4 31t-9 26v1l176 -9q4 -6 8.5 -26t4.5 -37zM857 750q0 -83 -58 -122.5t-167 -39.5q-44 0 -78 7.5t-62.5 16.5t-54 16.5t-53.5 7.5q-17 0 -34.5 -10t-17.5 -38h-134
q0 48 20 79t51.5 48.5t70 24t75.5 6.5q44 0 80 -7.5t66 -17t55.5 -17t49.5 -7.5q9 0 19.5 2t19.5 8t15 16.5t6 26.5h131z" />
    <glyph glyph-name="adieresis" unicode="&#xe4;" horiz-adv-x="1207" 
d="M592 243l-92 -19q-39 -8 -62 -16t-35.5 -17.5t-16.5 -20t-4 -22.5q0 -19 14.5 -28.5t52.5 -9.5q69 0 106 29t37 92v12zM1193 138q0 -38 -16 -66t-52 -46.5t-93.5 -27.5t-139.5 -9q-61 0 -102 6.5t-68.5 18.5t-45.5 27.5t-33 33.5h-1q-25 -18 -53.5 -33.5t-66.5 -27
t-88.5 -18.5t-117.5 -7q-77 0 -132.5 9t-91 26.5t-52 44t-16.5 62.5q0 38 24 64.5t75 47.5t130.5 38.5t190.5 36.5l150 26v6q0 13 -4.5 25t-15.5 20t-30.5 13t-50.5 5q-81 0 -112 -12.5t-31 -30.5q0 -12 4.5 -20.5t10.5 -16.5l-262 -38q-9 12 -15.5 31t-6.5 47q0 37 31.5 65
t89.5 46t138.5 27t178.5 9q217 0 320 -43.5t103 -139.5v-197q0 -16 8 -25t28 -9q39 0 39 46q0 14 -4 31t-9 26v1l176 -9q4 -6 8.5 -26t4.5 -37zM467 664q0 -16 -11.5 -30.5t-31 -25t-45.5 -16.5t-56 -6t-56.5 6t-46 16.5t-30.5 25t-11 30.5t11 30.5t30.5 25t46 16.5t56.5 6
t56 -6t45.5 -16.5t31 -25t11.5 -30.5zM857 664q0 -16 -11.5 -30.5t-31 -25t-45.5 -16.5t-56 -6t-56.5 6t-46 16.5t-30.5 25t-11 30.5t11 30.5t30.5 25t46 16.5t56.5 6t56 -6t45.5 -16.5t31 -25t11.5 -30.5z" />
    <glyph glyph-name="aring" unicode="&#xe5;" horiz-adv-x="1207" 
d="M592 243l-92 -19q-39 -8 -62 -16t-35.5 -17.5t-16.5 -20t-4 -22.5q0 -19 14.5 -28.5t52.5 -9.5q69 0 106 29t37 92v12zM628 691q0 22 -25.5 36.5t-60.5 14.5q-17 0 -33 -4t-28 -11t-19.5 -16.5t-7.5 -19.5q0 -20 25 -35t63 -15q35 0 60.5 14.5t25.5 35.5zM1193 138
q0 -38 -16 -66t-52 -46.5t-93.5 -27.5t-139.5 -9q-61 0 -102 6.5t-68.5 18.5t-45.5 27.5t-33 33.5h-1q-25 -18 -53.5 -33.5t-66.5 -27t-88.5 -18.5t-117.5 -7q-77 0 -132.5 9t-91 26.5t-52 44t-16.5 62.5q0 38 24 64.5t75 47.5t130.5 38.5t190.5 36.5l150 26v6q0 13 -4.5 25
t-15.5 20t-30.5 13t-50.5 5q-81 0 -112 -12.5t-31 -30.5q0 -12 4.5 -20.5t10.5 -16.5l-262 -38q-9 12 -15.5 31t-6.5 47q0 37 31.5 65t89.5 46t138.5 27t178.5 9q217 0 320 -43.5t103 -139.5v-197q0 -16 8 -25t28 -9q39 0 39 46q0 14 -4 31t-9 26v1l176 -9q4 -6 8.5 -26
t4.5 -37zM730 691q0 -22 -14.5 -41t-40 -33.5t-59.5 -22.5t-74 -8t-74.5 8t-60 22.5t-40 33.5t-14.5 41t14.5 41t40 32.5t60 21.5t74.5 8t74 -8t59.5 -21.5t40 -32.5t14.5 -41z" />
    <glyph glyph-name="ae" unicode="&#xe6;" horiz-adv-x="1546" 
d="M597 243l-120 -24q-50 -10 -76 -26.5t-26 -45.5q0 -17 15 -27t53 -10q67 0 110.5 28.5t43.5 91.5v13zM1186 316q-5 43 -37.5 68.5t-90.5 25.5q-52 0 -88.5 -26t-40.5 -68h257zM1508 174q-11 -59 -44.5 -96t-86 -58t-123 -28.5t-155.5 -7.5q-160 0 -266.5 25t-164.5 67
q-23 -17 -55 -32.5t-75.5 -27.5t-98.5 -19.5t-124 -7.5q-139 0 -215 32t-76 109q0 42 30 71.5t82 50.5t123 36t152 29l188 31v10q0 24 -22.5 39.5t-85.5 15.5q-44 0 -73 -4t-46 -10.5t-23.5 -14.5t-6.5 -15q0 -11 3.5 -18.5t11.5 -17.5l-253 -38q-11 14 -17 31t-6 46
q0 38 32 66t89.5 46t138.5 27t179 9q64 0 109 -2.5t76.5 -7.5t53.5 -11.5t42 -14.5q15 6 41.5 12.5t60.5 12t74 9t84 3.5q118 0 202.5 -19t138.5 -52.5t79 -79.5t25 -100v-52h-582q3 -26 12 -48.5t27 -39.5t48 -27t75 -10t76 7t51.5 20.5t31.5 32t16 42.5z" />
    <glyph glyph-name="ccedilla" unicode="&#xe7;" horiz-adv-x="993" 
d="M955 203q0 -44 -20.5 -82.5t-64.5 -67.5t-112 -47t-163 -22l-22 -26q75 -9 105 -29t30 -49q0 -19 -10.5 -33.5t-36.5 -24.5t-69.5 -15t-108.5 -5q-10 0 -24 0.5t-27.5 2t-25.5 2.5t-19 3v55q14 -2 34.5 -5.5t37.5 -3.5q32 0 45.5 6t13.5 17q0 5 -3.5 10t-15 8.5t-32.5 6
t-56 2.5l64 78q-96 4 -177 23.5t-139.5 53t-91.5 81t-33 109.5q0 71 41.5 122t112 84t163 48.5t194.5 15.5q98 0 174 -11t128.5 -31.5t80 -50t27.5 -66.5q0 -23 -3 -39t-6 -31l-286 -17v2q5 10 9 27.5t4 34.5q0 35 -27.5 53t-100.5 18q-33 0 -61.5 -8.5t-49.5 -28t-33 -50
t-12 -73.5q0 -38 11.5 -67.5t32 -49.5t48.5 -30t60 -10q40 0 72 6.5t54.5 22t34.5 40.5t12 62z" />
    <glyph glyph-name="egrave" unicode="&#xe8;" horiz-adv-x="1014" 
d="M654 316q-4 42 -36.5 68t-94.5 26q-50 0 -84 -24t-42 -70h257zM976 175q-11 -52 -38 -88.5t-77 -59t-127 -33t-186 -10.5q-126 0 -222 19.5t-161 54.5t-98 83.5t-33 106.5t36.5 108t102 86.5t156.5 57.5t200 21q115 0 199 -18.5t139 -51.5t81 -78.5t26 -99.5v-55h-582
q3 -27 13 -50t28.5 -39.5t46.5 -26t68 -9.5q86 0 129.5 24.5t51.5 77.5zM442 587l-192 68q-26 9 -39.5 27.5t-13.5 42.5q0 32 23 46.5t58 14.5q32 0 56.5 -12t41.5 -23l257 -164h-191z" />
    <glyph glyph-name="eacute" unicode="&#xe9;" horiz-adv-x="1014" 
d="M654 316q-4 42 -36.5 68t-94.5 26q-50 0 -84 -24t-42 -70h257zM976 175q-11 -52 -38 -88.5t-77 -59t-127 -33t-186 -10.5q-126 0 -222 19.5t-161 54.5t-98 83.5t-33 106.5t36.5 108t102 86.5t156.5 57.5t200 21q115 0 199 -18.5t139 -51.5t81 -78.5t26 -99.5v-55h-582
q3 -27 13 -50t28.5 -39.5t46.5 -26t68 -9.5q86 0 129.5 24.5t51.5 77.5zM876 725q0 -24 -13.5 -42.5t-39.5 -27.5l-192 -68h-191l257 164q17 11 41.5 23t56.5 12q35 0 58 -14.5t23 -46.5z" />
    <glyph glyph-name="ecircumflex" unicode="&#xea;" horiz-adv-x="1014" 
d="M654 316q-4 42 -36.5 68t-94.5 26q-50 0 -84 -24t-42 -70h257zM976 175q-11 -52 -38 -88.5t-77 -59t-127 -33t-186 -10.5q-126 0 -222 19.5t-161 54.5t-98 83.5t-33 106.5t36.5 108t102 86.5t156.5 57.5t200 21q115 0 199 -18.5t139 -51.5t81 -78.5t26 -99.5v-55h-582
q3 -27 13 -50t28.5 -39.5t46.5 -26t68 -9.5q86 0 129.5 24.5t51.5 77.5zM685 587l-140 64l-143 -64h-201l274 181h137l281 -181h-208z" />
    <glyph glyph-name="edieresis" unicode="&#xeb;" horiz-adv-x="1014" 
d="M654 316q-4 42 -36.5 68t-94.5 26q-50 0 -84 -24t-42 -70h257zM976 175q-11 -52 -38 -88.5t-77 -59t-127 -33t-186 -10.5q-126 0 -222 19.5t-161 54.5t-98 83.5t-33 106.5t36.5 108t102 86.5t156.5 57.5t200 21q115 0 199 -18.5t139 -51.5t81 -78.5t26 -99.5v-55h-582
q3 -27 13 -50t28.5 -39.5t46.5 -26t68 -9.5q86 0 129.5 24.5t51.5 77.5zM477 664q0 -16 -11.5 -30.5t-31 -25t-45.5 -16.5t-56 -6t-56.5 6t-46 16.5t-30.5 25t-11 30.5t11 30.5t30.5 25t46 16.5t56.5 6t56 -6t45.5 -16.5t31 -25t11.5 -30.5zM867 664q0 -16 -11.5 -30.5
t-31 -25t-45.5 -16.5t-56 -6t-56.5 6t-46 16.5t-30.5 25t-11 30.5t11 30.5t30.5 25t46 16.5t56.5 6t56 -6t45.5 -16.5t31 -25t11.5 -30.5z" />
    <glyph glyph-name="igrave" unicode="&#xec;" horiz-adv-x="683" 
d="M26 0v125h145v255h-145v120l489 32v-407h144v-125h-633zM322 587l-192 68q-26 9 -39.5 27.5t-13.5 42.5q0 32 23 46.5t58 14.5q32 0 56.5 -12t41.5 -23l257 -164h-191z" />
    <glyph glyph-name="iacute" unicode="&#xed;" horiz-adv-x="683" 
d="M26 0v125h145v255h-145v120l489 32v-407h144v-125h-633zM610 725q0 -24 -13.5 -42.5t-39.5 -27.5l-192 -68h-191l257 164q17 11 41.5 23t56.5 12q35 0 58 -14.5t23 -46.5z" />
    <glyph glyph-name="icircumflex" unicode="&#xee;" horiz-adv-x="683" 
d="M26 0v125h145v255h-145v120l489 32v-407h144v-125h-633zM479 587l-140 64l-143 -64h-201l274 181h137l281 -181h-208z" />
    <glyph glyph-name="idieresis" unicode="&#xef;" horiz-adv-x="683" 
d="M26 0v125h145v255h-145v120l489 32v-407h144v-125h-633zM288 664q0 -16 -11.5 -30.5t-31 -25t-45.5 -16.5t-56 -6t-56.5 6t-46 16.5t-30.5 25t-11 30.5t11 30.5t30.5 25t46 16.5t56.5 6t56 -6t45.5 -16.5t31 -25t11.5 -30.5zM678 664q0 -16 -11.5 -30.5t-31 -25
t-45.5 -16.5t-56 -6t-56.5 6t-46 16.5t-30.5 25t-11 30.5t11 30.5t30.5 25t46 16.5t56.5 6t56 -6t45.5 -16.5t31 -25t11.5 -30.5z" />
    <glyph glyph-name="eth" unicode="&#xf0;" horiz-adv-x="1079" 
d="M694 253q0 36 -12 63.5t-33 46t-49 27.5t-60 9q-34 0 -62.5 -10t-49.5 -29t-32.5 -46t-11.5 -61q0 -35 12.5 -62.5t34 -47t49.5 -30t59 -10.5q30 0 58 9.5t49.5 28.5t34.5 47t13 65zM1049 286q0 -149 -129.5 -226t-379.5 -77q-118 0 -212.5 18.5t-160.5 53t-101.5 85
t-35.5 113.5t35 113t102.5 84.5t165 53t223.5 18.5q-6 6 -19 15t-26.5 18.5t-26.5 17.5t-19 11l-124 -41l-67 69l104 34q-23 15 -46.5 29.5t-52.5 28.5l215 63q17 -7 30.5 -13t25.5 -11.5l24 -11t27 -11.5l142 47l76 -62l-123 -44q73 -41 137.5 -83t112.5 -87t75.5 -95.5
t27.5 -109.5z" />
    <glyph glyph-name="ntilde" unicode="&#xf1;" horiz-adv-x="1228" 
d="M648 0v125h71v192q0 29 -15.5 41.5t-50.5 12.5q-38 0 -72 -17.5t-65 -47.5v-181h75v-125h-563v125h144v255h-146v120l475 32v-91h3q21 15 51 29t65.5 25.5t75 18.5t79.5 7q146 0 217 -37t71 -129v-230h141v-125h-556zM948 750q0 -83 -58 -122.5t-167 -39.5q-44 0 -78 7.5
t-62.5 16.5t-54 16.5t-53.5 7.5q-17 0 -34.5 -10t-17.5 -38h-134q0 48 20 79t51.5 48.5t70 24t75.5 6.5q44 0 80 -7.5t66 -17t55.5 -17t49.5 -7.5q9 0 19.5 2t19.5 8t15 16.5t6 26.5h131z" />
    <glyph glyph-name="ograve" unicode="&#xf2;" horiz-adv-x="1088" 
d="M699 253q0 36 -12 63.5t-33 46t-49 27.5t-60 9q-34 0 -62.5 -10t-49.5 -29t-32.5 -46t-11.5 -61q0 -35 12.5 -62.5t34 -47t49.5 -30t59 -10.5q30 0 58 9.5t49.5 28.5t34.5 47t13 65zM1054 253q0 -67 -39 -117.5t-108 -84.5t-162 -51t-201 -17t-201.5 17t-162 50.5
t-107.5 84t-39 118.5q0 64 38 114t106 84t161.5 52t205.5 18q111 0 204.5 -18t161 -52t105.5 -84t38 -114zM442 587l-192 68q-26 9 -39.5 27.5t-13.5 42.5q0 32 23 46.5t58 14.5q32 0 56.5 -12t41.5 -23l257 -164h-191z" />
    <glyph glyph-name="oacute" unicode="&#xf3;" horiz-adv-x="1088" 
d="M699 253q0 36 -12 63.5t-33 46t-49 27.5t-60 9q-34 0 -62.5 -10t-49.5 -29t-32.5 -46t-11.5 -61q0 -35 12.5 -62.5t34 -47t49.5 -30t59 -10.5q30 0 58 9.5t49.5 28.5t34.5 47t13 65zM1054 253q0 -67 -39 -117.5t-108 -84.5t-162 -51t-201 -17t-201.5 17t-162 50.5
t-107.5 84t-39 118.5q0 64 38 114t106 84t161.5 52t205.5 18q111 0 204.5 -18t161 -52t105.5 -84t38 -114zM876 725q0 -24 -13.5 -42.5t-39.5 -27.5l-192 -68h-191l257 164q17 11 41.5 23t56.5 12q35 0 58 -14.5t23 -46.5z" />
    <glyph glyph-name="ocircumflex" unicode="&#xf4;" horiz-adv-x="1088" 
d="M699 253q0 36 -12 63.5t-33 46t-49 27.5t-60 9q-34 0 -62.5 -10t-49.5 -29t-32.5 -46t-11.5 -61q0 -35 12.5 -62.5t34 -47t49.5 -30t59 -10.5q30 0 58 9.5t49.5 28.5t34.5 47t13 65zM1054 253q0 -67 -39 -117.5t-108 -84.5t-162 -51t-201 -17t-201.5 17t-162 50.5
t-107.5 84t-39 118.5q0 64 38 114t106 84t161.5 52t205.5 18q111 0 204.5 -18t161 -52t105.5 -84t38 -114zM685 587l-140 64l-143 -64h-201l274 181h137l281 -181h-208z" />
    <glyph glyph-name="otilde" unicode="&#xf5;" horiz-adv-x="1088" 
d="M699 253q0 36 -12 63.5t-33 46t-49 27.5t-60 9q-34 0 -62.5 -10t-49.5 -29t-32.5 -46t-11.5 -61q0 -35 12.5 -62.5t34 -47t49.5 -30t59 -10.5q30 0 58 9.5t49.5 28.5t34.5 47t13 65zM1054 253q0 -67 -39 -117.5t-108 -84.5t-162 -51t-201 -17t-201.5 17t-162 50.5
t-107.5 84t-39 118.5q0 64 38 114t106 84t161.5 52t205.5 18q111 0 204.5 -18t161 -52t105.5 -84t38 -114zM870 750q0 -83 -58 -122.5t-167 -39.5q-44 0 -78 7.5t-62.5 16.5t-54 16.5t-53.5 7.5q-17 0 -34.5 -10t-17.5 -38h-134q0 48 20 79t51.5 48.5t70 24t75.5 6.5
q44 0 80 -7.5t66 -17t55.5 -17t49.5 -7.5q9 0 19.5 2t19.5 8t15 16.5t6 26.5h131z" />
    <glyph glyph-name="odieresis" unicode="&#xf6;" horiz-adv-x="1088" 
d="M699 253q0 36 -12 63.5t-33 46t-49 27.5t-60 9q-34 0 -62.5 -10t-49.5 -29t-32.5 -46t-11.5 -61q0 -35 12.5 -62.5t34 -47t49.5 -30t59 -10.5q30 0 58 9.5t49.5 28.5t34.5 47t13 65zM1054 253q0 -67 -39 -117.5t-108 -84.5t-162 -51t-201 -17t-201.5 17t-162 50.5
t-107.5 84t-39 118.5q0 64 38 114t106 84t161.5 52t205.5 18q111 0 204.5 -18t161 -52t105.5 -84t38 -114zM489 664q0 -16 -11.5 -30.5t-31 -25t-45.5 -16.5t-56 -6t-56.5 6t-46 16.5t-30.5 25t-11 30.5t11 30.5t30.5 25t46 16.5t56.5 6t56 -6t45.5 -16.5t31 -25t11.5 -30.5
zM879 664q0 -16 -11.5 -30.5t-31 -25t-45.5 -16.5t-56 -6t-56.5 6t-46 16.5t-30.5 25t-11 30.5t11 30.5t30.5 25t46 16.5t56.5 6t56 -6t45.5 -16.5t31 -25t11.5 -30.5z" />
    <glyph glyph-name="divide" unicode="&#xf7;" horiz-adv-x="670" 
d="M471 97q0 -18 -10.5 -33t-28.5 -26t-42.5 -17.5t-52.5 -6.5q-29 0 -53.5 6.5t-42.5 17.5t-28 26t-10 33q0 17 10 32.5t28 27.5t42.5 19t53.5 7q28 0 52.5 -7t42.5 -19t28.5 -27.5t10.5 -32.5zM58 234v157h554v-157h-554zM471 525q0 -18 -10.5 -33t-28.5 -26.5t-42.5 -18
t-52.5 -6.5q-29 0 -53.5 6.5t-42.5 18t-28 26.5t-10 33q0 17 10 32.5t28 27t42.5 18.5t53.5 7q28 0 52.5 -7t42.5 -18.5t28.5 -27t10.5 -32.5z" />
    <glyph glyph-name="oslash" unicode="&#xf8;" horiz-adv-x="1059" 
d="M670 253q0 5 -0.5 10t-0.5 10l-227 -153q34 -27 87 -27q30 0 56 9.5t44.5 29t29.5 50t11 71.5zM631 374q-18 19 -43.5 27.5t-57.5 8.5q-68 0 -104.5 -38t-36.5 -119q0 -22 3 -40zM1025 253q0 -67 -37 -117.5t-103 -84.5t-157 -51t-199 -17q-70 0 -132.5 7t-116.5 21
l-108 -73l-69 79l59 40q-61 34 -94.5 82.5t-33.5 113.5q0 64 35.5 114t100.5 84t156.5 52t203.5 18q77 0 144 -8.5t124 -25.5l125 85l66 -83l-76 -52q54 -34 83 -80t29 -104z" />
    <glyph glyph-name="ugrave" unicode="&#xf9;" horiz-adv-x="1221" 
d="M734 -12v75h-3q-22 -14 -53 -27t-69 -23.5t-81 -17t-89 -6.5q-80 0 -133 10.5t-84.5 32.5t-45 55t-13.5 77v216h-145v120l489 32v-341q0 -32 19 -47t54 -15q33 0 67 14t63 40v197h-114v120l457 32v-407h144v-125zM506 587l-192 68q-26 9 -39.5 27.5t-13.5 42.5
q0 32 23 46.5t58 14.5q32 0 56.5 -12t41.5 -23l257 -164h-191z" />
    <glyph glyph-name="uacute" unicode="&#xfa;" horiz-adv-x="1221" 
d="M734 -12v75h-3q-22 -14 -53 -27t-69 -23.5t-81 -17t-89 -6.5q-80 0 -133 10.5t-84.5 32.5t-45 55t-13.5 77v216h-145v120l489 32v-341q0 -32 19 -47t54 -15q33 0 67 14t63 40v197h-114v120l457 32v-407h144v-125zM945 725q0 -24 -13.5 -42.5t-39.5 -27.5l-192 -68h-191
l257 164q17 11 41.5 23t56.5 12q35 0 58 -14.5t23 -46.5z" />
    <glyph glyph-name="ucircumflex" unicode="&#xfb;" horiz-adv-x="1221" 
d="M734 -12v75h-3q-22 -14 -53 -27t-69 -23.5t-81 -17t-89 -6.5q-80 0 -133 10.5t-84.5 32.5t-45 55t-13.5 77v216h-145v120l489 32v-341q0 -32 19 -47t54 -15q33 0 67 14t63 40v197h-114v120l457 32v-407h144v-125zM736 587l-140 64l-143 -64h-201l274 181h137l281 -181
h-208z" />
    <glyph glyph-name="udieresis" unicode="&#xfc;" horiz-adv-x="1221" 
d="M734 -12v75h-3q-22 -14 -53 -27t-69 -23.5t-81 -17t-89 -6.5q-80 0 -133 10.5t-84.5 32.5t-45 55t-13.5 77v216h-145v120l489 32v-341q0 -32 19 -47t54 -15q33 0 67 14t63 40v197h-114v120l457 32v-407h144v-125zM542 664q0 -16 -11.5 -30.5t-31 -25t-45.5 -16.5t-56 -6
t-56.5 6t-46 16.5t-30.5 25t-11 30.5t11 30.5t30.5 25t46 16.5t56.5 6t56 -6t45.5 -16.5t31 -25t11.5 -30.5zM932 664q0 -16 -11.5 -30.5t-31 -25t-45.5 -16.5t-56 -6t-56.5 6t-46 16.5t-30.5 25t-11 30.5t11 30.5t30.5 25t46 16.5t56.5 6t56 -6t45.5 -16.5t31 -25
t11.5 -30.5z" />
    <glyph glyph-name="yacute" unicode="&#xfd;" horiz-adv-x="1074" 
d="M971 378l-290 -382q-41 -54 -78.5 -92t-81 -61t-99 -33.5t-133.5 -10.5q-69 0 -117 6t-79 20t-45 36t-14 54q0 23 4.5 37t6.5 21l216 13v-2q-4 -7 -6.5 -15t-2.5 -22q0 -18 11 -25.5t29 -7.5q10 0 18.5 1.5t17.5 6.5t19.5 14.5t22.5 26.5l19 26l-280 389h-97v125h533
v-125h-74l122 -204h5l134 204h-70v125h400v-125h-91zM938 725q0 -24 -13.5 -42.5t-39.5 -27.5l-192 -68h-191l257 164q17 11 41.5 23t56.5 12q35 0 58 -14.5t23 -46.5z" />
    <glyph glyph-name="thorn" unicode="&#xfe;" horiz-adv-x="1209" 
d="M823 252q0 39 -14 67t-36 45.5t-49.5 26t-55.5 8.5q-30 0 -57.5 -10.5t-49 -30t-34.5 -47.5t-13 -64q0 -70 42.5 -107t112.5 -37q32 0 60 9.5t49 28.5t33 47t12 64zM1179 256q0 -66 -35.5 -117t-97 -85.5t-144.5 -52.5t-179 -18q-43 0 -77.5 4.5t-60 10.5t-42 12t-22.5 9
h-5v-88h149v-126h-625v126h132v679h-146v120l487 33v-302h3q42 22 103.5 41t142.5 19q202 0 309.5 -69t107.5 -196z" />
    <glyph glyph-name="ydieresis" unicode="&#xff;" horiz-adv-x="1074" 
d="M971 378l-290 -382q-41 -54 -78.5 -92t-81 -61t-99 -33.5t-133.5 -10.5q-69 0 -117 6t-79 20t-45 36t-14 54q0 23 4.5 37t6.5 21l216 13v-2q-4 -7 -6.5 -15t-2.5 -22q0 -18 11 -25.5t29 -7.5q10 0 18.5 1.5t17.5 6.5t19.5 14.5t22.5 26.5l19 26l-280 389h-97v125h533
v-125h-74l122 -204h5l134 204h-70v125h400v-125h-91zM497 664q0 -16 -11.5 -30.5t-31 -25t-45.5 -16.5t-56 -6t-56.5 6t-46 16.5t-30.5 25t-11 30.5t11 30.5t30.5 25t46 16.5t56.5 6t56 -6t45.5 -16.5t31 -25t11.5 -30.5zM887 664q0 -16 -11.5 -30.5t-31 -25t-45.5 -16.5
t-56 -6t-56.5 6t-46 16.5t-30.5 25t-11 30.5t11 30.5t30.5 25t46 16.5t56.5 6t56 -6t45.5 -16.5t31 -25t11.5 -30.5z" />
    <glyph glyph-name="OE" unicode="&#x152;" horiz-adv-x="2036" 
d="M848 605q-10 4 -44 14t-90 10q-67 0 -121.5 -17.5t-93.5 -50.5t-60 -81t-21 -110q0 -59 19 -107t56 -82t92.5 -52.5t128.5 -18.5q24 0 46 2.5t40.5 6.5t31 7.5t16.5 5.5v473zM949 0q-18 -3 -43 -6.5t-52.5 -6t-57 -4.5t-57.5 -2q-182 0 -315 30.5t-220 83t-129.5 124
t-42.5 152.5q0 89 50.5 160.5t141 122t215 78t271.5 27.5q41 0 74.5 -1.5t62 -4.5t54 -6.5t50.5 -7.5h1011v-312h-260v178h-493v-159h135v106h219v-347h-219v108h-135v-181h514v202h259v-334h-1033z" />
    <glyph glyph-name="oe" unicode="&#x153;" horiz-adv-x="1710" 
d="M699 253q0 36 -12 63.5t-33 46t-49 27.5t-60 9q-34 0 -62.5 -10t-49.5 -29t-32.5 -46t-11.5 -61q0 -35 12.5 -62.5t34 -47t49.5 -30t59 -10.5q30 0 58 9.5t49.5 28.5t34.5 47t13 65zM1349 316q-2 44 -37.5 69t-92.5 25q-47 0 -82.5 -23.5t-42.5 -70.5h255zM1672 175
q-8 -57 -40.5 -94t-87 -58.5t-129 -30t-165.5 -8.5q-120 0 -211.5 17.5t-148.5 41.5q-30 -14 -71.5 -25.5t-88 -19t-93.5 -11.5t-88 -4q-129 0 -225.5 20t-161 56t-96.5 85.5t-32 107.5q0 57 32 106t96 85.5t160 57t224 20.5q116 0 206.5 -18t145.5 -47q22 11 54.5 22.5
t74 21t91.5 15.5t108 6q119 0 203.5 -19.5t138 -53t78 -78.5t24.5 -96v-56h-582q4 -54 41.5 -89.5t111.5 -35.5q84 0 130 22.5t54 79.5z" />
    <glyph glyph-name="Scaron" unicode="&#x160;" horiz-adv-x="1431" 
d="M1381 208q0 -55 -33 -97.5t-109 -71t-198.5 -43.5t-302.5 -15q-97 0 -171 6.5t-131.5 17t-102 25t-81.5 30.5l-42 -60h-160v317h242q10 -60 46 -100t91.5 -64t128 -34.5t156.5 -10.5q69 0 110 4t63 11.5t29 18t7 22.5q0 13 -6.5 22.5t-32.5 19t-78.5 22.5t-145.5 33
l-189 41q-96 21 -168 42t-120 48t-72 63t-24 86q0 51 30 91t100 68.5t184.5 43.5t283.5 15q80 0 143.5 -6t114 -16t88.5 -23.5t67 -27.5l40 53h156v-270h-237q-11 30 -29 59.5t-54 52t-94 36.5t-148 14q-61 0 -98 -4t-57 -11.5t-26.5 -17t-6.5 -20.5q0 -9 4 -16t21 -14
t50.5 -15.5t93.5 -20.5l199 -41q122 -25 210.5 -46.5t146 -49t85 -67t27.5 -100.5zM750 805h-137l-274 181h201l143 -64l140 64h208z" />
    <glyph glyph-name="scaron" unicode="&#x161;" horiz-adv-x="1040" 
d="M1016 160q0 -44 -26 -77t-83.5 -55t-150 -33t-224.5 -11q-66 0 -112 4.5t-80 12t-60 18t-51 22.5l-39 -41h-140v204h194q12 -30 23.5 -52t34.5 -36.5t61.5 -21t104.5 -6.5q79 0 109.5 10t30.5 27q0 7 -6 12.5t-20 10.5t-36.5 10t-56.5 13l-132 29q-75 16 -130.5 30
t-92 31.5t-54.5 41.5t-18 61q0 42 31 72t88.5 49t140 27.5t186.5 8.5q66 0 113.5 -5t80.5 -12.5t55 -16.5t38 -18l27 34h141v-173h-203q-9 21 -18 37.5t-28 27t-53.5 16t-94.5 5.5q-66 0 -89 -9t-23 -22q0 -11 19.5 -17t73.5 -16l199 -38q63 -12 113 -25t85 -30t53.5 -41
t18.5 -58zM586 587h-137l-274 181h201l143 -64l140 64h208z" />
    <glyph glyph-name="Ydieresis" unicode="&#x178;" horiz-adv-x="1382" 
d="M1251 606l-368 -338v-136h181v-132h-724v132h181v136l-370 338h-137v133h667v-133h-100l190 -184h5l189 184h-95v133h498v-133h-117zM666 877q0 -16 -11.5 -30.5t-31 -25t-45.5 -16.5t-56 -6t-56.5 6t-46 16.5t-30.5 25t-11 30.5t11 30.5t30.5 25t46 16.5t56.5 6t56 -6
t45.5 -16.5t31 -25t11.5 -30.5zM1056 877q0 -16 -11.5 -30.5t-31 -25t-45.5 -16.5t-56 -6t-56.5 6t-46 16.5t-30.5 25t-11 30.5t11 30.5t30.5 25t46 16.5t56.5 6t56 -6t45.5 -16.5t31 -25t11.5 -30.5z" />
    <glyph glyph-name="Zcaron" unicode="&#x17d;" horiz-adv-x="1364" 
d="M52 0v86l651 520h-369v-180h-274v313h1214v-87l-642 -520h405v201h275v-333h-1260zM740 805h-137l-274 181h201l143 -64l140 64h208z" />
    <glyph glyph-name="zcaron" unicode="&#x17e;" horiz-adv-x="1085" 
d="M42 0v85q28 19 62.5 41.5t72 46.5t75.5 48.5t74 47.5q84 54 172 109h-211v-97h-234v222h972v-82l-449 -296h230v101h235v-226h-999zM612 587h-137l-274 181h201l143 -64l140 64h208z" />
    <glyph glyph-name="florin" unicode="&#x192;" horiz-adv-x="1088" 
d="M1078 597q0 -38 -25.5 -60.5t-80.5 -22.5q-45 0 -70.5 10.5t-40.5 22.5t-24.5 22.5t-22.5 10.5q-14 0 -27 -8t-21 -41l-26 -119h194l-28 -125h-194q-5 -20 -9 -44t-9 -45q-5 -25 -10 -49q-11 -54 -37 -106t-77 -92.5t-132 -65.5t-201 -25q-54 0 -98 5.5t-74.5 18t-47 33
t-16.5 49.5q0 32 23 54.5t82 22.5q40 0 64.5 -10.5t41 -23.5t27.5 -23.5t23 -10.5q20 0 31 11t19 43l58 258h-126l28 125h126l16 65q10 43 36.5 83t76 71t126.5 50t188 19q123 0 180 -24.5t57 -78.5z" />
    <glyph glyph-name="circumflex" unicode="&#x2c6;" horiz-adv-x="1080" 
d="M685 587l-140 64l-143 -64h-201l274 181h137l281 -181h-208z" />
    <glyph glyph-name="tilde" unicode="&#x2dc;" horiz-adv-x="1080" 
d="M870 750q0 -83 -58 -122.5t-167 -39.5q-44 0 -78 7.5t-62.5 16.5t-54 16.5t-53.5 7.5q-17 0 -34.5 -10t-17.5 -38h-134q0 48 20 79t51.5 48.5t70 24t75.5 6.5q44 0 80 -7.5t66 -17t55.5 -17t49.5 -7.5q9 0 19.5 2t19.5 8t15 16.5t6 26.5h131z" />
    <glyph glyph-name="endash" unicode="&#x2013;" horiz-adv-x="810" 
d="M60 234v157h690v-157h-690z" />
    <glyph glyph-name="emdash" unicode="&#x2014;" horiz-adv-x="1136" 
d="M60 234v157h1016v-157h-1016z" />
    <glyph glyph-name="quoteleft" unicode="&#x2018;" horiz-adv-x="419" 
d="M383 530q0 -24 -13 -43.5t-36.5 -33t-54.5 -20.5t-67 -7q-43 0 -73.5 10t-50 27.5t-29 40.5t-9.5 49q0 71 62.5 127t177.5 94l83 -70q-59 -18 -92 -35.5t-50 -33.5q68 -1 110 -29.5t42 -75.5z" />
    <glyph glyph-name="quoteright" unicode="&#x2019;" horiz-adv-x="419" 
d="M369 631q0 -71 -62.5 -127t-177.5 -94l-83 70q59 18 92 35.5t50 33.5q-68 1 -110 29.5t-42 75.5q0 24 13 43t36.5 32.5t54.5 21t67 7.5q43 0 73.5 -10t50 -27.5t29 -40.5t9.5 -49z" />
    <glyph glyph-name="quotesinglbase" unicode="&#x201a;" horiz-adv-x="419" 
d="M369 65q0 -71 -62.5 -127t-177.5 -94l-83 70q59 18 92 35.5t50 33.5q-68 1 -110 29.5t-42 75.5q0 24 13 43t36.5 32.5t54.5 21t67 7.5q43 0 73.5 -10t50 -27.5t29 -40.5t9.5 -49z" />
    <glyph glyph-name="quotedblleft" unicode="&#x201c;" horiz-adv-x="806" 
d="M383 530q0 -24 -13 -43.5t-36.5 -33t-54.5 -20.5t-67 -7q-43 0 -73.5 10t-50 27.5t-29 40.5t-9.5 49q0 71 62.5 127t177.5 94l83 -70q-59 -18 -92 -35.5t-50 -33.5q68 -1 110 -29.5t42 -75.5zM770 530q0 -24 -13 -43.5t-36.5 -33t-54.5 -20.5t-67 -7q-43 0 -73.5 10
t-50 27.5t-29 40.5t-9.5 49q0 71 62.5 127t177.5 94l83 -70q-59 -18 -92 -35.5t-50 -33.5q68 -1 110 -29.5t42 -75.5z" />
    <glyph glyph-name="quotedblright" unicode="&#x201d;" horiz-adv-x="806" 
d="M369 631q0 -71 -62.5 -127t-177.5 -94l-83 70q59 18 92 35.5t50 33.5q-68 1 -110 29.5t-42 75.5q0 24 13 43t36.5 32.5t54.5 21t67 7.5q43 0 73.5 -10t50 -27.5t29 -40.5t9.5 -49zM756 631q0 -71 -62.5 -127t-177.5 -94l-83 70q59 18 92 35.5t50 33.5q-68 1 -110 29.5
t-42 75.5q0 24 13 43t36.5 32.5t54.5 21t67 7.5q43 0 73.5 -10t50 -27.5t29 -40.5t9.5 -49z" />
    <glyph glyph-name="quotedblbase" unicode="&#x201e;" horiz-adv-x="806" 
d="M369 65q0 -71 -62.5 -127t-177.5 -94l-83 70q59 18 92 35.5t50 33.5q-68 1 -110 29.5t-42 75.5q0 24 13 43t36.5 32.5t54.5 21t67 7.5q43 0 73.5 -10t50 -27.5t29 -40.5t9.5 -49zM756 65q0 -71 -62.5 -127t-177.5 -94l-83 70q59 18 92 35.5t50 33.5q-68 1 -110 29.5
t-42 75.5q0 24 13 43t36.5 32.5t54.5 21t67 7.5q43 0 73.5 -10t50 -27.5t29 -40.5t9.5 -49z" />
    <glyph glyph-name="dagger" unicode="&#x2020;" horiz-adv-x="658" 
d="M528 391l-139 33l41 -105l-59 -419h-83l-59 420l41 104l-141 -33l-89 81l85 74l149 -32l-47 148l103 82l102 -83l-47 -147l149 32l84 -77z" />
    <glyph glyph-name="daggerdbl" unicode="&#x2021;" horiz-adv-x="658" 
d="M531 92l-147 32l47 -146l-102 -83l-104 79l48 149l-148 -31l-85 75l89 80l139 -33l-40 106l41 106l-140 -33l-89 81l85 74l148 -32l-47 148l103 82l102 -83l-47 -147l148 32l83 -77l-89 -78l-137 33l41 -107l-40 -104l134 32l94 -76z" />
    <glyph glyph-name="bullet" unicode="&#x2022;" horiz-adv-x="462" 
d="M402 330q0 -36 -13.5 -67t-36.5 -54t-54 -36.5t-67 -13.5t-67 13.5t-54 36.5t-36.5 54t-13.5 67t13.5 67t36.5 54t54 36.5t67 13.5t67 -13.5t54 -36.5t36.5 -54t13.5 -67z" />
    <glyph glyph-name="ellipsis" unicode="&#x2026;" horiz-adv-x="1275" 
d="M393 90q0 -22 -13 -41t-35.5 -33t-53 -22t-65.5 -8t-65.5 8t-53 22t-35 33t-12.5 41q0 21 12.5 40.5t35 34t53 23t65.5 8.5t65.5 -8.5t53 -23t35.5 -34t13 -40.5zM804 90q0 -22 -13 -41t-35.5 -33t-53 -22t-65.5 -8t-65.5 8t-53 22t-35 33t-12.5 41q0 21 12.5 40.5t35 34
t53 23t65.5 8.5t65.5 -8.5t53 -23t35.5 -34t13 -40.5zM1215 90q0 -22 -13 -41t-35.5 -33t-53 -22t-65.5 -8t-65.5 8t-53 22t-35 33t-12.5 41q0 21 12.5 40.5t35 34t53 23t65.5 8.5t65.5 -8.5t53 -23t35.5 -34t13 -40.5z" />
    <glyph glyph-name="perthousand" unicode="&#x2030;" horiz-adv-x="2276" 
d="M453 496q0 34 -8 55.5t-20.5 33.5t-27 16t-27.5 4q-15 0 -30 -4t-26.5 -16t-19 -33.5t-7.5 -55.5q0 -33 7.5 -54t19 -33t26 -16.5t28.5 -4.5q15 0 30 4.5t27.5 16.5t20 33t7.5 54zM1280 193q0 34 -8 55.5t-20.5 33.5t-27 16t-27.5 4q-15 0 -30 -4t-26.5 -16t-19 -33.5
t-7.5 -55.5q0 -33 7.5 -54t19 -33t26 -16.5t28.5 -4.5q15 0 30 4.5t27.5 16.5t20 33t7.5 54zM1989 193q0 34 -8 55.5t-20.5 33.5t-27 16t-27.5 4q-15 0 -30 -4t-26.5 -16t-19 -33.5t-7.5 -55.5q0 -33 7.5 -54t19 -33t26 -16.5t28.5 -4.5q15 0 30 4.5t27.5 16.5t20 33t7.5 54
zM700 496q0 -49 -29.5 -86.5t-76.5 -62.5t-106.5 -37.5t-119.5 -12.5t-119 13t-105.5 38t-75 62t-28.5 86q0 48 28.5 84.5t75 62t105.5 38.5t121 13q59 0 118 -12.5t106 -37.5t76.5 -62t29.5 -86zM576 -1h-219l633 696h218zM1527 193q0 -49 -29.5 -86.5t-76.5 -62.5
t-106.5 -37.5t-119.5 -12.5t-119 13t-105.5 38t-75 62t-28.5 86q0 48 28.5 84.5t75 62t105.5 38.5t121 13q59 0 118 -12.5t106 -37.5t76.5 -62t29.5 -86zM2236 193q0 -49 -29.5 -86.5t-76.5 -62.5t-106.5 -37.5t-119.5 -12.5t-119 13t-105.5 38t-75 62t-28.5 86
q0 48 28.5 84.5t75 62t105.5 38.5t121 13q59 0 118 -12.5t106 -37.5t76.5 -62t29.5 -86z" />
    <glyph glyph-name="guilsinglleft" unicode="&#x2039;" horiz-adv-x="599" 
d="M269 73l-189 213l186 211h251l-153 -211l155 -213h-250z" />
    <glyph glyph-name="guilsinglright" unicode="&#x203a;" horiz-adv-x="599" 
d="M330 73h-250l155 213l-153 211h251l186 -211z" />
    <glyph glyph-name="Euro" unicode="&#x20ac;" horiz-adv-x="1464" 
d="M1424 290q-4 -59 -32 -114.5t-92 -98.5t-169.5 -69t-264.5 -26q-250 0 -409 63t-221 179h-222l58 93h138l-2 27l2 24h-188l56 92h160q65 111 220 173.5t397 62.5q64 0 114 -7t90 -18t70.5 -24t55.5 -26l40 58h167v-293h-234q-23 99 -101 146.5t-193 47.5
q-46 0 -87.5 -7.5t-76.5 -22.5t-62.5 -37.5t-45.5 -52.5h341l-56 -92h-313q-1 -5 -1 -10.5v-12.5q0 -9 0.5 -16.5t0.5 -11.5h361l-56 -93h-275q19 -34 49 -58t68 -39t83 -21.5t94 -6.5q63 0 115 11t89.5 36t58 66t20.5 100z" />
    <glyph glyph-name="trademark" unicode="&#x2122;" horiz-adv-x="1217" 
d="M417 579v98h-68v-285h59v-62h-213v62h59v285h-68v-98h-76v159h384v-159h-77zM868 330v62h58v220l-112 -285h-50l-114 284v-219h56v-62h-185v62h58v285h-58v61h185l100 -256l100 256h171v-61h-57v-285h57v-62h-209z" />
    </font>
</defs>
</svg>
