<svg width="160" height="133" viewBox="0 0 160 133" fill="none" xmlns="http://www.w3.org/2000/svg">
<path fill-rule="evenodd" clip-rule="evenodd" d="M88.4727 21.0331L90.4998 23.5385L92.22 26.3551L135.166 124.678L136.579 127.894L137.467 131.05L137.855 134.099L137.769 136.989L137.23 139.671L136.262 142.089L134.886 144.189L133.128 145.913L131.009 147.2L128.557 147.99L125.797 148.222L122.759 147.834L19.8141 125.502L16.1212 124.331L12.728 122.605L9.68091 120.401L7.02474 117.803L4.802 114.891L3.05297 111.75L1.81549 108.463L1.1248 105.116L1.01367 101.79L1.51231 98.5679L2.64843 95.5282L4.4474 92.7487L64.3663 17.2797L66.1694 15.5611L68.2796 14.3783L70.6293 13.7031L73.1529 13.5078L75.7865 13.7661L78.4681 14.4527L81.1367 15.5441L83.7328 17.018L86.1975 18.8539L88.4727 21.0331Z" fill="url(#paint0_linear_2005_19901)" fill-opacity="0.35"/>
<foreignObject x="-30" y="-26.0107" width="211.958" height="204.618"><div xmlns="http://www.w3.org/1999/xhtml" style="backdrop-filter:blur(15px);clip-path:url(#bgblur_0_2005_19901_clip_path);height:100%;width:100%"></div></foreignObject><path data-figma-bg-blur-radius="30" fill-rule="evenodd" clip-rule="evenodd" d="M1.72302 95.0858L3.56382 92.2222L61.2246 20.4798L64.2583 17.2951L67.3444 14.0552L70.4847 10.7586L73.6802 7.40389L76.9329 3.98926L18.6313 76.9763L16.766 79.9161L15.588 83.131L15.071 86.5392L15.1863 90.0566L15.9024 93.5968L17.1855 97.0724L18.999 100.395L21.3037 103.474L24.0577 106.223L27.217 108.553L30.7353 110.379L34.5642 111.618L143.404 136.814L146.554 137.224L149.416 136.979L151.958 136.143L147.86 138.497L143.836 140.808L139.885 143.078L136.005 145.306L132.194 147.495L129.694 148.335L126.895 148.607L123.826 148.25L18.5003 125.372L14.8167 124.232L11.4422 122.523L8.42168 120.324L5.79835 117.716L3.61335 114.784L1.90561 111.611L0.711712 108.283L0.0659201 104.883L0 101.496L0.543354 98.2032L1.72302 95.0858Z" fill="url(#paint1_linear_2005_19901)" fill-opacity="0.6"/>
<foreignObject x="2.07092" y="-13" width="169.985" height="163.225"><div xmlns="http://www.w3.org/1999/xhtml" style="backdrop-filter:blur(6.5px);clip-path:url(#bgblur_1_2005_19901_clip_path);height:100%;width:100%"></div></foreignObject><path data-figma-bg-blur-radius="13" d="M88.6832 0.765625L91.3961 1.47461L94.0992 2.60254L96.7389 4.13184L99.2438 6.03516L101.556 8.29492L103.619 10.8965L105.379 13.8369L155.807 112.521H155.808L157.26 115.894L158.161 119.156L158.554 122.309L158.467 125.29L157.926 128.035L156.958 130.507L155.585 132.645L153.842 134.386L151.744 135.687L149.315 136.485L146.566 136.722L143.491 136.321L34.7067 111.138L30.9264 109.915L27.483 108.128L24.3834 105.842L21.6803 103.144L19.4205 100.124L17.6393 96.8594L16.3834 93.4561L15.6842 89.998L15.5719 86.5654L16.0748 83.252L17.2155 80.1387L19.0377 77.2676L77.3082 4.31934L79.1061 2.57227L81.1862 1.38379L83.5172 0.700195L86.0377 0.500977L88.6832 0.765625Z" fill="url(#paint2_linear_2005_19901)" fill-opacity="0.2" stroke="url(#paint3_linear_2005_19901)"/>
<g filter="url(#filter2_d_2005_19901)">
<path fill-rule="evenodd" clip-rule="evenodd" d="M87.6714 26.8666L87.4927 27.1596L86.0791 28.1291L84.6655 29.0985L84.8032 28.7405L84.9827 28.4481L86.327 27.6574L87.6714 26.8666ZM85.2036 28.2215L87.8902 26.6406L87.8919 26.6395L87.6714 26.8666L84.9844 28.4471L84.9827 28.4481L85.2036 28.2215ZM87.4927 27.1596L86.0791 28.1291L84.6655 29.0985L84.5696 29.5225L85.9152 28.7335L87.2608 27.9445L87.3555 27.5191L87.4927 27.1596ZM85.2416 28.199L85.2036 28.2215L85.207 28.2194L85.466 28.0604L88.1158 26.5011L88.154 26.4785L88.1507 26.4806L87.8919 26.6395L85.2416 28.199ZM87.2608 27.9445L85.9152 28.7335L84.5696 29.5225L84.5155 30.0124L84.5033 30.5684L85.2963 73.4408L85.2962 73.4425L85.3247 73.9784L85.3898 74.481L85.4916 74.9503L85.6303 75.3859L85.8053 75.788L86.017 76.1561L86.2654 76.4904L86.55 76.7906L86.8709 77.0569L87.2281 77.2889L87.6214 77.4869L88.0507 77.6507L92.9524 79.2598L93.3748 79.3757L93.7611 79.4344L94.1114 79.436L94.4259 79.3806L96.9408 78.1194L96.9417 78.1189L96.5912 78.1165L96.2044 78.0566L95.7813 77.9391L90.8705 76.3099L90.4404 76.1442L90.0461 75.9443L89.6879 75.7102L89.3658 75.4419L89.08 75.1394L88.8303 74.8031L88.6177 74.4323L88.4414 74.0279L88.3013 73.5898L88.1981 73.1179L88.132 72.6125L88.1021 72.0739L87.1971 28.9965L87.197 28.9949L87.208 28.4364L87.2608 27.9445ZM94.1907 101.186L93.714 101.073L87.1611 99.1393L86.6741 98.968L86.2291 98.754L85.8265 98.4971L85.4663 98.1975L85.149 97.8551L84.8746 97.4702L84.6431 97.0428L84.4546 96.573L84.3093 96.061L84.207 95.507L84.1481 94.9113L84.1321 94.2741L84.1911 87.267L84.2175 86.6515L84.2856 86.1041L84.3954 85.6245L84.5468 85.2128L84.7396 84.8686L84.974 84.5921L85.2498 84.3829L88.0828 83.0698L88.0838 83.0694L87.8084 83.2788L87.5746 83.5563L87.3823 83.9017L87.2318 84.3152L87.1231 84.797L87.0563 85.3471L87.0315 85.9656L86.9905 93.0089L87.008 93.6495L87.0687 94.2485L87.1726 94.8056L87.3194 95.3206L87.5093 95.7933L87.7422 96.2234L88.018 96.611L88.3366 96.9558L88.6979 97.2578L89.1016 97.517L89.5476 97.7331L96.601 99.8647L97.0786 99.9798L97.514 100.028L97.9067 100.008L95.3688 101.126L95.0182 101.213L94.6255 101.233L94.1907 101.186ZM97.9067 100.008L98.2578 99.9218L95.3688 101.126L97.9067 100.008Z" fill="url(#paint4_linear_2005_19901)"/>
<path fill-rule="evenodd" clip-rule="evenodd" d="M88.8032 26.3545L88.8031 26.3545L88.8031 26.3545L88.8031 26.3545L88.4579 26.384L88.1541 26.4791L88.1541 26.4792L88.154 26.4792L87.8919 26.6402L87.6715 26.8671L87.6714 26.8672L87.6714 26.8672L87.4926 27.1603L87.3558 27.5195L87.3557 27.5195L87.3558 27.5195L87.3557 27.5195L87.3558 27.5195L88.1541 26.4792L88.1541 26.4792L88.1541 26.4792L87.3558 27.5195L87.2079 28.4371L87.1971 28.9955L88.102 72.0719L88.102 72.0745L88.1319 72.6131L88.1984 73.1184L88.3015 73.5903L88.4413 74.0285L88.6176 74.4329L88.8306 74.8035L89.0799 75.14L89.3657 75.4425L89.6878 75.7108L90.046 75.9449L90.4402 76.1449L90.8703 76.3105L95.7812 77.9397L96.2043 78.0572L96.5911 78.1171L96.9418 78.1196L97.2564 78.0646L97.5351 77.9524L97.5351 77.9524L97.5352 77.9523L97.7779 77.783L97.9845 77.5569L97.9848 77.5567L97.9849 77.5566L97.9849 77.5566L97.985 77.5564L98.1561 77.2732L98.2916 76.9332L98.2917 76.9329L98.4561 76.0823L98.4562 76.0821L98.4852 75.5716L99.3593 33.8843L99.3592 33.8837L99.3488 33.3277L99.2978 32.8033L99.2063 32.3109L99.0743 31.8502L98.9017 31.4211L98.6885 31.0235L98.4347 30.6571L98.1401 30.322L97.8046 30.0179L97.428 29.745L97.0102 29.503L96.551 29.292L90.0869 26.659L89.6178 26.4922L89.6178 26.4922L89.6175 26.4921L89.1897 26.3906L88.8033 26.3545L88.8032 26.3545ZM98.2919 76.9329L98.3918 76.5359L98.4563 76.0821L98.2919 76.9329ZM98.9953 87.2005L98.7693 86.7822L98.5028 86.4042L98.1956 86.0663L97.8476 85.7684L97.4587 85.5105L97.0287 85.2926H97.0286L96.5572 85.1146L90.0805 83.0353L89.5989 82.9076L89.1584 82.8471L88.7589 82.8539L88.4007 82.9281L88.0838 83.0699L87.8084 83.2795H87.8084L87.8078 83.2803L87.5746 83.5569L87.3829 83.9013L87.3822 83.9023L87.3819 83.9036L87.2318 84.3158L87.1234 84.7962L87.1231 84.7975L87.123 84.7976L87.123 84.7982L87.1228 84.7997L87.0563 85.3477L87.0315 85.9658L87.0315 85.9662L86.9905 93.0095L87.0081 93.6501L87.0689 94.2491L87.1726 94.8062L87.3195 95.3212L87.5093 95.7936L87.5093 95.7939L87.5094 95.7939L87.7423 96.2241L88.0181 96.6116L88.3367 96.9565L88.698 97.2585L88.6982 97.2586L88.6987 97.2589L89.1017 97.5176L89.547 97.7334L89.5477 97.7338L96.6011 99.8653L97.0787 99.9804L97.5139 100.028L97.9069 100.009L98.2577 99.9224L98.5665 99.7691L98.833 99.5494L98.8332 99.5491L98.8333 99.5491L99.0583 99.2625L99.2413 98.9095L99.2414 98.909L99.2415 98.9087L99.2416 98.9084L99.3828 98.49L99.4826 98.0047L99.4827 98.0043L99.5411 97.4524L99.5581 96.8346L99.5581 96.8345L99.5187 89.9009L99.4949 89.2789L99.4306 88.6981L99.3259 88.1582L99.1808 87.6591L98.9953 87.2005ZM99.3259 88.1582L99.4949 89.2789L99.5581 96.8345L99.4948 89.2789L99.3258 88.1582L98.5027 86.4042L98.5028 86.4042L99.3259 88.1582ZM87.2608 27.9451L87.3557 27.5195L87.2079 28.4371L87.2608 27.9451Z" fill="url(#paint5_linear_2005_19901)" fill-opacity="0.8"/>
</g>
<defs>
<clipPath id="bgblur_0_2005_19901_clip_path" transform="translate(30 26.0107)"><path fill-rule="evenodd" clip-rule="evenodd" d="M1.72302 95.0858L3.56382 92.2222L61.2246 20.4798L64.2583 17.2951L67.3444 14.0552L70.4847 10.7586L73.6802 7.40389L76.9329 3.98926L18.6313 76.9763L16.766 79.9161L15.588 83.131L15.071 86.5392L15.1863 90.0566L15.9024 93.5968L17.1855 97.0724L18.999 100.395L21.3037 103.474L24.0577 106.223L27.217 108.553L30.7353 110.379L34.5642 111.618L143.404 136.814L146.554 137.224L149.416 136.979L151.958 136.143L147.86 138.497L143.836 140.808L139.885 143.078L136.005 145.306L132.194 147.495L129.694 148.335L126.895 148.607L123.826 148.25L18.5003 125.372L14.8167 124.232L11.4422 122.523L8.42168 120.324L5.79835 117.716L3.61335 114.784L1.90561 111.611L0.711712 108.283L0.0659201 104.883L0 101.496L0.543354 98.2032L1.72302 95.0858Z"/>
</clipPath><clipPath id="bgblur_1_2005_19901_clip_path" transform="translate(-2.07092 13)"><path d="M88.6832 0.765625L91.3961 1.47461L94.0992 2.60254L96.7389 4.13184L99.2438 6.03516L101.556 8.29492L103.619 10.8965L105.379 13.8369L155.807 112.521H155.808L157.26 115.894L158.161 119.156L158.554 122.309L158.467 125.29L157.926 128.035L156.958 130.507L155.585 132.645L153.842 134.386L151.744 135.687L149.315 136.485L146.566 136.722L143.491 136.321L34.7067 111.138L30.9264 109.915L27.483 108.128L24.3834 105.842L21.6803 103.144L19.4205 100.124L17.6393 96.8594L16.3834 93.4561L15.6842 89.998L15.5719 86.5654L16.0748 83.252L17.2155 80.1387L19.0377 77.2676L77.3082 4.31934L79.1061 2.57227L81.1862 1.38379L83.5172 0.700195L86.0377 0.500977L88.6832 0.765625Z"/>
</clipPath><filter id="filter2_d_2005_19901" x="70.1321" y="19.3545" width="35.426" height="94.8784" filterUnits="userSpaceOnUse" color-interpolation-filters="sRGB">
<feFlood flood-opacity="0" result="BackgroundImageFix"/>
<feColorMatrix in="SourceAlpha" type="matrix" values="0 0 0 0 0 0 0 0 0 0 0 0 0 0 0 0 0 0 127 0" result="hardAlpha"/>
<feOffset dx="-4" dy="3"/>
<feGaussianBlur stdDeviation="5"/>
<feComposite in2="hardAlpha" operator="out"/>
<feColorMatrix type="matrix" values="0 0 0 0 0.333333 0 0 0 0 0.260549 0 0 0 0 0.207843 0 0 0 0.3 0"/>
<feBlend mode="normal" in2="BackgroundImageFix" result="effect1_dropShadow_2005_19901"/>
<feBlend mode="normal" in="SourceGraphic" in2="effect1_dropShadow_2005_19901" result="shape"/>
</filter>
<linearGradient id="paint0_linear_2005_19901" x1="4.41328" y1="153.889" x2="116.863" y2="9.06133" gradientUnits="userSpaceOnUse">
<stop offset="0.268633" stop-color="white"/>
<stop offset="0.763637" stop-color="#C5C6F8" stop-opacity="0.39"/>
</linearGradient>
<linearGradient id="paint1_linear_2005_19901" x1="-37.3192" y1="23.5884" x2="99.0051" y2="192.231" gradientUnits="userSpaceOnUse">
<stop offset="0.325325" stop-color="#BED0FF"/>
<stop offset="0.51875" stop-color="#76A8FF"/>
<stop offset="0.976143" stop-color="#04337B"/>
</linearGradient>
<linearGradient id="paint2_linear_2005_19901" x1="19.6467" y1="142.389" x2="139.143" y2="-8.4873" gradientUnits="userSpaceOnUse">
<stop offset="0.268633" stop-color="white"/>
<stop offset="0.763637" stop-color="#A6B3EE"/>
</linearGradient>
<linearGradient id="paint3_linear_2005_19901" x1="15.2045" y1="104.405" x2="75.0094" y2="56.2571" gradientUnits="userSpaceOnUse">
<stop stop-color="white" stop-opacity="0.27"/>
<stop offset="0.688828" stop-color="white" stop-opacity="0"/>
</linearGradient>
<linearGradient id="paint4_linear_2005_19901" x1="77.5434" y1="47.6403" x2="103.151" y2="48.8431" gradientUnits="userSpaceOnUse">
<stop offset="0.334199" stop-color="#3055C5"/>
<stop offset="0.590808" stop-color="#2227BF"/>
</linearGradient>
<linearGradient id="paint5_linear_2005_19901" x1="126.198" y1="99.3367" x2="144.532" y2="73.8919" gradientUnits="userSpaceOnUse">
<stop offset="0.306695" stop-color="white" stop-opacity="0.85"/>
<stop offset="1" stop-color="#B7C7E7" stop-opacity="0.64"/>
</linearGradient>
</defs>
</svg>
