<svg width="16" height="16" viewBox="0 0 16 16" fill="none" xmlns="http://www.w3.org/2000/svg">
<path fill-rule="evenodd" clip-rule="evenodd" d="M11.3159 3.11529C11.4512 3.05471 11.5992 3.03382 11.7446 3.05479C11.89 3.07575 12.0275 3.13781 12.1427 3.2345C12.2579 3.33119 12.3467 3.45898 12.3998 3.60456C12.4528 3.75015 12.4683 3.90821 12.4444 4.06229L11.2032 12.0745C11.0828 12.8474 10.2859 13.2906 9.61984 12.9056C9.06269 12.5836 8.23518 12.0873 7.49085 11.5696C7.11869 11.3104 5.97867 10.4805 6.11878 9.88991C6.23918 9.38495 8.15472 7.48746 9.24932 6.35932C9.67894 5.91611 9.48301 5.66043 8.97567 6.06812C7.71579 7.08035 5.69298 8.61966 5.02418 9.05298C4.4342 9.43504 4.12662 9.50027 3.75883 9.43504C3.08785 9.31623 2.46557 9.13219 1.95768 8.90796C1.27137 8.6051 1.30475 7.60103 1.95713 7.30866L11.3159 3.11529Z" fill="white"/>
</svg>
