<svg width="16" height="16" viewBox="0 0 16 16" fill="none" xmlns="http://www.w3.org/2000/svg">
<path d="M8 2C11.3138 2 14 4.6862 14 8C14 11.3138 11.3138 14 8 14C6.93967 14.0017 5.898 13.7211 4.98201 13.187L2.00241 14L2.81361 11.0192C2.27906 10.1029 1.99824 9.06079 2.00001 8C2.00001 4.6862 4.68621 2 8 2ZM5.95521 5.18L5.83521 5.1848C5.75752 5.18953 5.68159 5.20994 5.61201 5.2448C5.54692 5.28166 5.4875 5.32773 5.43561 5.3816C5.36361 5.4494 5.32281 5.5082 5.27901 5.5652C5.05708 5.85374 4.93759 6.20799 4.93941 6.572C4.94061 6.866 5.01741 7.1522 5.13741 7.4198C5.38281 7.961 5.78661 8.534 6.31941 9.065C6.44781 9.1928 6.57381 9.3212 6.70941 9.4406C7.37144 10.0235 8.16036 10.4438 9.0134 10.6682L9.3542 10.7204C9.4652 10.7264 9.5762 10.718 9.6878 10.7126C9.86255 10.7036 10.0332 10.6563 10.1876 10.574C10.2662 10.5335 10.3429 10.4895 10.4174 10.442C10.4174 10.442 10.4432 10.4252 10.4924 10.388C10.5734 10.328 10.6232 10.2854 10.6904 10.2152C10.7402 10.1636 10.7834 10.103 10.8164 10.034C10.8632 9.93619 10.91 9.74959 10.9292 9.59419C10.9436 9.47539 10.9394 9.4106 10.9376 9.3704C10.9352 9.3062 10.8818 9.2396 10.8236 9.2114L10.4744 9.0548C10.4744 9.0548 9.9524 8.8274 9.6332 8.6822C9.5998 8.66761 9.56401 8.65927 9.5276 8.6576C9.48655 8.65338 9.44507 8.658 9.40595 8.67114C9.36684 8.68429 9.33098 8.70565 9.3008 8.7338C9.2978 8.7326 9.2576 8.7668 8.8238 9.2924C8.7989 9.32585 8.76461 9.35114 8.72529 9.36503C8.68596 9.37892 8.64339 9.38079 8.603 9.3704C8.56392 9.35991 8.52562 9.34668 8.4884 9.3308C8.414 9.2996 8.3882 9.28759 8.3372 9.266C7.99284 9.11572 7.67402 8.91269 7.3922 8.6642C7.3166 8.5982 7.24641 8.5262 7.17441 8.4566C6.93836 8.23053 6.73264 7.9748 6.56241 7.6958L6.52701 7.6388C6.50158 7.6005 6.48102 7.55918 6.46581 7.5158C6.44301 7.4276 6.50241 7.3568 6.50241 7.3568C6.50241 7.3568 6.64821 7.1972 6.71601 7.1108C6.78201 7.0268 6.8378 6.9452 6.87381 6.887C6.9446 6.773 6.9668 6.656 6.92961 6.5654C6.76161 6.155 6.58761 5.7464 6.40881 5.3408C6.37341 5.2604 6.26841 5.2028 6.17301 5.1914C6.14061 5.1878 6.10821 5.1842 6.07581 5.1818C5.99523 5.17779 5.91449 5.1786 5.83401 5.1842L5.95521 5.18Z" fill="white"/>
</svg>
